<svg width="20" height="19" viewBox="0 0 20 19" fill="none" xmlns="http://www.w3.org/2000/svg">
<g clip-path="url(#clip0)">
<path d="M20 3.16675H0V15.8336H20V3.16675Z" fill="#F0F0F0"/>
<path d="M11.25 3.1665H8.75V8.31231H0V10.6873H8.75V15.8331H11.25V10.6873H20V8.31231H11.25V3.1665Z" fill="#D80027"/>
<path d="M15.3828 11.7029L20.0006 14.1401V11.7029H15.3828Z" fill="#0052B4"/>
<path d="M12.1738 11.7029L19.9999 15.8333V14.6653L14.3869 11.7029H12.1738Z" fill="#0052B4"/>
<path d="M17.9153 15.8332L12.1738 12.8027V15.8332H17.9153Z" fill="#0052B4"/>
<path d="M12.1738 11.7029L19.9999 15.8333V14.6653L14.3869 11.7029H12.1738Z" fill="#F0F0F0"/>
<path d="M12.1738 11.7029L19.9999 15.8333V14.6653L14.3869 11.7029H12.1738Z" fill="#D80027"/>
<path d="M3.52895 11.7026L0 13.5652V11.7026H3.52895Z" fill="#0052B4"/>
<path d="M7.82645 12.2278V15.833H0.996094L7.82645 12.2278Z" fill="#0052B4"/>
<path d="M5.61301 11.7029L0 14.6653V15.8333L7.82609 11.7029H5.61301Z" fill="#D80027"/>
<path d="M4.61777 7.29706L0 4.85986V7.29706H4.61777Z" fill="#0052B4"/>
<path d="M7.82609 7.29693L0 3.1665V4.33448L5.61301 7.29693H7.82609Z" fill="#0052B4"/>
<path d="M2.08496 3.1665L7.82645 6.197V3.1665H2.08496Z" fill="#0052B4"/>
<path d="M7.82609 7.29693L0 3.1665V4.33448L5.61301 7.29693H7.82609Z" fill="#F0F0F0"/>
<path d="M7.82609 7.29693L0 3.1665V4.33448L5.61301 7.29693H7.82609Z" fill="#D80027"/>
<path d="M16.4707 7.29685L19.9997 5.43433V7.29685H16.4707Z" fill="#0052B4"/>
<path d="M12.1738 6.77172V3.1665H19.0042L12.1738 6.77172Z" fill="#0052B4"/>
<path d="M14.3869 7.29693L19.9999 4.33448V3.1665L12.1738 7.29693H14.3869Z" fill="#D80027"/>
</g>
<defs>
<clipPath id="clip0">
<rect width="20" height="19" fill="white"/>
</clipPath>
</defs>
</svg>
