<svg width="27" height="26" viewBox="0 0 27 26" fill="none" xmlns="http://www.w3.org/2000/svg">
<g clip-path="url(#clip0)">
<path d="M25.9441 12.4944C25.7119 12.1766 20.1776 4.71436 13.1092 4.71436C6.04094 4.71436 0.506384 12.1766 0.274364 12.4941C0.0543788 12.7955 0.0543788 13.2043 0.274364 13.5058C0.506384 13.8235 6.04094 21.2858 13.1092 21.2858C20.1776 21.2858 25.7119 13.8235 25.9441 13.506C26.1644 13.2046 26.1644 12.7955 25.9441 12.4944ZM13.1092 19.5715C7.90269 19.5715 3.39325 14.6186 2.05836 12.9995C3.39153 11.3789 7.89152 6.42863 13.1092 6.42863C18.3156 6.42863 22.8247 11.3806 24.1601 13.0007C22.827 14.6212 18.327 19.5715 13.1092 19.5715Z" fill="white"/>
<path d="M13.1092 7.85742C10.2735 7.85742 7.96631 10.1646 7.96631 13.0003C7.96631 15.836 10.2735 18.1432 13.1092 18.1432C15.9449 18.1432 18.2521 15.836 18.2521 13.0003C18.2521 10.1646 15.9449 7.85742 13.1092 7.85742ZM13.1092 16.4289C11.2186 16.4289 9.68064 14.8908 9.68064 13.0003C9.68064 11.1098 11.2187 9.57175 13.1092 9.57175C14.9997 9.57175 16.5377 11.1098 16.5377 13.0003C16.5377 14.8908 14.9998 16.4289 13.1092 16.4289Z" fill="white"/>
</g>
<defs>
<clipPath id="clip0">
<rect width="26" height="26" fill="white" transform="translate(0.109375)"/>
</clipPath>
</defs>
</svg>
