<svg width="36" height="36" viewBox="0 0 36 36" fill="none" xmlns="http://www.w3.org/2000/svg">
<path d="M26.0569 19.6652C25.8132 19.338 25.866 19.1234 26.0526 18.7953C26.2854 18.3865 26.7489 17.7623 27.2396 17.1016C28.8134 14.9821 29.8291 13.5146 29.6188 12.468C29.5533 12.1424 29.2674 11.9087 28.9361 11.9087C28.9342 11.9087 25.5094 11.9095 24.2454 11.9158C23.9386 11.9171 23.6687 12.113 23.5814 12.4073C23.4294 12.9203 22.8356 14.3075 22.1159 15.5775C21.1826 17.2242 20.5711 17.7402 20.3557 17.8308L20.3217 17.8202C20.2513 17.7331 20.1289 17.4981 20.0785 16.8897C20.0261 16.2532 20.0726 15.4834 20.1177 14.7389C20.1705 13.8685 20.2162 13.1167 20.1071 12.5806C20.032 12.3844 20.0892 11.7401 19.4891 11.6049C18.6628 11.4186 17.5413 11.3563 16.7416 11.3478C14.8476 11.3291 14.2903 11.6024 14.0172 11.8437C13.8309 12.0083 13.7463 12.2599 13.7958 12.5036C13.845 12.7473 14.0205 12.9464 14.2563 13.0256C14.6809 13.1684 14.8324 13.3495 14.9537 14.205C15.0307 14.7509 15.0709 15.6675 14.9874 16.4855C14.8699 17.6393 14.59 17.8702 14.5626 17.889C14.503 17.8694 14.0379 17.6676 13.1979 15.9632C12.4752 14.4971 11.8686 12.7356 11.5852 12.005C11.4813 11.7371 11.2234 11.5605 10.9359 11.5605H6.77264C6.54307 11.5605 6.32818 11.6737 6.19817 11.863C6.06842 12.0523 6.04013 12.2936 6.12309 12.5079C7.42735 15.8851 8.92392 19.3442 11.023 21.7648C13.1949 24.2697 15.8758 25.4872 19.2187 25.4872C19.6034 25.4872 19.9151 25.1755 19.9151 24.7909C19.9151 23.5897 20.084 23.2331 20.3476 22.7326C20.4936 22.4562 20.6364 22.3376 20.7142 22.3202C20.7847 22.3039 20.909 22.3559 21.0472 22.459C21.4432 22.7538 21.7576 23.142 22.0903 23.5527C22.5698 24.1446 23.0657 24.7569 23.8532 25.1583C24.2824 25.3762 25.05 25.4866 25.4906 25.4801H28.9674C29.3631 25.4801 29.6795 25.1575 29.6632 24.762C29.578 22.7038 26.6934 20.4652 26.0569 19.6652ZM25.4857 24.0945C25.4819 24.0945 25.4784 24.0945 25.4746 24.0945C25.1841 24.1016 24.6564 24.0045 24.4845 23.9169C23.9617 23.6503 23.5958 23.1988 23.1723 22.6763C22.8002 22.2166 22.4153 21.7414 21.8792 21.3421C20.8916 20.6058 19.7734 20.8381 19.1159 22.0828C18.7476 22.7813 18.6048 23.2415 18.5455 24.076C15.9144 23.9281 13.8448 22.8933 12.0751 20.8522C10.306 18.8119 8.96363 15.8996 7.79293 12.9532H10.4542C11.4949 15.7562 12.8449 19.283 14.5604 19.283C14.982 19.283 15.3601 19.1043 15.6541 18.7659C16.7832 17.4666 16.3374 14.0448 16.3325 14.0099C16.2729 13.5886 16.1875 13.1458 15.9805 12.7511C16.8648 12.7163 18.0505 12.7737 18.746 12.877C18.8132 13.2396 18.7697 13.9588 18.7275 14.6546C18.625 16.3486 18.5189 18.0974 19.4276 18.8952C19.4548 18.9191 19.9594 19.2254 20.2709 19.2365C20.8372 19.2591 21.7631 18.983 23.2607 16.381C23.8714 15.3199 24.4388 14.0981 24.7442 13.2997C25.7504 13.2978 27.1602 13.2946 28.0858 13.2954C27.6775 14.1968 26.7748 15.3917 26.1214 16.2714C25.5826 16.9971 25.1172 17.6238 24.8424 18.1063C24.3313 19.004 24.4173 19.8034 24.9493 20.509C24.9521 20.513 24.955 20.5168 24.958 20.5207C25.6187 21.3601 27.3337 22.6616 28.0483 24.0945H25.4857Z" fill="white"/>
</svg>
