<svg width="7" height="12" viewBox="0 0 7 12" fill="none" xmlns="http://www.w3.org/2000/svg">
<path d="M6.7052 4.86855L2.10209 0.27229C1.93258 0.0934242 1.72089 0.00402832 1.46663 0.00402832C1.21236 0.00402832 1.00068 0.0935231 0.831164 0.27229L0.29459 0.80189C0.120398 0.976057 0.033302 1.18776 0.033302 1.43723C0.033302 1.68198 0.120373 1.8962 0.29459 2.07972L3.72584 5.50404L0.294442 8.93541C0.120299 9.10958 0.0332031 9.32128 0.0332031 9.57077C0.0332031 9.81549 0.120275 10.0298 0.294442 10.2132L0.831065 10.7428C1.00523 10.9169 1.21714 11.004 1.46653 11.004C1.71602 11.004 1.92788 10.9169 2.10199 10.7428L6.7052 6.1465C6.87945 5.96294 6.96662 5.74876 6.96662 5.50402C6.96664 5.25455 6.87945 5.04272 6.7052 4.86855Z" fill="white"/>
</svg>
