<svg width="36" height="36" viewBox="0 0 36 36" fill="none" xmlns="http://www.w3.org/2000/svg">
<path d="M26.4426 5.98999H9.73068C7.81087 5.98999 6.24902 7.55184 6.24902 9.47165V26.1836C6.24902 28.1034 7.81087 29.6653 9.73068 29.6653H26.4426C28.3624 29.6653 29.9243 28.1034 29.9243 26.1836V9.47165C29.9243 7.55184 28.3624 5.98999 26.4426 5.98999ZM28.5316 26.1836C28.5316 27.3355 27.5946 28.2726 26.4426 28.2726H9.73068C8.57874 28.2726 7.64169 27.3355 7.64169 26.1836V9.47165C7.64169 8.31971 8.57874 7.38265 9.73068 7.38265H26.4426C27.5946 7.38265 28.5316 8.31971 28.5316 9.47165V26.1836Z" fill="white"/>
<path d="M18.0868 11.5605C14.6313 11.5605 11.8198 14.372 11.8198 17.8275C11.8198 21.2831 14.6313 24.0945 18.0868 24.0945C21.5424 24.0945 24.3538 21.2831 24.3538 17.8275C24.3538 14.372 21.5424 11.5605 18.0868 11.5605ZM18.0868 22.7018C15.3991 22.7018 13.2125 20.5152 13.2125 17.8275C13.2125 15.1399 15.3991 12.9532 18.0868 12.9532C20.7745 12.9532 22.9611 15.1399 22.9611 17.8275C22.9611 20.5152 20.7745 22.7018 18.0868 22.7018Z" fill="white"/>
<path d="M25.0499 8.77515C23.898 8.77515 22.9609 9.7122 22.9609 10.8641C22.9609 12.0161 23.898 12.9531 25.0499 12.9531C26.2019 12.9531 27.1389 12.0161 27.1389 10.8641C27.1389 9.7122 26.2019 8.77515 25.0499 8.77515ZM25.0499 11.5605C24.6659 11.5605 24.3536 11.2482 24.3536 10.8641C24.3536 10.4801 24.6659 10.1678 25.0499 10.1678C25.434 10.1678 25.7463 10.4801 25.7463 10.8641C25.7463 11.2482 25.434 11.5605 25.0499 11.5605Z" fill="white"/>
</svg>
