<svg width="36" height="37" viewBox="0 0 36 37" fill="none" xmlns="http://www.w3.org/2000/svg">
<path d="M26.4417 6.5199H9.7297C7.8099 6.5199 6.24805 8.08175 6.24805 10.0016V26.7135C6.24805 28.6333 7.8099 30.1952 9.7297 30.1952H26.4417C28.3615 30.1952 29.9233 28.6333 29.9233 26.7135V10.0016C29.9233 8.08175 28.3615 6.5199 26.4417 6.5199ZM28.5307 26.7135C28.5307 27.8654 27.5936 28.8025 26.4417 28.8025H9.7297C8.57777 28.8025 7.64071 27.8654 7.64071 26.7135V10.0016C7.64071 8.84962 8.57777 7.91256 9.7297 7.91256H26.4417C27.5936 7.91256 28.5307 8.84962 28.5307 10.0016V26.7135Z" fill="url(#paint0_linear_403:385)"/>
<path d="M18.0853 12.0906C14.6298 12.0906 11.8184 14.902 11.8184 18.3576C11.8184 21.8131 14.6298 24.6245 18.0853 24.6245C21.5409 24.6245 24.3523 21.8131 24.3523 18.3576C24.3523 14.902 21.5409 12.0906 18.0853 12.0906ZM18.0853 23.2319C15.3977 23.2319 13.211 21.0452 13.211 18.3576C13.211 15.6699 15.3977 13.4832 18.0853 13.4832C20.773 13.4832 22.9597 15.6699 22.9597 18.3576C22.9597 21.0452 20.773 23.2319 18.0853 23.2319Z" fill="url(#paint1_linear_403:385)"/>
<path d="M25.0499 9.30524C23.898 9.30524 22.9609 10.2423 22.9609 11.3942C22.9609 12.5462 23.898 13.4832 25.0499 13.4832C26.2019 13.4832 27.1389 12.5462 27.1389 11.3942C27.1389 10.2423 26.2019 9.30524 25.0499 9.30524ZM25.0499 12.0906C24.6659 12.0906 24.3536 11.7783 24.3536 11.3942C24.3536 11.0102 24.6659 10.6979 25.0499 10.6979C25.434 10.6979 25.7463 11.0102 25.7463 11.3942C25.7463 11.7783 25.434 12.0906 25.0499 12.0906Z" fill="url(#paint2_linear_403:385)"/>
<defs>
<linearGradient id="paint0_linear_403:385" x1="18.0857" y1="6.5199" x2="18.0857" y2="30.1952" gradientUnits="userSpaceOnUse">
<stop stop-color="#AE2FDB"/>
<stop offset="1" stop-color="#E79800"/>
</linearGradient>
<linearGradient id="paint1_linear_403:385" x1="18.0853" y1="12.0906" x2="18.0853" y2="24.6245" gradientUnits="userSpaceOnUse">
<stop stop-color="#AE2FDB"/>
<stop offset="1" stop-color="#E79800"/>
</linearGradient>
<linearGradient id="paint2_linear_403:385" x1="25.0499" y1="9.30524" x2="25.0499" y2="13.4832" gradientUnits="userSpaceOnUse">
<stop stop-color="#AE2FDB"/>
<stop offset="1" stop-color="#E79800"/>
</linearGradient>
</defs>
</svg>
