<svg width="36" height="37" viewBox="0 0 36 37" fill="none" xmlns="http://www.w3.org/2000/svg">
<path d="M27.8445 9.00476L7.30274 17.0126C7.03536 17.1168 6.8591 17.3746 6.85938 17.6619C6.85965 17.9488 7.03591 18.2064 7.30356 18.3103L11.3088 19.8664C11.7674 21.0127 13.8453 26.2093 13.8782 26.2877C14.0713 26.7446 14.6651 26.857 15.0113 26.5096L18.1136 23.4074L23.8344 27.955C24.2347 28.2733 24.8386 28.0649 24.9485 27.5568L28.7783 9.80038C28.8923 9.26834 28.3698 8.80049 27.8445 9.00476ZM20.5096 13.3587L11.7786 18.5548L9.47579 17.6602L20.5096 13.3587ZM22.5676 13.7548L15.4425 20.2538C15.35 20.3384 15.2738 20.4583 15.2393 20.5878C15.239 20.5883 15.2387 20.5892 15.2387 20.5897L14.3849 23.8073L12.7105 19.6208L22.5676 13.7548ZM16.3118 21.9756L17.0163 22.5354L15.8554 23.6963L16.3118 21.9756ZM23.8232 26.1672C22.4939 25.1104 18.2172 21.7115 16.9847 20.732L26.9575 11.6356L23.8232 26.1672Z" fill="#7FB3F0"/>
</svg>
