<svg width="36" height="37" viewBox="0 0 36 37" fill="none" xmlns="http://www.w3.org/2000/svg">
<path d="M28.8024 11.9901C28.7246 11.9937 28.6495 11.9956 28.5737 11.9967L28.9961 10.8461C29.1979 10.2966 28.6697 9.75645 28.1156 9.94766C27.1399 10.2839 26.7112 10.496 26.0073 10.6788C24.1666 9.02448 21.4496 8.95267 19.5088 10.1457C17.916 11.1249 17.0491 12.8168 17.3399 14.8092C14.2213 14.3816 11.6707 12.9345 9.56407 10.4041C9.41638 10.2267 9.19061 10.134 8.96104 10.1566C8.73147 10.1791 8.52801 10.3138 8.41758 10.5164C7.54199 12.1232 7.48759 14.0503 8.38901 15.6867C8.03541 15.6984 7.74273 15.975 7.71744 16.3335C7.63257 17.5339 8.17631 19.2355 9.52518 20.4038C9.29751 20.5839 9.20367 20.8885 9.29588 21.1678C9.76264 22.5844 10.7318 23.6798 11.9898 24.2891C10.7329 24.8222 9.71857 25.1625 8.05091 25.7109C7.78734 25.7974 7.60047 26.0324 7.57518 26.3087C7.54988 26.5851 7.69105 26.8503 7.9345 26.9833C8.47198 27.2771 10.3706 28.2582 12.2474 28.5525C16.4001 29.204 21.0508 28.6801 24.1876 25.855C26.85 23.4576 27.7193 20.0325 27.5373 16.4682C27.5101 15.9299 27.6573 15.4169 27.9521 15.0235C28.0816 14.8508 27.4497 15.6932 29.3956 13.0964C29.7392 12.6261 29.3861 11.9659 28.8024 11.9901ZM26.8374 14.1888C26.3484 14.8416 26.1028 15.6758 26.1463 16.5389C26.3307 20.1405 25.358 22.9269 23.2557 24.8203C20.8221 27.0119 16.8881 27.8706 12.4631 27.1764C11.6563 27.0499 10.8224 26.7668 10.132 26.4839C11.5296 26.003 12.6097 25.574 14.3543 24.7482C15.002 24.4417 14.8159 23.4696 14.1008 23.4241C12.8129 23.3417 11.7407 22.7177 11.0816 21.7045C11.4314 21.6841 11.7689 21.6273 12.1049 21.5337C12.7922 21.3419 12.7781 20.3565 12.0837 20.1865C10.4152 19.7779 9.5143 18.5384 9.21482 17.4245C9.47594 17.4952 9.77896 17.545 10.2716 17.5937C10.9649 17.6617 11.3158 16.7788 10.7682 16.3517C9.40223 15.286 8.85469 13.6856 9.25589 12.1471C11.6629 14.6471 14.6497 16.0406 18.1507 16.2933C18.636 16.3267 19.0464 15.8972 18.8389 15.171C18.191 12.8807 19.6013 11.7233 20.2378 11.3322C21.5559 10.5219 23.6531 10.4041 25.1091 11.7443C25.4244 12.0372 25.8533 12.1523 26.2554 12.0527C26.6033 11.9662 26.8908 11.8748 27.1709 11.7758L26.9248 12.4458C26.7762 12.8502 27.0273 13.2914 27.4505 13.3706C27.2884 13.5868 27.0874 13.855 26.8374 14.1888Z" fill="#00D1FF"/>
</svg>
