<svg width="36" height="37" viewBox="0 0 36 37" fill="none" xmlns="http://www.w3.org/2000/svg">
<path d="M26.0569 20.1953C25.8132 19.8681 25.866 19.6535 26.0526 19.3254C26.2854 18.9166 26.7489 18.2923 27.2396 17.6316C28.8134 15.5122 29.8291 14.0447 29.6188 12.998C29.5533 12.6725 29.2674 12.4388 28.9361 12.4388C28.9342 12.4388 25.5094 12.4396 24.2454 12.4459C23.9386 12.4472 23.6687 12.6431 23.5814 12.9374C23.4294 13.4504 22.8356 14.8376 22.1159 16.1076C21.1826 17.7543 20.5711 18.2703 20.3557 18.3609L20.3217 18.3503C20.2513 18.2632 20.1289 18.0282 20.0785 17.4198C20.0261 16.7833 20.0726 16.0135 20.1177 15.269C20.1705 14.3986 20.2162 13.6468 20.1071 13.1107C20.032 12.9145 20.0892 12.2702 19.4891 12.135C18.6628 11.9487 17.5413 11.8864 16.7416 11.8779C14.8476 11.8592 14.2903 12.1325 14.0172 12.3738C13.8309 12.5384 13.7463 12.79 13.7958 13.0337C13.845 13.2774 14.0205 13.4765 14.2563 13.5557C14.6809 13.6985 14.8324 13.8796 14.9537 14.7351C15.0307 15.281 15.0709 16.1976 14.9874 17.0156C14.8699 18.1694 14.59 18.4003 14.5626 18.4191C14.503 18.3995 14.0379 18.1977 13.1979 16.4933C12.4752 15.0272 11.8686 13.2657 11.5852 12.5351C11.4813 12.2672 11.2234 12.0906 10.9359 12.0906H6.77264C6.54307 12.0906 6.32818 12.2038 6.19817 12.3931C6.06842 12.5824 6.04013 12.8237 6.12309 13.038C7.42735 16.4152 8.92392 19.8743 11.023 22.2949C13.1949 24.7998 15.8758 26.0173 19.2187 26.0173C19.6034 26.0173 19.9151 25.7056 19.9151 25.3209C19.9151 24.1198 20.084 23.7632 20.3476 23.2627C20.4936 22.9863 20.6364 22.8677 20.7142 22.8503C20.7847 22.834 20.909 22.886 21.0472 22.989C21.4432 23.2839 21.7576 23.672 22.0903 24.0828C22.5698 24.6747 23.0657 25.2869 23.8532 25.6884C24.2824 25.9063 25.05 26.0167 25.4906 26.0102H28.9674C29.3631 26.0102 29.6795 25.6876 29.6632 25.2921C29.578 23.2339 26.6934 20.9953 26.0569 20.1953ZM25.4857 24.6246C25.4819 24.6246 25.4784 24.6246 25.4746 24.6246C25.1841 24.6317 24.6564 24.5346 24.4845 24.447C23.9617 24.1804 23.5958 23.7289 23.1723 23.2064C22.8002 22.7467 22.4153 22.2715 21.8792 21.8722C20.8916 21.1359 19.7734 21.3682 19.1159 22.6129C18.7476 23.3114 18.6048 23.7716 18.5455 24.6061C15.9144 24.4581 13.8448 23.4234 12.0751 21.3823C10.306 19.342 8.96363 16.4297 7.79293 13.4833H10.4542C11.4949 16.2863 12.8449 19.8131 14.5604 19.8131C14.982 19.8131 15.3601 19.6344 15.6541 19.296C16.7832 17.9967 16.3374 14.5749 16.3325 14.54C16.2729 14.1187 16.1875 13.6759 15.9805 13.2812C16.8648 13.2464 18.0505 13.3038 18.746 13.4071C18.8132 13.7697 18.7697 14.4889 18.7275 15.1847C18.625 16.8787 18.5189 18.6275 19.4276 19.4252C19.4548 19.4492 19.9594 19.7555 20.2709 19.7666C20.8372 19.7892 21.7631 19.5131 23.2607 16.9111C23.8714 15.85 24.4388 14.6282 24.7442 13.8298C25.7504 13.8279 27.1602 13.8247 28.0858 13.8255C27.6775 14.7269 26.7748 15.9218 26.1214 16.8015C25.5826 17.5272 25.1172 18.1539 24.8424 18.6364C24.3313 19.534 24.4173 20.3335 24.9493 21.039C24.9521 21.0431 24.955 21.0469 24.958 21.0507C25.6187 21.8901 27.3337 23.1917 28.0483 24.6246H25.4857Z" fill="#2F5FB6"/>
</svg>
