<svg width="24" height="15" viewBox="0 0 24 15" fill="none" xmlns="http://www.w3.org/2000/svg">
<path d="M19.9808 8.31827C19.737 7.99105 19.7898 7.77644 19.9764 7.4484C20.2092 7.03958 20.6727 6.41533 21.1634 5.75463C22.7373 3.63517 23.7529 2.1677 23.5427 1.12103C23.4771 0.795441 23.1912 0.561789 22.8599 0.561789C22.858 0.561789 19.4332 0.562605 18.1692 0.568861C17.8624 0.570221 17.5926 0.766064 17.5053 1.06037C17.3532 1.57337 16.7594 2.9606 16.0397 4.23059C15.1064 5.8773 14.495 6.3933 14.2795 6.48387L14.2455 6.47326C14.1751 6.38622 14.0527 6.15121 14.0024 5.54274C13.9499 4.90625 13.9964 4.13647 14.0415 3.392C14.0943 2.52158 14.14 1.76976 14.0309 1.23364C13.9559 1.03752 14.013 0.393146 13.4129 0.25796C12.5866 0.0716366 11.4651 0.00934754 10.6654 0.000915383C8.77146 -0.0178529 8.21412 0.255512 7.94103 0.49678C7.75471 0.661343 7.67012 0.912947 7.71962 1.15666C7.76885 1.40038 7.9443 1.59949 8.18012 1.67864C8.60472 1.82144 8.75623 2.0026 8.87754 2.85805C8.95452 3.40396 8.99478 4.32062 8.91127 5.13854C8.79377 6.29238 8.51387 6.52331 8.4864 6.54208C8.42683 6.5225 7.9617 6.32067 7.12175 4.61629C6.39904 3.15018 5.79247 1.38868 5.50904 0.658078C5.40513 0.390154 5.14727 0.213623 4.85977 0.213623H0.696467C0.466895 0.213623 0.252011 0.326777 0.121993 0.516092C-0.00775283 0.705407 -0.0360413 0.946675 0.04692 1.16102C1.35118 4.53822 2.84775 7.99731 4.94681 10.4179C7.11876 12.9228 9.79964 14.1403 13.1426 14.1403C13.5272 14.1403 13.8389 13.8285 13.8389 13.4439C13.8389 12.2428 14.0078 11.8862 14.2714 11.3857C14.4175 11.1093 14.5603 10.9907 14.6381 10.9733C14.7085 10.957 14.8328 11.0089 14.971 11.112C15.367 11.4069 15.6815 11.795 16.0141 12.2058C16.4937 12.7976 16.9895 13.4099 17.777 13.8114C18.2062 14.0293 18.9738 14.1397 19.4144 14.1332H22.8912C23.287 14.1332 23.6033 13.8106 23.587 13.4151C23.5019 11.3568 20.6173 9.11824 19.9808 8.31827ZM19.4096 12.7476C19.4057 12.7476 19.4022 12.7476 19.3984 12.7476C19.1079 12.7547 18.5802 12.6576 18.4083 12.57C17.8855 12.3034 17.5197 11.8519 17.0962 11.3294C16.7241 10.8697 16.3392 10.3945 15.803 9.99518C14.8154 9.25886 13.6972 9.49116 13.0398 10.7358C12.6715 11.4344 12.5287 11.8946 12.4694 12.7291C9.83826 12.5811 7.76858 11.5464 5.99892 9.5053C4.2298 7.46499 2.88746 4.55264 1.71676 1.60629H4.37805C5.41874 4.40929 6.76869 7.93611 8.48422 7.93611C8.90583 7.93611 9.28392 7.7574 9.57795 7.41902C10.707 6.11966 10.2612 2.69784 10.2563 2.66302C10.1968 2.24169 10.1114 1.79887 9.90436 1.40419C10.7886 1.36937 11.9743 1.42676 12.6698 1.53013C12.737 1.89271 12.6935 2.61189 12.6513 3.30768C12.5488 5.00172 12.4427 6.75044 13.3515 7.54823C13.3787 7.57216 13.8832 7.87844 14.1947 7.88959C14.761 7.91217 15.6869 7.63608 17.1846 5.03409C17.7952 3.973 18.3626 2.75115 18.6681 1.95282C19.6742 1.95092 21.084 1.94765 22.0096 1.94847C21.6014 2.84989 20.6986 4.04481 20.0452 4.92447C19.5064 5.65018 19.041 6.27688 18.7663 6.75941C18.2552 7.65703 18.3411 8.45645 18.8732 9.16203C18.8759 9.16611 18.8789 9.16992 18.8819 9.17373C19.5426 10.0131 21.2576 11.3147 21.9721 12.7476H19.4096Z" fill="black"/>
</svg>
