<svg width="36" height="37" viewBox="0 0 36 37" fill="none" xmlns="http://www.w3.org/2000/svg">
<path d="M17.9138 6.5199C11.3865 6.5199 6.07617 11.8302 6.07617 18.3575C6.07617 20.5121 6.6569 22.609 7.75852 24.4434L6.23257 29.1621C6.15206 29.4107 6.21761 29.6838 6.40258 29.8688C6.58754 30.0537 6.86063 30.1193 7.10924 30.0388L11.828 28.5128C13.6624 29.6144 15.7595 30.1952 17.9138 30.1952C24.4411 30.1952 29.7514 24.8848 29.7514 18.3575C29.7514 11.8302 24.4411 6.5199 17.9138 6.5199ZM17.9138 28.8025C15.9143 28.8025 13.9716 28.2359 12.2956 27.1645C12.1201 27.0522 11.9036 27.0247 11.7061 27.0886L7.97667 28.2947L9.18274 24.5649C9.24666 24.3672 9.21891 24.151 9.10685 23.9758C8.03542 22.2997 7.46883 20.357 7.46883 18.3575C7.46883 12.5981 12.1544 7.91256 17.9138 7.91256C23.6732 7.91256 28.3588 12.5981 28.3588 18.3575C28.3588 24.117 23.6732 28.8025 17.9138 28.8025Z" fill="#46C480"/>
<path d="M22.9302 18.9973C22.6508 18.7179 22.2795 18.5643 21.8846 18.5643C21.8843 18.5643 21.884 18.5643 21.8838 18.5643C21.4888 18.5643 21.1178 18.7185 20.8398 18.997L20.286 19.5503C19.9471 19.8892 19.3982 19.8892 19.0593 19.5503L16.8473 17.3378C16.5106 17.0013 16.5057 16.453 16.8476 16.1113L17.4011 15.5578C17.9759 14.9817 17.9759 14.0438 17.4003 13.4672L15.1889 11.2563C14.612 10.678 13.6758 10.6775 13.0978 11.2558L12.545 11.8085C11.7535 12.5997 11.4891 14.2709 11.8558 16.1693C12.2524 18.2237 13.2827 20.1669 14.7564 21.6409C16.2302 23.1146 18.1734 24.1447 20.2278 24.5416C21.609 24.8081 23.6034 24.8386 24.5889 23.8523L25.141 23.3001C25.7196 22.7232 25.7201 21.7875 25.1416 21.209L22.9302 18.9973ZM23.6039 22.8676C23.2261 23.2455 22.0361 23.472 20.4919 23.1742C19.4586 22.9745 17.4672 22.3821 15.7411 20.656C14.0152 18.9301 13.4228 16.9388 13.2232 15.9054C12.925 14.3612 13.1516 13.1709 13.5294 12.7934C13.5294 12.7934 13.5297 12.7934 13.5297 12.7931L14.0827 12.2404C14.1161 12.207 14.1695 12.2061 14.2037 12.2404L16.4151 14.4513C16.4489 14.485 16.4489 14.5402 16.4157 14.5734L15.8632 15.1261C14.9795 16.0088 14.9784 17.4392 15.8627 18.3227L18.0744 20.5349C18.957 21.4176 20.3872 21.4187 21.2704 20.5352L21.8247 19.9814C21.8579 19.9482 21.9115 19.9485 21.9452 19.9819C24.2752 22.3244 24.1822 22.1871 24.1822 22.2545C24.1822 22.3168 24.1741 22.2861 23.6039 22.8676Z" fill="#46C480"/>
</svg>
