<svg width="36" height="36" viewBox="0 0 36 36" fill="none" xmlns="http://www.w3.org/2000/svg">
<path d="M27.8435 8.47473L7.30177 16.4825C7.03439 16.5867 6.85813 16.8446 6.8584 17.1318C6.85867 17.4188 7.03493 17.6764 7.30258 17.7803L11.3078 19.3364C11.7664 20.4826 13.8443 25.6793 13.8772 25.7576C14.0703 26.2146 14.6641 26.3269 15.0104 25.9796L18.1126 22.8774L23.8334 27.425C24.2338 27.7433 24.8376 27.5349 24.9475 27.0268L28.7773 9.27035C28.8913 8.73831 28.3688 8.27046 27.8435 8.47473ZM20.5087 12.8287L11.7776 18.0248L9.47481 17.1302L20.5087 12.8287ZM22.5667 13.2247L15.4415 19.7238C15.349 19.8083 15.2729 19.9283 15.2383 20.0578C15.238 20.0583 15.2378 20.0591 15.2378 20.0597L14.3839 23.2772L12.7095 19.0908L22.5667 13.2247ZM16.3108 21.4455L17.0153 22.0053L15.8544 23.1662L16.3108 21.4455ZM23.8222 25.6371C22.4929 24.5804 18.2162 21.1814 16.9838 20.2019L26.9565 11.1056L23.8222 25.6371Z" fill="white"/>
</svg>
