<svg width="36" height="36" viewBox="0 0 36 36" fill="none" xmlns="http://www.w3.org/2000/svg">
<path d="M17.9128 5.98999C11.3855 5.98999 6.0752 11.3003 6.0752 17.8276C6.0752 19.9822 6.65592 22.0791 7.75754 23.9135L6.2316 28.6322C6.15108 28.8808 6.21664 29.1539 6.4016 29.3389C6.58656 29.5238 6.85966 29.5894 7.10827 29.5089L11.827 27.9829C13.6614 29.0845 15.7586 29.6653 17.9128 29.6653C24.4401 29.6653 29.7505 24.3549 29.7505 17.8276C29.7505 11.3003 24.4401 5.98999 17.9128 5.98999ZM17.9128 28.2726C15.9133 28.2726 13.9707 27.706 12.2946 26.6346C12.1191 26.5222 11.9026 26.4948 11.7051 26.5587L7.97569 27.7648L9.18176 24.035C9.24568 23.8373 9.21794 23.621 9.10587 23.4459C8.03444 21.7698 7.46786 19.8271 7.46786 17.8276C7.46786 12.0682 12.1534 7.38265 17.9128 7.38265C23.6723 7.38265 28.3578 12.0682 28.3578 17.8276C28.3578 23.587 23.6723 28.2726 17.9128 28.2726Z" fill="white"/>
<path d="M22.9287 18.4672C22.6494 18.1878 22.2781 18.0342 21.8831 18.0342C21.8829 18.0342 21.8826 18.0342 21.8823 18.0342C21.4874 18.0342 21.1163 18.1884 20.8384 18.4669L20.2846 19.0202C19.9456 19.3591 19.3967 19.3591 19.0578 19.0202L16.8459 16.8077C16.5091 16.4712 16.5042 15.9229 16.8461 15.5812L17.3997 15.0277C17.9744 14.4516 17.9744 13.5137 17.3989 12.9371L15.1875 10.7262C14.6105 10.1479 13.6743 10.1474 13.0963 10.7257L12.5436 11.2784C11.752 12.0696 11.4877 13.7408 11.8543 15.6392C12.2509 17.6936 13.2813 19.6368 14.755 21.1108C16.2287 22.5845 18.1719 23.6146 20.2263 24.0115C21.6076 24.278 23.6019 24.3085 24.5874 23.3222L25.1396 22.77C25.7181 22.1931 25.7187 21.2574 25.1401 20.6789L22.9287 18.4672ZM23.6025 22.3375C23.2247 22.7154 22.0346 22.9419 20.4905 22.6441C19.4571 22.4444 17.4658 21.852 15.7396 20.1259C14.0138 18.4 13.4213 16.4087 13.2217 15.3753C12.9236 13.8312 13.1501 12.6409 13.528 12.2633C13.528 12.2633 13.5282 12.2633 13.5282 12.263L14.0812 11.7103C14.1147 11.6769 14.168 11.6761 14.2023 11.7103L16.4137 13.9212C16.4474 13.9549 16.4474 14.0101 16.4142 14.0433L15.8618 14.596C14.978 15.4787 14.9769 16.9092 15.8612 17.7926L18.0729 20.0048C18.9555 20.8875 20.3857 20.8886 21.2689 20.0051L21.8233 19.4513C21.8565 19.4181 21.9101 19.4184 21.9438 19.4519C24.2738 21.7944 24.1807 21.657 24.1807 21.7244C24.1807 21.7867 24.1726 21.756 23.6025 22.3375Z" fill="white"/>
</svg>
