<svg width="36" height="36" viewBox="0 0 36 36" fill="none" xmlns="http://www.w3.org/2000/svg">
<path d="M28.8048 11.4602C28.7271 11.4638 28.652 11.4657 28.5761 11.4668L28.9985 10.3162C29.2003 9.76674 28.6721 9.22654 28.118 9.41776C27.1424 9.75395 26.7137 9.96612 26.0097 10.1489C24.1691 8.49457 21.452 8.42276 19.5113 9.61578C17.9184 10.595 17.0515 12.2869 17.3423 14.2793C14.2238 13.8517 11.6732 12.4046 9.56652 9.87418C9.41882 9.69683 9.19305 9.60408 8.96348 9.62666C8.73391 9.64923 8.53045 9.78388 8.42002 9.98652C7.54443 11.5932 7.49003 13.5204 8.39146 15.1568C8.03785 15.1685 7.74517 15.4451 7.71988 15.8036C7.63501 17.004 8.17875 18.7056 9.52762 19.8739C9.29995 20.0539 9.20611 20.3586 9.29832 20.6379C9.76508 22.0545 10.7342 23.1499 11.9923 23.7592C10.7353 24.2923 9.72101 24.6326 8.05335 25.181C7.78978 25.2675 7.60292 25.5025 7.57762 25.7788C7.55232 26.0552 7.69349 26.3204 7.93694 26.4534C8.47442 26.7472 10.373 27.7283 12.2498 28.0226C16.4025 28.674 21.0533 28.1502 24.19 25.3251C26.8524 22.9277 27.7217 19.5026 27.5398 15.9382C27.5126 15.4 27.6597 14.887 27.9546 14.4936C28.084 14.3209 27.4522 15.1633 29.3981 12.5665C29.7416 12.0962 29.3886 11.436 28.8048 11.4602ZM26.8399 13.6589C26.3508 14.3117 26.1052 15.1459 26.1487 16.009C26.3331 19.6106 25.3605 22.397 23.2581 24.2904C20.8245 26.482 16.8905 27.3407 12.4655 26.6465C11.6588 26.52 10.8248 26.2369 10.1345 25.954C11.532 25.4731 12.6121 25.0441 14.3568 24.2183C15.0044 23.9118 14.8184 22.9396 14.1033 22.8942C12.8153 22.8118 11.7431 22.1878 11.084 21.1746C11.4338 21.1542 11.7714 21.0974 12.1073 21.0038C12.7947 20.812 12.7805 19.8266 12.0861 19.6565C10.4176 19.248 9.51674 18.0085 9.21726 16.8946C9.47839 16.9653 9.7814 17.0151 10.274 17.0638C10.9673 17.1318 11.3182 16.2489 10.7707 15.8218C9.40467 14.7561 8.85713 13.1556 9.25833 11.6172C11.6653 14.1172 14.6522 15.5107 18.1532 15.7634C18.6384 15.7968 19.0489 15.3673 18.8413 14.6411C18.1934 12.3508 19.6038 11.1934 20.2402 10.8023C21.5584 9.99196 23.6555 9.87418 25.1116 11.2143C25.4268 11.5073 25.8558 11.6224 26.2578 11.5228C26.6057 11.4363 26.8932 11.3449 27.1734 11.2459L26.9272 11.9158C26.7787 12.3203 27.0297 12.7615 27.453 12.8407C27.2909 13.0569 27.0899 13.3251 26.8399 13.6589Z" fill="white"/>
</svg>
