<svg width="199" height="66" viewBox="0 0 199 66" fill="none" xmlns="http://www.w3.org/2000/svg">
<path d="M16.9412 0H0V4.5614H15.8118L23.7176 9.12281L32.7529 4.5614H48V0H30.4941L23.7176 3.99123L16.9412 0Z" fill="#fff"/>
<g filter="url(#filter0_d)">
<path d="M18.6353 12.5439H0V16.5352H14.6824V47.3246L18.6353 50.1755V12.5439Z" fill="#fff"/>
</g>
<g filter="url(#filter1_d)">
<path d="M29.3647 12.5439H48V16.5352H33.3176V47.3246L29.3647 50.1755V12.5439Z" fill="#fff"/>
</g>
<g filter="url(#filter2_d)">
<path d="M0 52.456V23.9473H4.51765V49.6052L23.7176 59.2981L43.4824 49.6052V23.9473H48V52.456L23.7176 64.9999L0 52.456Z" fill="#fff"/>
</g>
<path d="M71.708 12.048H68.572V20H66.332V12.048H63.21V10.2H71.708V12.048ZM78.554 16.066C79.4407 16.3647 79.884 16.962 79.884 17.858C79.884 18.5393 79.6273 19.0667 79.114 19.44C78.6007 19.8133 77.8353 20 76.818 20H72.8V12.468H76.65C77.5927 12.468 78.33 12.6407 78.862 12.986C79.394 13.322 79.66 13.798 79.66 14.414C79.66 14.7873 79.562 15.1187 79.366 15.408C79.1793 15.688 78.9087 15.9073 78.554 16.066ZM74.802 15.562H76.454C77.2193 15.562 77.602 15.2913 77.602 14.75C77.602 14.218 77.2193 13.952 76.454 13.952H74.802V15.562ZM76.636 18.516C77.4387 18.516 77.84 18.2407 77.84 17.69C77.84 17.4007 77.7467 17.1907 77.56 17.06C77.3733 16.92 77.0793 16.85 76.678 16.85H74.802V18.516H76.636ZM88.831 16.262C88.831 16.29 88.817 16.486 88.789 16.85H83.091C83.1937 17.3167 83.4363 17.6853 83.819 17.956C84.2017 18.2267 84.6777 18.362 85.247 18.362C85.639 18.362 85.9843 18.306 86.283 18.194C86.591 18.0727 86.8757 17.886 87.137 17.634L88.299 18.894C87.5897 19.706 86.5537 20.112 85.191 20.112C84.3417 20.112 83.5903 19.9487 82.937 19.622C82.2837 19.286 81.7797 18.824 81.425 18.236C81.0703 17.648 80.893 16.9807 80.893 16.234C80.893 15.4967 81.0657 14.834 81.411 14.246C81.7657 13.6487 82.2463 13.1867 82.853 12.86C83.469 12.524 84.155 12.356 84.911 12.356C85.6483 12.356 86.3157 12.5147 86.913 12.832C87.5103 13.1493 87.977 13.6067 88.313 14.204C88.6583 14.792 88.831 15.478 88.831 16.262ZM84.925 14.008C84.4303 14.008 84.015 14.148 83.679 14.428C83.343 14.708 83.1377 15.0907 83.063 15.576H86.773C86.6983 15.1 86.493 14.722 86.157 14.442C85.821 14.1527 85.4103 14.008 84.925 14.008ZM94.9431 12.356C95.6431 12.356 96.2777 12.5193 96.8471 12.846C97.4257 13.1633 97.8784 13.616 98.2051 14.204C98.5317 14.7827 98.6951 15.4593 98.6951 16.234C98.6951 17.0087 98.5317 17.69 98.2051 18.278C97.8784 18.8567 97.4257 19.3093 96.8471 19.636C96.2777 19.9533 95.6431 20.112 94.9431 20.112C93.9817 20.112 93.2257 19.8087 92.6751 19.202V22.716H90.4911V12.468H92.5771V13.336C93.1184 12.6827 93.9071 12.356 94.9431 12.356ZM94.5651 18.32C95.1251 18.32 95.5824 18.1333 95.9371 17.76C96.3011 17.3773 96.4831 16.8687 96.4831 16.234C96.4831 15.5993 96.3011 15.0953 95.9371 14.722C95.5824 14.3393 95.1251 14.148 94.5651 14.148C94.0051 14.148 93.5431 14.3393 93.1791 14.722C92.8244 15.0953 92.6471 15.5993 92.6471 16.234C92.6471 16.8687 92.8244 17.3773 93.1791 17.76C93.5431 18.1333 94.0051 18.32 94.5651 18.32ZM103.81 20.112C103.007 20.112 102.284 19.9487 101.64 19.622C101.005 19.286 100.506 18.824 100.142 18.236C99.7871 17.648 99.6098 16.9807 99.6098 16.234C99.6098 15.4873 99.7871 14.82 100.142 14.232C100.506 13.644 101.005 13.1867 101.64 12.86C102.284 12.524 103.007 12.356 103.81 12.356C104.603 12.356 105.294 12.524 105.882 12.86C106.479 13.1867 106.913 13.658 107.184 14.274L105.49 15.184C105.098 14.4933 104.533 14.148 103.796 14.148C103.226 14.148 102.755 14.3347 102.382 14.708C102.008 15.0813 101.822 15.59 101.822 16.234C101.822 16.878 102.008 17.3867 102.382 17.76C102.755 18.1333 103.226 18.32 103.796 18.32C104.542 18.32 105.107 17.9747 105.49 17.284L107.184 18.208C106.913 18.8053 106.479 19.272 105.882 19.608C105.294 19.944 104.603 20.112 103.81 20.112ZM111.829 17.144H110.695V20H108.511V12.468H110.695V15.394H111.871L113.915 12.468H116.239L113.607 16.08L116.421 20H113.845L111.829 17.144ZM120.789 20.112C119.996 20.112 119.282 19.9487 118.647 19.622C118.022 19.286 117.532 18.824 117.177 18.236C116.822 17.648 116.645 16.9807 116.645 16.234C116.645 15.4873 116.822 14.82 117.177 14.232C117.532 13.644 118.022 13.1867 118.647 12.86C119.282 12.524 119.996 12.356 120.789 12.356C121.582 12.356 122.292 12.524 122.917 12.86C123.542 13.1867 124.032 13.644 124.387 14.232C124.742 14.82 124.919 15.4873 124.919 16.234C124.919 16.9807 124.742 17.648 124.387 18.236C124.032 18.824 123.542 19.286 122.917 19.622C122.292 19.9487 121.582 20.112 120.789 20.112ZM120.789 18.32C121.349 18.32 121.806 18.1333 122.161 17.76C122.525 17.3773 122.707 16.8687 122.707 16.234C122.707 15.5993 122.525 15.0953 122.161 14.722C121.806 14.3393 121.349 14.148 120.789 14.148C120.229 14.148 119.767 14.3393 119.403 14.722C119.039 15.0953 118.857 15.5993 118.857 16.234C118.857 16.8687 119.039 17.3773 119.403 17.76C119.767 18.1333 120.229 18.32 120.789 18.32ZM126.421 12.468H128.591V16.948L132.259 12.468H134.261V20H132.091V15.52L128.437 20H126.421V12.468ZM130.201 11.656C128.558 11.656 127.732 10.9327 127.723 9.486H129.151C129.16 9.81267 129.249 10.0693 129.417 10.256C129.594 10.4333 129.851 10.522 130.187 10.522C130.523 10.522 130.78 10.4333 130.957 10.256C131.144 10.0693 131.237 9.81267 131.237 9.486H132.693C132.684 10.9327 131.853 11.656 130.201 11.656ZM70.084 32.26H66.22V38H64.05V30.468H70.084V32.26ZM74.455 38.112C73.6616 38.112 72.9476 37.9487 72.313 37.622C71.6876 37.286 71.1976 36.824 70.843 36.236C70.4883 35.648 70.311 34.9807 70.311 34.234C70.311 33.4873 70.4883 32.82 70.843 32.232C71.1976 31.644 71.6876 31.1867 72.313 30.86C72.9476 30.524 73.6616 30.356 74.455 30.356C75.2483 30.356 75.9576 30.524 76.583 30.86C77.2083 31.1867 77.6983 31.644 78.053 32.232C78.4076 32.82 78.585 33.4873 78.585 34.234C78.585 34.9807 78.4076 35.648 78.053 36.236C77.6983 36.824 77.2083 37.286 76.583 37.622C75.9576 37.9487 75.2483 38.112 74.455 38.112ZM74.455 36.32C75.015 36.32 75.4723 36.1333 75.827 35.76C76.191 35.3773 76.373 34.8687 76.373 34.234C76.373 33.5993 76.191 33.0953 75.827 32.722C75.4723 32.3393 75.015 32.148 74.455 32.148C73.895 32.148 73.433 32.3393 73.069 32.722C72.705 33.0953 72.523 33.5993 72.523 34.234C72.523 34.8687 72.705 35.3773 73.069 35.76C73.433 36.1333 73.895 36.32 74.455 36.32ZM83.6711 38.112C82.8684 38.112 82.1451 37.9487 81.5011 37.622C80.8664 37.286 80.3671 36.824 80.0031 36.236C79.6484 35.648 79.4711 34.9807 79.4711 34.234C79.4711 33.4873 79.6484 32.82 80.0031 32.232C80.3671 31.644 80.8664 31.1867 81.5011 30.86C82.1451 30.524 82.8684 30.356 83.6711 30.356C84.4644 30.356 85.1551 30.524 85.7431 30.86C86.3404 31.1867 86.7744 31.658 87.0451 32.274L85.3511 33.184C84.9591 32.4933 84.3944 32.148 83.6571 32.148C83.0878 32.148 82.6164 32.3347 82.2431 32.708C81.8698 33.0813 81.6831 33.59 81.6831 34.234C81.6831 34.878 81.8698 35.3867 82.2431 35.76C82.6164 36.1333 83.0878 36.32 83.6571 36.32C84.4038 36.32 84.9684 35.9747 85.3511 35.284L87.0451 36.208C86.7744 36.8053 86.3404 37.272 85.7431 37.608C85.1551 37.944 84.4644 38.112 83.6711 38.112ZM95.8089 30.468L92.4069 38.462C92.0616 39.33 91.6322 39.9413 91.1189 40.296C90.6149 40.6507 90.0036 40.828 89.2849 40.828C88.8929 40.828 88.5056 40.7673 88.1229 40.646C87.7402 40.5247 87.4276 40.3567 87.1849 40.142L87.9829 38.588C88.1509 38.7373 88.3422 38.854 88.5569 38.938C88.7809 39.022 89.0002 39.064 89.2149 39.064C89.5136 39.064 89.7562 38.9893 89.9429 38.84C90.1296 38.7 90.2976 38.462 90.4469 38.126L90.4749 38.056L87.2129 30.468H89.4669L91.5809 35.578L93.7089 30.468H95.8089ZM104.771 36.208V39.624H102.741V38H97.4493V39.624H95.4193V36.208H95.7273C96.194 36.1987 96.516 35.9233 96.6933 35.382C96.8706 34.8407 96.9826 34.0707 97.0293 33.072L97.1273 30.468H103.693V36.208H104.771ZM99.0033 33.226C98.9753 33.9913 98.9146 34.6167 98.8213 35.102C98.7373 35.5873 98.574 35.956 98.3313 36.208H101.509V32.26H99.0453L99.0033 33.226ZM109.072 30.356C110.238 30.356 111.134 30.636 111.76 31.196C112.385 31.7467 112.698 32.582 112.698 33.702V38H110.654V37.062C110.243 37.762 109.478 38.112 108.358 38.112C107.779 38.112 107.275 38.014 106.846 37.818C106.426 37.622 106.104 37.3513 105.88 37.006C105.656 36.6607 105.544 36.2687 105.544 35.83C105.544 35.13 105.805 34.5793 106.328 34.178C106.86 33.7767 107.676 33.576 108.778 33.576H110.514C110.514 33.1 110.369 32.736 110.08 32.484C109.79 32.2227 109.356 32.092 108.778 32.092C108.376 32.092 107.98 32.1573 107.588 32.288C107.205 32.4093 106.878 32.5773 106.608 32.792L105.824 31.266C106.234 30.9767 106.724 30.7527 107.294 30.594C107.872 30.4353 108.465 30.356 109.072 30.356ZM108.904 36.642C109.277 36.642 109.608 36.558 109.898 36.39C110.187 36.2127 110.392 35.956 110.514 35.62V34.85H109.016C108.12 34.85 107.672 35.144 107.672 35.732C107.672 36.012 107.779 36.236 107.994 36.404C108.218 36.5627 108.521 36.642 108.904 36.642ZM119.033 30.356C119.733 30.356 120.368 30.5193 120.937 30.846C121.516 31.1633 121.968 31.616 122.295 32.204C122.622 32.7827 122.785 33.4593 122.785 34.234C122.785 35.0087 122.622 35.69 122.295 36.278C121.968 36.8567 121.516 37.3093 120.937 37.636C120.368 37.9533 119.733 38.112 119.033 38.112C118.072 38.112 117.316 37.8087 116.765 37.202V40.716H114.581V30.468H116.667V31.336C117.208 30.6827 117.997 30.356 119.033 30.356ZM118.655 36.32C119.215 36.32 119.672 36.1333 120.027 35.76C120.391 35.3773 120.573 34.8687 120.573 34.234C120.573 33.5993 120.391 33.0953 120.027 32.722C119.672 32.3393 119.215 32.148 118.655 32.148C118.095 32.148 117.633 32.3393 117.269 32.722C116.914 33.0953 116.737 33.5993 116.737 34.234C116.737 34.8687 116.914 35.3773 117.269 35.76C117.633 36.1333 118.095 36.32 118.655 36.32ZM127.9 38.112C127.097 38.112 126.374 37.9487 125.73 37.622C125.095 37.286 124.596 36.824 124.232 36.236C123.877 35.648 123.7 34.9807 123.7 34.234C123.7 33.4873 123.877 32.82 124.232 32.232C124.596 31.644 125.095 31.1867 125.73 30.86C126.374 30.524 127.097 30.356 127.9 30.356C128.693 30.356 129.384 30.524 129.972 30.86C130.569 31.1867 131.003 31.658 131.274 32.274L129.58 33.184C129.188 32.4933 128.623 32.148 127.886 32.148C127.316 32.148 126.845 32.3347 126.472 32.708C126.098 33.0813 125.912 33.59 125.912 34.234C125.912 34.878 126.098 35.3867 126.472 35.76C126.845 36.1333 127.316 36.32 127.886 36.32C128.632 36.32 129.197 35.9747 129.58 35.284L131.274 36.208C131.003 36.8053 130.569 37.272 129.972 37.608C129.384 37.944 128.693 38.112 127.9 38.112ZM138.901 32.26H136.353V38H134.183V32.26H131.635V30.468H138.901V32.26ZM145.82 34.066C146.706 34.3647 147.15 34.962 147.15 35.858C147.15 36.5393 146.893 37.0667 146.38 37.44C145.866 37.8133 145.101 38 144.084 38H140.066V30.468H143.916C144.858 30.468 145.596 30.6407 146.128 30.986C146.66 31.322 146.926 31.798 146.926 32.414C146.926 32.7873 146.828 33.1187 146.632 33.408C146.445 33.688 146.174 33.9073 145.82 34.066ZM142.068 33.562H143.72C144.485 33.562 144.868 33.2913 144.868 32.75C144.868 32.218 144.485 31.952 143.72 31.952H142.068V33.562ZM143.902 36.516C144.704 36.516 145.106 36.2407 145.106 35.69C145.106 35.4007 145.012 35.1907 144.826 35.06C144.639 34.92 144.345 34.85 143.944 34.85H142.068V36.516H143.902ZM156.097 34.262C156.097 34.29 156.083 34.486 156.055 34.85H150.357C150.459 35.3167 150.702 35.6853 151.085 35.956C151.467 36.2267 151.943 36.362 152.513 36.362C152.905 36.362 153.25 36.306 153.549 36.194C153.857 36.0727 154.141 35.886 154.403 35.634L155.565 36.894C154.855 37.706 153.819 38.112 152.457 38.112C151.607 38.112 150.856 37.9487 150.203 37.622C149.549 37.286 149.045 36.824 148.691 36.236C148.336 35.648 148.159 34.9807 148.159 34.234C148.159 33.4967 148.331 32.834 148.677 32.246C149.031 31.6487 149.512 31.1867 150.119 30.86C150.735 30.524 151.421 30.356 152.177 30.356C152.914 30.356 153.581 30.5147 154.179 30.832C154.776 31.1493 155.243 31.6067 155.579 32.204C155.924 32.792 156.097 33.478 156.097 34.262ZM152.191 32.008C151.696 32.008 151.281 32.148 150.945 32.428C150.609 32.708 150.403 33.0907 150.329 33.576H154.039C153.964 33.1 153.759 32.722 153.423 32.442C153.087 32.1527 152.676 32.008 152.191 32.008ZM157.771 30.468H159.941V33.408H163.217V30.468H165.401V38H163.217V35.186H159.941V38H157.771V30.468ZM167.491 30.468H169.661V33.408H172.937V30.468H175.121V38H172.937V35.186H169.661V38H167.491V30.468ZM181.174 32.876C182.154 32.8853 182.896 33.1047 183.4 33.534C183.904 33.9633 184.156 34.5793 184.156 35.382C184.156 36.222 183.871 36.8707 183.302 37.328C182.733 37.7853 181.925 38.014 180.88 38.014L177.212 38V30.468H179.382V32.876H181.174ZM184.968 30.468H187.138V38H184.968V30.468ZM180.684 36.46C181.104 36.4693 181.426 36.3807 181.65 36.194C181.874 36.0073 181.986 35.7273 181.986 35.354C181.986 34.99 181.874 34.724 181.65 34.556C181.435 34.388 181.113 34.2993 180.684 34.29L179.382 34.276V36.46H180.684ZM189.243 30.468H191.413V34.948L195.081 30.468H197.083V38H194.913V33.52L191.259 38H189.243V30.468ZM193.023 29.656C191.381 29.656 190.555 28.9327 190.545 27.486H191.973C191.983 27.8127 192.071 28.0693 192.239 28.256C192.417 28.4333 192.673 28.522 193.009 28.522C193.345 28.522 193.602 28.4333 193.779 28.256C193.966 28.0693 194.059 27.8127 194.059 27.486H195.515C195.506 28.9327 194.675 29.656 193.023 29.656ZM71.596 48.468L68.194 56.462C67.8487 57.33 67.4193 57.9413 66.906 58.296C66.402 58.6507 65.7907 58.828 65.072 58.828C64.68 58.828 64.2927 58.7673 63.91 58.646C63.5273 58.5247 63.2147 58.3567 62.972 58.142L63.77 56.588C63.938 56.7373 64.1293 56.854 64.344 56.938C64.568 57.022 64.7873 57.064 65.002 57.064C65.3007 57.064 65.5433 56.9893 65.73 56.84C65.9167 56.7 66.0847 56.462 66.234 56.126L66.262 56.056L63 48.468H65.254L67.368 53.578L69.496 48.468H71.596ZM72.6496 48.468H74.8196V51.408H78.0956V48.468H80.2796V56H78.0956V53.186H74.8196V56H72.6496V48.468ZM82.3703 48.468H84.5403V52.948L88.2083 48.468H90.2103V56H88.0403V51.52L84.3863 56H82.3703V48.468ZM98.0638 52.066C98.9504 52.3647 99.3938 52.962 99.3938 53.858C99.3938 54.5393 99.1371 55.0667 98.6238 55.44C98.1104 55.8133 97.3451 56 96.3278 56H92.3098V48.468H96.1598C97.1024 48.468 97.8398 48.6407 98.3718 48.986C98.9038 49.322 99.1698 49.798 99.1698 50.414C99.1698 50.7873 99.0718 51.1187 98.8758 51.408C98.6891 51.688 98.4184 51.9073 98.0638 52.066ZM94.3118 51.562H95.9638C96.7291 51.562 97.1118 51.2913 97.1118 50.75C97.1118 50.218 96.7291 49.952 95.9638 49.952H94.3118V51.562ZM96.1458 54.516C96.9484 54.516 97.3498 54.2407 97.3498 53.69C97.3498 53.4007 97.2564 53.1907 97.0698 53.06C96.8831 52.92 96.5891 52.85 96.1878 52.85H94.3118V54.516H96.1458ZM108.341 52.262C108.341 52.29 108.327 52.486 108.299 52.85H102.601C102.703 53.3167 102.946 53.6853 103.329 53.956C103.711 54.2267 104.187 54.362 104.757 54.362C105.149 54.362 105.494 54.306 105.793 54.194C106.101 54.0727 106.385 53.886 106.647 53.634L107.809 54.894C107.099 55.706 106.063 56.112 104.701 56.112C103.851 56.112 103.1 55.9487 102.447 55.622C101.793 55.286 101.289 54.824 100.935 54.236C100.58 53.648 100.403 52.9807 100.403 52.234C100.403 51.4967 100.575 50.834 100.921 50.246C101.275 49.6487 101.756 49.1867 102.363 48.86C102.979 48.524 103.665 48.356 104.421 48.356C105.158 48.356 105.825 48.5147 106.423 48.832C107.02 49.1493 107.487 49.6067 107.823 50.204C108.168 50.792 108.341 51.478 108.341 52.262ZM104.435 50.008C103.94 50.008 103.525 50.148 103.189 50.428C102.853 50.708 102.647 51.0907 102.573 51.576H106.283C106.208 51.1 106.003 50.722 105.667 50.442C105.331 50.1527 104.92 50.008 104.435 50.008ZM114.453 48.356C115.153 48.356 115.788 48.5193 116.357 48.846C116.936 49.1633 117.388 49.616 117.715 50.204C118.042 50.7827 118.205 51.4593 118.205 52.234C118.205 53.0087 118.042 53.69 117.715 54.278C117.388 54.8567 116.936 55.3093 116.357 55.636C115.788 55.9533 115.153 56.112 114.453 56.112C113.492 56.112 112.736 55.8087 112.185 55.202V58.716H110.001V48.468H112.087V49.336C112.628 48.6827 113.417 48.356 114.453 48.356ZM114.075 54.32C114.635 54.32 115.092 54.1333 115.447 53.76C115.811 53.3773 115.993 52.8687 115.993 52.234C115.993 51.5993 115.811 51.0953 115.447 50.722C115.092 50.3393 114.635 50.148 114.075 50.148C113.515 50.148 113.053 50.3393 112.689 50.722C112.334 51.0953 112.157 51.5993 112.157 52.234C112.157 52.8687 112.334 53.3773 112.689 53.76C113.053 54.1333 113.515 54.32 114.075 54.32ZM123.32 56.112C122.517 56.112 121.794 55.9487 121.15 55.622C120.515 55.286 120.016 54.824 119.652 54.236C119.297 53.648 119.12 52.9807 119.12 52.234C119.12 51.4873 119.297 50.82 119.652 50.232C120.016 49.644 120.515 49.1867 121.15 48.86C121.794 48.524 122.517 48.356 123.32 48.356C124.113 48.356 124.804 48.524 125.392 48.86C125.989 49.1867 126.423 49.658 126.694 50.274L125 51.184C124.608 50.4933 124.043 50.148 123.306 50.148C122.736 50.148 122.265 50.3347 121.892 50.708C121.518 51.0813 121.332 51.59 121.332 52.234C121.332 52.878 121.518 53.3867 121.892 53.76C122.265 54.1333 122.736 54.32 123.306 54.32C124.052 54.32 124.617 53.9747 125 53.284L126.694 54.208C126.423 54.8053 125.989 55.272 125.392 55.608C124.804 55.944 124.113 56.112 123.32 56.112ZM128.021 48.468H130.191V52.948L133.859 48.468H135.861V56H133.691V51.52L130.037 56H128.021V48.468ZM144.288 50.26H141.74V56H139.57V50.26H137.022V48.468H144.288V50.26ZM152.46 52.262C152.46 52.29 152.446 52.486 152.418 52.85H146.72C146.823 53.3167 147.065 53.6853 147.448 53.956C147.831 54.2267 148.307 54.362 148.876 54.362C149.268 54.362 149.613 54.306 149.912 54.194C150.22 54.0727 150.505 53.886 150.766 53.634L151.928 54.894C151.219 55.706 150.183 56.112 148.82 56.112C147.971 56.112 147.219 55.9487 146.566 55.622C145.913 55.286 145.409 54.824 145.054 54.236C144.699 53.648 144.522 52.9807 144.522 52.234C144.522 51.4967 144.695 50.834 145.04 50.246C145.395 49.6487 145.875 49.1867 146.482 48.86C147.098 48.524 147.784 48.356 148.54 48.356C149.277 48.356 149.945 48.5147 150.542 48.832C151.139 49.1493 151.606 49.6067 151.942 50.204C152.287 50.792 152.46 51.478 152.46 52.262ZM148.554 50.008C148.059 50.008 147.644 50.148 147.308 50.428C146.972 50.708 146.767 51.0907 146.692 51.576H150.402C150.327 51.1 150.122 50.722 149.786 50.442C149.45 50.1527 149.039 50.008 148.554 50.008ZM160.202 50.26H157.654V56H155.484V50.26H152.936V48.468H160.202V50.26Z" fill="#fff"/>
<defs>
<filter id="filter0_d" x="0" y="12.5439" width="18.6353" height="38.6316" filterUnits="userSpaceOnUse" color-interpolation-filters="sRGB">
<feFlood flood-opacity="0" result="BackgroundImageFix"/>
<feColorMatrix in="SourceAlpha" type="matrix" values="0 0 0 0 0 0 0 0 0 0 0 0 0 0 0 0 0 0 127 0"/>
<feOffset dy="1"/>
<feColorMatrix type="matrix" values="0 0 0 0 0.662745 0 0 0 0 0.713726 0 0 0 0 0.882353 0 0 0 1 0"/>
<feBlend mode="normal" in2="BackgroundImageFix" result="effect1_dropShadow"/>
<feBlend mode="normal" in="SourceGraphic" in2="effect1_dropShadow" result="shape"/>
</filter>
<filter id="filter1_d" x="29.3647" y="12.5439" width="18.6353" height="38.6316" filterUnits="userSpaceOnUse" color-interpolation-filters="sRGB">
<feFlood flood-opacity="0" result="BackgroundImageFix"/>
<feColorMatrix in="SourceAlpha" type="matrix" values="0 0 0 0 0 0 0 0 0 0 0 0 0 0 0 0 0 0 127 0"/>
<feOffset dy="1"/>
<feColorMatrix type="matrix" values="0 0 0 0 0.662745 0 0 0 0 0.713726 0 0 0 0 0.882353 0 0 0 1 0"/>
<feBlend mode="normal" in2="BackgroundImageFix" result="effect1_dropShadow"/>
<feBlend mode="normal" in="SourceGraphic" in2="effect1_dropShadow" result="shape"/>
</filter>
<filter id="filter2_d" x="0" y="23.9473" width="48" height="42.0526" filterUnits="userSpaceOnUse" color-interpolation-filters="sRGB">
<feFlood flood-opacity="0" result="BackgroundImageFix"/>
<feColorMatrix in="SourceAlpha" type="matrix" values="0 0 0 0 0 0 0 0 0 0 0 0 0 0 0 0 0 0 127 0"/>
<feOffset dy="1"/>
<feColorMatrix type="matrix" values="0 0 0 0 0.662745 0 0 0 0 0.713726 0 0 0 0 0.882353 0 0 0 1 0"/>
<feBlend mode="normal" in2="BackgroundImageFix" result="effect1_dropShadow"/>
<feBlend mode="normal" in="SourceGraphic" in2="effect1_dropShadow" result="shape"/>
</filter>
</defs>
</svg>
