<svg width="143" height="145" viewBox="0 0 143 145" fill="none" xmlns="http://www.w3.org/2000/svg">
<g clip-path="url(#clip0)">
<path d="M2.81819 114.816L113.193 144.39C114.243 144.672 115.324 144.048 115.605 142.997L117.645 135.385C117.927 134.335 117.302 133.254 116.252 132.972L5.87764 103.398C4.82718 103.116 3.7462 103.74 3.46473 104.791L1.42509 112.403C1.14362 113.453 1.76773 114.534 2.81819 114.816ZM112.309 140.075L5.74101 111.52L6.76083 107.714L113.329 136.268L112.309 140.075Z" fill="white"/>
<path d="M8.66384 108.223L111.426 135.759C112.477 136.04 113.558 135.416 113.839 134.365L115.879 126.753C116.16 125.703 115.536 124.622 114.486 124.341L11.7233 96.8055C10.6728 96.524 9.59185 97.1481 9.31038 98.1986L7.27074 105.811C6.98927 106.861 7.61338 107.942 8.66384 108.223ZM110.543 131.443L11.5867 104.927L12.6065 101.121L111.563 127.637L110.543 131.443Z" fill="white"/>
<path d="M86.8238 121.008L109.66 127.127C110.71 127.408 111.791 126.784 112.073 125.734L114.112 118.122C114.394 117.071 113.77 115.99 112.719 115.709L89.8832 109.59C88.8328 109.308 87.7518 109.932 87.4703 110.983L85.4307 118.595C85.1492 119.645 85.7733 120.726 86.8238 121.008ZM108.777 122.811L89.7466 117.712L90.7664 113.906L109.796 119.005L108.777 122.811Z" fill="white"/>
<path d="M105.927 64.9375L121.151 69.0168C122.202 69.2982 123.283 68.6741 123.564 67.6237L125.604 60.0116C125.885 58.9612 125.261 57.8802 124.211 57.5987L108.986 53.5195C107.936 53.238 106.855 53.8621 106.574 54.9126L104.534 62.5246C104.252 63.575 104.877 64.656 105.927 64.9375ZM120.268 64.7008L108.85 61.6414L109.87 57.8354L121.288 60.8948L120.268 64.7008Z" fill="white"/>
<path d="M92.6693 114.416L107.893 118.495C108.422 118.637 108.988 118.552 109.451 118.26C109.916 117.966 110.238 117.493 110.339 116.956L119.791 66.4576C119.98 65.4458 119.358 64.4589 118.364 64.1928L110.752 62.1531C109.759 61.887 108.726 62.4302 108.384 63.4012L91.3206 111.86C91.1389 112.378 91.18 112.948 91.4356 113.432C91.6932 113.917 92.1383 114.273 92.6693 114.416ZM106.858 114.138L95.7443 111.16L111.495 66.4294L115.583 67.5247L106.858 114.138Z" fill="white"/>
<path d="M26.2739 27.2774L136.648 56.8521C137.556 57.0953 138.51 56.6636 138.924 55.8199C139.339 54.9767 139.103 53.9567 138.356 53.3855L89.288 15.7621C88.8738 15.443 88.3505 15.3028 87.8322 15.372L26.5261 23.4207C25.5941 23.5422 24.8792 24.3072 24.8156 25.2447C24.7559 26.1833 25.3662 27.0342 26.2739 27.2774ZM128.092 50.4802L36.8696 26.0372L87.5382 19.3847L128.092 50.4802Z" fill="white"/>
<path d="M31.8464 36.929L126.997 62.4245C128.047 62.706 129.128 62.0818 129.41 61.0314L131.449 53.4194C131.731 52.3689 131.107 51.2879 130.056 51.0064L34.9059 25.511C33.8554 25.2295 32.7744 25.8536 32.493 26.9041L30.4533 34.5161C30.1719 35.5666 30.796 36.6476 31.8464 36.929ZM126.114 58.1086L34.7693 33.6329L35.7891 29.8269L127.133 54.3026L126.114 58.1086Z" fill="white"/>
<path d="M14.5093 101.631L37.3454 107.75C38.3959 108.032 39.4768 107.408 39.7583 106.357L41.798 98.745C42.0794 97.6946 41.4553 96.6136 40.4049 96.3321L17.5688 90.2132C16.5183 89.9318 15.4373 90.5559 15.1559 91.6063L13.1162 99.2184C12.8348 100.269 13.4589 101.35 14.5093 101.631ZM36.4622 103.434L17.4321 98.3352L18.452 94.5291L37.482 99.6282L36.4622 103.434Z" fill="white"/>
<path d="M33.6126 45.5609L48.8366 49.6402C49.8871 49.9217 50.9681 49.2975 51.2495 48.2471L53.2892 40.6351C53.5706 39.5846 52.9465 38.5036 51.8961 38.2221L36.672 34.1429C35.6216 33.8614 34.5406 34.4855 34.2591 35.536L32.2195 43.148C31.938 44.1985 32.5621 45.2794 33.6126 45.5609ZM47.9534 45.3243L36.5354 42.2648L37.5552 38.4588L48.9732 41.5182L47.9534 45.3243Z" fill="white"/>
<path d="M20.3551 95.0391L35.5791 99.1184C36.1082 99.2602 36.6735 99.1751 37.1372 98.8832C37.6014 98.5895 37.9238 98.117 38.0251 97.5792L47.4767 47.0812C47.6663 46.0693 47.0434 45.0825 46.0501 44.8163L38.438 42.7767C37.4447 42.5105 36.4119 43.0537 36.0701 44.0248L19.0064 92.4831C18.8247 93.0015 18.8658 93.5713 19.1214 94.0559C19.379 94.541 19.8241 94.8969 20.3551 95.0391ZM34.5437 94.7617L23.4301 91.7838L39.1809 47.0529L43.2686 48.1482L34.5437 94.7617Z" fill="white"/>
<path d="M50.6666 111.32L73.5026 117.439C74.5531 117.72 75.6341 117.096 75.9155 116.045L77.9552 108.433C78.2366 107.383 77.6125 106.302 76.5621 106.02L53.726 99.9016C52.6756 99.6201 51.5946 100.244 51.3131 101.295L49.2735 108.907C48.992 109.957 49.6161 111.038 50.6666 111.32ZM72.6194 113.123L53.5894 108.024L54.6092 104.217L73.6393 109.317L72.6194 113.123Z" fill="white"/>
<path d="M69.7698 55.2491L84.9938 59.3284C86.0443 59.6099 87.1253 58.9858 87.4068 57.9353L89.4464 50.3233C89.7279 49.2728 89.1038 48.1918 88.0533 47.9104L72.8292 43.8311C71.7788 43.5496 70.6978 44.1737 70.4163 45.2242L68.3767 52.8362C68.0952 53.8867 68.7193 54.9677 69.7698 55.2491ZM84.1106 55.0125L72.6926 51.953L73.7124 48.147L85.1305 51.2065L84.1106 55.0125Z" fill="white"/>
<path d="M56.512 104.727L71.7361 108.807C72.2651 108.948 72.8305 108.863 73.2942 108.571C73.7584 108.278 74.0808 107.805 74.1821 107.267L83.6337 56.7694C83.8232 55.7575 83.2004 54.7707 82.207 54.5045L74.595 52.4649C73.6016 52.1987 72.5689 52.7419 72.2271 53.713L55.1634 102.171C54.9817 102.69 55.0228 103.26 55.2784 103.744C55.536 104.229 55.9811 104.585 56.512 104.727ZM70.7007 104.45L59.5871 101.472L75.3379 56.7412L79.4256 57.8365L70.7007 104.45Z" fill="white"/>
</g>
<defs>
<clipPath id="clip0">
<rect width="118.208" height="118.208" fill="white" transform="matrix(-0.965926 -0.258819 -0.258819 0.965926 145.747 30.7352)"/>
</clipPath>
</defs>
</svg>
