<svg width="133" height="153" viewBox="0 0 133 153" fill="none" xmlns="http://www.w3.org/2000/svg">
<path d="M77.7266 23.2386C78.7367 23.5449 79.8094 22.9787 80.123 21.9741C80.4366 20.9695 79.8724 19.9068 78.8622 19.6004L66.6177 15.8867C65.6076 15.5803 64.5348 16.1465 64.2212 17.1511C63.9076 18.1557 64.4719 19.2184 65.482 19.5248L77.7266 23.2386Z" fill="white"/>
<path d="M45.3788 125.43C46.3402 122.354 44.6035 119.09 41.5075 118.152C38.4114 117.214 35.1104 118.954 34.149 122.029C33.1876 125.104 34.9243 128.369 38.0203 129.306C41.1164 130.244 44.4173 128.505 45.3788 125.43ZM39.1539 125.679C38.0714 125.352 37.4641 124.21 37.8003 123.135C38.1364 122.059 39.2907 121.451 40.3733 121.779C41.4558 122.107 42.0631 123.249 41.7269 124.324C41.3907 125.399 40.2365 126.007 39.1539 125.679Z" fill="white"/>
<path d="M54.0344 97.1336L71.4285 102.412C72.4388 102.718 73.5117 102.152 73.8253 101.146C74.139 100.141 73.5746 99.0779 72.5643 98.7713L55.1702 93.4932C54.1599 93.1866 53.087 93.7532 52.7734 94.7584C52.4598 95.7637 53.0241 96.827 54.0344 97.1336Z" fill="white"/>
<path d="M61.0447 74.612C60.0344 74.3054 58.9615 74.872 58.6479 75.8772C58.3343 76.8824 58.8986 77.9458 59.9089 78.2524L77.303 83.5305C78.3133 83.8371 79.3862 83.2705 79.6998 82.2653C80.0135 81.26 79.4491 80.1967 78.4388 79.8901L61.0447 74.612Z" fill="white"/>
<path d="M98.912 86.1347C97.9025 85.8289 96.8304 86.3941 96.517 87.397C96.2036 88.3998 96.7675 89.4607 97.777 89.7666L101.456 90.8812C102.466 91.187 103.538 90.6218 103.851 89.6189C104.164 88.616 103.601 87.5552 102.591 87.2493L98.912 86.1347Z" fill="white"/>
<path d="M120.327 67.4121C121.239 64.4954 119.528 61.28 116.592 60.3907L100.037 55.377L107.254 32.2911C108.987 26.7482 105.857 20.8639 100.277 19.1738L49.3654 3.75482C43.7853 2.06483 37.8359 5.19938 36.1032 10.7423L3.7042 114.383C1.97145 119.926 5.10137 125.811 10.6815 127.501L31.8791 133.921C32.8872 134.226 33.9577 133.662 34.2706 132.661C34.5836 131.66 34.0205 130.601 33.0124 130.295L11.8148 123.875C8.2471 122.795 6.24601 119.032 7.35386 115.489L39.7528 11.8476C40.8607 8.30373 44.6644 6.29965 48.2321 7.38016L99.1433 22.7992C102.711 23.8797 104.712 27.6419 103.605 31.1858L96.3877 54.2717L92.4789 53.0879C93.6323 49.3982 96.9986 38.6298 98.1369 34.9885C98.5755 33.5855 97.7831 32.0962 96.3707 31.6684C93.8668 30.9101 47.9809 17.0131 45.4595 16.2494C44.0468 15.8216 42.541 16.6151 42.1025 18.0179L14.7147 105.629C14.2761 107.032 15.0684 108.521 16.4808 108.949L67.3921 124.368C68.8047 124.796 70.3105 124.002 70.7491 122.599L73.6081 113.454L77.5166 114.637L71.2052 134.827C70.0974 138.371 66.2933 140.375 62.7257 139.294L41.5282 132.875C40.5202 132.569 39.4497 133.134 39.1368 134.135C38.8238 135.136 39.3869 136.195 40.3949 136.5L61.5926 142.92C67.1729 144.61 73.1224 141.475 74.8551 135.932L81.1665 115.743L97.7209 120.756C100.657 121.646 103.908 119.933 104.82 117.016L108.502 105.239C108.925 103.885 108.783 102.466 108.215 101.246C109.382 100.551 110.309 99.4569 110.733 98.1028L111.251 96.4438C111.564 95.4427 111.001 94.3838 109.993 94.0785C108.985 93.7732 107.915 94.3374 107.602 95.3385L107.083 96.9974C106.791 97.9325 105.708 98.5026 104.767 98.2175L52.8918 82.5066C52.5387 82.3997 52.2378 82.1823 52.0153 81.903C51.6443 81.4377 51.4904 80.8003 51.6732 80.2157L55.3548 68.4386C55.6472 67.5033 56.7296 66.9332 57.6712 67.2184L109.546 82.9292C110.488 83.2144 111.057 84.2849 110.765 85.2202L110.246 86.8792C109.933 87.8803 110.497 88.9392 111.505 89.2445C112.513 89.5498 113.583 88.9856 113.896 87.9845L114.415 86.3256C114.838 84.9714 114.695 83.553 114.128 82.3326C115.294 81.6373 116.222 80.5434 116.646 79.1892L120.327 67.4122L120.327 67.4121ZM54.9046 23.0783L94.1494 34.964L92.3419 40.7459L53.0972 28.8602L54.9046 23.0783ZM45.4143 20.2041L51.255 21.973L49.4475 27.7549L43.6068 25.986L45.4143 20.2041ZM51.7584 86.1319L103.633 101.843C104.575 102.128 105.145 103.198 104.852 104.134L101.171 115.911C100.878 116.846 99.7958 117.416 98.8542 117.131C98.0943 116.901 47.7417 101.651 46.9792 101.42C46.0376 101.135 45.468 100.065 45.7603 99.1295L49.442 87.3522C49.7344 86.4169 50.8168 85.8467 51.7584 86.1319ZM57.6173 48.4198L53.9357 60.1971C53.5253 61.51 53.6411 62.9404 54.2215 64.1895C53.047 64.8921 52.1243 65.9916 51.7048 67.3335L48.0232 79.1105C47.6067 80.4429 47.7371 81.872 48.309 83.1029C47.1068 83.8201 46.2008 84.9403 45.7924 86.2466L42.1107 98.0239C41.1989 100.941 42.9094 104.156 45.8459 105.046L69.9584 112.348L67.4372 120.413L18.7021 105.654L42.4734 29.6116L91.2088 44.3716L88.8295 51.9826L64.7167 44.6798C61.7827 43.7909 58.5299 45.5007 57.6173 48.4198ZM112.996 78.0838C112.703 79.0189 111.621 79.589 110.679 79.3038L58.8043 63.5929C57.8627 63.3078 57.2931 62.2373 57.5854 61.3022L61.267 49.5252C61.5594 48.5898 62.6419 48.0197 63.5835 48.3049L115.458 64.0158C116.4 64.301 116.97 65.3714 116.677 66.3065L112.996 78.0838Z" fill="white"/>
<path d="M84.3133 61.009L66.9192 55.7309C65.9089 55.4243 64.8361 55.9909 64.5224 56.9961C64.2088 58.0013 64.7731 59.0647 65.7834 59.3712L83.1775 64.6494C84.1878 64.9559 85.2606 64.3894 85.5743 63.3842C85.8879 62.3789 85.3233 61.3155 84.3133 61.009Z" fill="white"/>
<path d="M108.466 68.3682L104.786 67.2536C103.777 66.9478 102.705 67.513 102.392 68.5159C102.078 69.5187 102.642 70.5796 103.652 70.8854L107.331 72C108.34 72.3059 109.412 71.7407 109.726 70.7378C110.039 69.7349 109.475 68.674 108.466 68.3682Z" fill="white"/>
<path d="M91.9025 108.648L95.5816 109.762C96.5911 110.068 97.6632 109.503 97.9766 108.5C98.29 107.497 97.7261 106.436 96.7166 106.131L93.0375 105.016C92.028 104.71 90.9559 105.275 90.6425 106.278C90.3291 107.281 90.8932 108.342 91.9025 108.648Z" fill="white"/>
<path d="M88.0531 82.8303C87.0436 82.5244 85.9715 83.0897 85.6581 84.0925C85.3447 85.0954 85.9086 86.1563 86.9181 86.4621L90.5972 87.5767C91.6068 87.8826 92.6788 87.3173 92.9922 86.3145C93.3056 85.3116 92.7417 84.2507 91.7322 83.9449L88.0531 82.8303Z" fill="white"/>
<path d="M97.6067 65.0637L93.9276 63.949C92.9181 63.6432 91.846 64.2084 91.5326 65.2113C91.2192 66.2142 91.7831 67.275 92.7926 67.5809L96.4718 68.6955C97.4813 69.0013 98.5534 68.4361 98.8668 67.4332C99.1802 66.4304 98.6163 65.3695 97.6067 65.0637Z" fill="white"/>
<path d="M81.0436 105.343L84.7227 106.458C85.7323 106.764 86.8043 106.198 87.1177 105.196C87.4311 104.193 86.8672 103.132 85.8577 102.826L82.1786 101.711C81.1691 101.406 80.097 101.971 79.7836 102.974C79.4702 103.976 80.0343 105.037 81.0436 105.343Z" fill="white"/>
</svg>
