<svg width="156" height="154" viewBox="0 0 156 154" fill="none" xmlns="http://www.w3.org/2000/svg">
<g clip-path="url(#clip0)">
<path d="M141.342 61.4293L95.9914 47.7168L102.6 26.3375C103.622 23.0214 101.736 19.5134 98.3849 18.4966L43.2837 1.83591C39.9307 0.825608 36.3837 2.69085 35.3556 6.00498L25.1608 38.9835C24.1546 42.2466 25.964 45.7078 29.2379 46.7825L26.5289 55.5455C26.1802 56.6784 26.513 57.909 27.3872 58.7184C28.2614 59.5278 29.5248 59.7753 30.6449 59.3566L48.7567 52.6843L74.727 60.5368L69.8896 76.185L24.537 62.4719C21.185 61.4619 17.6391 63.3266 16.6114 66.6396L6.41542 99.622C5.40931 102.885 7.21918 106.346 10.4931 107.419L7.78232 116.188C7.43005 117.321 7.76175 118.554 8.63699 119.365C9.51222 120.175 10.778 120.421 11.8983 119.999L30.0099 113.32L65.7347 124.122C69.0866 125.132 72.6325 123.268 73.6603 119.955L80.2699 98.5733L106.24 106.426L117.459 121.952C118.144 122.935 119.336 123.443 120.528 123.259C121.72 123.075 122.701 122.233 123.05 121.091L125.759 112.328C129.08 113.247 132.537 111.379 133.548 108.119L145.558 69.2702C146.579 65.954 144.693 62.446 141.342 61.4293ZM42.3139 46.4585C41.2216 46.1283 40.0654 46.7363 39.7315 47.8165C39.3975 48.8968 40.0123 50.0403 41.1046 50.3706L42.2517 50.7174L31.0722 54.8402L33.1934 47.9785C34.2857 48.3088 35.4419 47.7008 35.7759 46.6205C36.1098 45.5402 35.4951 44.3968 34.4028 44.0665L30.5856 42.9123C29.4177 42.558 28.7603 41.3353 29.1164 40.1795L39.3112 7.20101C39.6694 6.04589 40.9057 5.39577 42.0744 5.74794L97.1756 22.4086C98.3436 22.763 99.0009 23.9857 98.6448 25.1415L92.0358 46.5208L86.2409 44.7686C82.8878 43.7583 79.3408 45.6235 78.3127 48.9376L75.9363 56.6248L42.3139 46.4585ZM69.7047 118.759C69.3467 119.913 68.1116 120.562 66.944 120.21L23.5691 107.095C22.4768 106.765 21.3206 107.373 20.9867 108.453C20.6527 109.533 21.2675 110.677 22.3598 111.007L23.503 111.353L12.3323 115.461L14.4486 108.615C15.5409 108.945 16.6971 108.337 17.0311 107.257C17.365 106.177 16.7503 105.033 15.658 104.703L11.8389 103.548C10.672 103.194 10.0152 101.973 10.371 100.818L20.567 67.8357C20.9249 66.6816 22.1601 66.0321 23.3276 66.3839L78.4328 83.0458C79.5997 83.3998 80.2564 84.6214 79.9006 85.7761L69.7047 118.759ZM129.593 106.923C129.233 108.077 127.998 108.726 126.83 108.374L123.013 107.22C121.921 106.889 120.764 107.497 120.43 108.578C120.096 109.658 120.711 110.801 121.803 111.132L119.682 117.993L112.745 108.393L113.892 108.74C114.985 109.07 116.141 108.462 116.475 107.382C116.809 106.301 116.194 105.158 115.102 104.828L81.4793 94.6612L83.8562 86.9721C84.8774 83.6571 82.992 80.1502 79.6421 79.1338L73.8452 77.381L82.2683 50.1337C82.6266 48.9786 83.8629 48.3284 85.0315 48.6806L140.133 65.3413C141.301 65.6956 141.958 66.9183 141.602 68.0741L129.593 106.923Z" fill="white"/>
<path d="M66.4375 17.3923C62.0683 16.0712 57.4435 18.5032 56.1077 22.8243C55.7737 23.9046 56.3885 25.0481 57.4808 25.3784C58.5731 25.7086 59.7293 25.1006 60.0633 24.0204C60.7312 21.8598 63.0436 20.6438 65.2282 21.3043C67.4128 21.9649 68.6423 24.2519 67.9744 26.4124C67.3065 28.573 64.9941 29.789 62.8095 29.1284C61.7172 28.7982 60.561 29.4062 60.227 30.4864L59.0177 34.3985C58.6837 35.4787 59.2985 36.6222 60.3908 36.9525C61.4831 37.2828 62.6393 36.6748 62.9733 35.5945L63.6541 33.392C67.8189 33.5777 71.4726 30.6694 72.1795 26.606C72.8864 22.5426 70.4255 18.5939 66.4375 17.3923Z" fill="white"/>
<path d="M57.9725 44.7765C59.0648 45.1068 60.2211 44.4988 60.555 43.4185C60.889 42.3382 60.2742 41.1948 59.1819 40.8645C58.0896 40.5342 56.9334 41.1422 56.5994 42.2225C56.2655 43.3028 56.8802 44.4463 57.9725 44.7765Z" fill="white"/>
<path d="M47.6934 78.0289C43.3242 76.7078 38.6993 79.1398 37.3635 83.4609C37.0296 84.5412 37.6444 85.6847 38.7367 86.015C39.829 86.3452 40.9852 85.7372 41.3191 84.6569C41.987 82.4964 44.2994 81.2804 46.484 81.9409C48.6686 82.6015 49.8982 84.8884 49.2303 87.049C48.5624 89.2096 46.25 90.4256 44.0654 89.765C42.9731 89.4347 41.8168 90.0427 41.4829 91.123L40.2736 95.0351C39.9396 96.1153 40.5544 97.2588 41.6467 97.5891C42.739 97.9194 43.8952 97.3114 44.2291 96.2311L44.91 94.0286C49.0747 94.2143 52.7285 91.306 53.4354 87.2426C54.1422 83.1792 51.6814 79.2305 47.6934 78.0289Z" fill="white"/>
<path d="M39.2274 105.413C40.3197 105.743 41.4759 105.135 41.8099 104.055C42.1438 102.975 41.5291 101.831 40.4368 101.501C39.3445 101.171 38.1883 101.779 37.8543 102.859C37.5204 103.939 38.1351 105.083 39.2274 105.413Z" fill="white"/>
<path d="M112.228 64.6913C112.169 63.8456 111.589 63.1234 110.769 62.8756C109.95 62.6277 109.06 62.9056 108.533 63.5742L90.7838 86.0124C90.3284 86.5884 90.2182 87.3609 90.4949 88.039C90.7715 88.7171 91.393 89.1977 92.1251 89.2998C92.8572 89.4018 93.5887 89.1099 94.0441 88.5339L99.9947 81.0099L109.449 83.8684L110.128 93.397C110.208 94.5245 111.197 95.3742 112.337 95.2949C113.477 95.2156 114.336 94.2372 114.256 93.1096C113.829 87.1522 112.871 73.6721 112.228 64.6913ZM102.725 77.5577L108.479 70.2844L109.137 79.4965L102.725 77.5577Z" fill="white"/>
</g>
<defs>
<clipPath id="clip0">
<rect width="123.973" height="122.841" fill="white" transform="matrix(0.957201 0.289424 -0.295343 0.955391 37.2119 0)"/>
</clipPath>
</defs>
</svg>
