<svg width="151" height="134" viewBox="0 0 151 134" fill="none" xmlns="http://www.w3.org/2000/svg">
<path d="M142.669 46.4319L139.904 45.5865L140.394 43.9848C141.08 41.7401 139.696 39.3754 137.385 38.8641C134.715 38.2744 129.004 36.542 120.751 31.5554C119.878 31.0272 118.743 31.3029 118.217 32.1692C117.689 33.0358 117.97 34.1658 118.843 34.693C127.115 39.6916 133.064 41.6708 136.597 42.4499C136.803 42.4973 136.922 42.7036 136.861 42.9046L115.203 113.745C108.292 112.417 99.9352 107.78 94.0474 103.858C80.8973 95.0969 69.2618 99.6844 66.967 100.143L88.42 29.9734C90.8727 28.7779 100.492 24.8284 111.382 30.1597C112.297 30.6095 113.404 30.2347 113.851 29.3248C114.299 28.4152 113.92 27.314 113.004 26.8652C101.57 21.2647 91.4892 24.5644 87.6115 26.2851C82.4355 18.0794 73.2053 12.3154 61.7594 12.2508C49.4748 12.1805 42.4286 10.1095 39.3222 8.88361C37.1177 8.01254 34.6496 9.20567 33.9646 11.4461L33.4749 13.0478L30.7091 12.2022C28.3303 11.475 25.8071 12.8063 25.0842 15.1706L3.31968 86.3593C2.59685 88.7235 3.94446 91.2383 6.32327 91.9656L52.0921 105.959C52.7779 106.168 53.285 106.735 53.3837 107.402C54.6083 115.658 64.9834 118.859 70.636 112.677C71.0913 112.179 71.8284 111.993 72.5143 112.202L118.283 126.195C120.662 126.922 123.185 125.591 123.908 123.227L134.086 89.9348C134.383 88.965 133.832 87.9376 132.856 87.6392C131.881 87.3409 130.85 87.8849 130.553 88.8547L120.375 122.146C120.244 122.574 119.787 122.816 119.357 122.684L73.588 108.691C71.5427 108.066 69.3107 108.658 67.9011 110.2C64.3538 114.079 57.8106 112.098 57.0366 106.878C56.7304 104.812 55.2111 103.073 53.1656 102.447L7.39675 88.4544C6.96574 88.3227 6.72176 87.8672 6.85264 87.4391L28.6171 16.2507C28.748 15.8226 29.2049 15.5815 29.6357 15.7132L32.4015 16.5588L11.8484 83.785C11.6049 84.5815 11.9314 85.4432 12.6441 85.8838C12.9529 86.0749 20.4263 90.5678 38.8982 90.6731C47.8354 90.7242 55.2781 94.6438 60.2046 100.955C62.1096 103.395 65.4501 104.539 68.5878 103.518C73.1857 102.021 82.3403 100.473 92.0008 106.908C107.374 117.15 116.082 117.604 116.445 117.619C117.282 117.652 118.034 117.12 118.278 116.324L138.831 49.0975L141.596 49.9429C142.027 50.0747 142.271 50.5301 142.14 50.9582L133.059 80.6627C132.762 81.6324 133.313 82.6599 134.288 82.9582C135.264 83.2565 136.295 82.7125 136.591 81.7428L145.673 52.0383C146.396 49.674 145.048 47.1592 142.669 46.4319ZM37.4975 12.5262C37.5577 12.3294 37.7683 12.2192 37.97 12.2965C41.3177 13.62 48.8604 15.8503 61.7513 15.9239C72.1908 15.9843 80.5341 21.3738 84.887 28.8948L63.4343 99.0632C62.5878 98.2083 55.1254 87.0917 38.9063 87C37.8663 86.994 36.7286 86.9702 35.681 86.9312C35.6683 86.9306 35.6555 86.9303 35.643 86.9298C29.4941 86.6987 21.5001 85.7834 15.8388 83.3677C17.3308 78.4885 37.0975 13.8346 37.4975 12.5262Z" fill="white"/>
</svg>
