<svg width="156" height="134" viewBox="0 0 156 134" fill="none" xmlns="http://www.w3.org/2000/svg">
<path d="M143.196 62.2724L100.148 22.8623C96.4521 19.4151 89.081 17.2403 84.1055 18.1289L25.4032 27.5181C21.2782 28.1864 19.9752 30.4729 19.5914 31.7737C19.2076 33.0744 19.1034 35.5575 22.1623 38.5025L25.7567 41.7626L18.9338 64.8874C16.0337 65.1316 13.3873 67.1788 12.5344 70.0694C11.6815 72.96 12.7929 76.1159 14.9514 77.8525L2.34951 96.6015L20.5604 101.975L20.1545 79.3877C23.0545 79.1436 25.5565 77.0537 26.4093 74.1631C27.3048 71.128 26.1509 68.1166 23.8478 66.3373L29.9458 45.6694L36.4972 51.6873L27.6274 81.7497C27.4995 82.1833 27.5161 82.6595 27.6772 83.1784C28.144 84.2588 36.1697 106.58 63.6305 114.682C91.0913 122.784 109.991 108.25 110.782 107.698C111.199 107.35 111.472 106.959 111.6 106.525L120.427 76.6076L139.955 73.2567C144.08 72.5884 145.383 70.302 145.767 69.0012C146.006 67.6578 146.297 65.0728 143.196 62.2724ZM107.188 104.438C104.023 106.646 87.4992 116.854 64.9524 110.202C42.4057 103.549 34.0698 86.0072 32.6102 82.4343L40.6697 55.118L66.3659 78.2537C68.2353 79.905 70.9554 81.336 73.846 82.1889C76.8811 83.0844 79.9423 83.3591 82.4514 82.8425L115.205 77.2664L107.188 104.438ZM139.125 68.6129L119.266 72.023C118.543 71.8098 117.88 71.9282 117.42 72.4211L81.5794 78.3432C78.0751 79.0375 72.1494 77.2892 69.4388 74.7612L36.3074 44.8755L82.2135 52.7639C83.5569 53.0031 84.7653 52.1028 84.9619 50.9039C85.2011 49.5605 84.3007 48.3521 83.1019 48.1555L29.8579 39.0448L25.3798 35.0526C24.2496 34.0907 24.1737 33.2828 24.1737 33.2828C24.2164 33.1382 24.676 32.6454 26.1474 32.4511L84.8922 22.9173C86.6953 22.6638 88.9912 22.8698 91.1591 23.5095C93.4716 24.1918 95.6562 25.3076 96.8883 26.4567L139.936 65.8668C141.066 66.8287 141.184 67.4921 141.099 67.7812C141.099 67.7812 140.452 68.3759 139.125 68.6129Z" fill="white"/>
</svg>
