<svg width="141" height="106" viewBox="0 0 141 106" fill="none" xmlns="http://www.w3.org/2000/svg">
<path d="M18.6638 25.3278L21.5472 26.2094L25.1085 14.5607C25.9446 11.8262 28.8495 10.2816 31.5841 11.1176L38.9654 13.3743C39.4878 13.534 39.9662 13.7703 40.3935 14.0657L40.6058 13.3714C41.7529 9.61935 45.7388 7.5 49.4908 8.64711L58.7175 11.468C62.4695 12.6151 64.5888 16.601 63.4417 20.353L57.2153 40.7188L88.1246 50.1687L94.351 29.8029C95.4981 26.0509 99.484 23.9316 103.236 25.0787L112.463 27.8996C116.215 29.0467 118.334 33.0326 117.187 36.7846L116.975 37.4789C117.494 37.473 118.023 37.5446 118.545 37.7043L125.927 39.961C128.661 40.7971 130.206 43.702 129.37 46.4366L128.687 48.671C128.394 49.6264 127.383 50.1642 126.428 49.8721C125.472 49.58 124.934 48.5686 125.227 47.6132L125.91 45.3787C126.162 44.552 125.695 43.6738 124.869 43.421L117.487 41.1643C116.661 40.9116 115.782 41.3785 115.53 42.2053L101.707 87.4158C101.455 88.2426 101.922 89.1208 102.748 89.3736L110.13 91.6303C110.956 91.883 111.835 91.416 112.087 90.5893L122.963 55.0157C123.255 54.0603 124.267 53.5226 125.222 53.8147C126.178 54.1068 126.715 55.1182 126.423 56.0736L125.808 58.0852L128.692 58.9667C130.917 59.6472 132.175 62.0118 131.494 64.2375L127.263 78.0775C126.582 80.3032 124.218 81.5605 121.992 80.88L119.109 79.9985L115.547 91.6472C114.711 94.3817 111.806 95.9263 109.072 95.0903L101.691 92.8336C101.168 92.6738 100.69 92.4375 100.262 92.1422L100.05 92.8365C98.9031 96.5885 94.9172 98.7079 91.1651 97.5608L81.9385 94.7399C78.1865 93.5928 76.0671 89.6069 77.2142 85.8549L83.4407 65.4891L80.9227 64.7193C79.9673 64.4272 79.4295 63.4158 79.7216 62.4604C80.0137 61.505 81.0251 60.9672 81.9805 61.2593L84.4985 62.0291L87.0668 53.6287L56.1575 44.1788L53.5892 52.5792L74.4811 58.9665C75.4365 59.2586 75.9743 60.27 75.6822 61.2254C75.3901 62.1808 74.3787 62.7186 73.4233 62.4265L52.5314 56.0392L46.3049 76.4049C45.1578 80.157 41.1719 82.2763 37.4199 81.1292L28.1932 78.3083C24.4412 77.1612 22.3219 73.1753 23.469 69.4233L23.6812 68.729C23.1619 68.7349 22.6331 68.6633 22.1107 68.5036L14.7294 66.2469C11.9948 65.4108 10.4502 62.5059 11.2863 59.7713L12.0005 57.4351C12.2926 56.4797 13.304 55.9419 14.2594 56.234C15.2148 56.5261 15.7526 57.5375 15.4605 58.493L14.7462 60.8291C14.4935 61.6558 14.9605 62.5341 15.7872 62.7869L23.1685 65.0436C23.9952 65.2963 24.8735 64.8293 25.1262 64.0026L38.9485 18.792C39.2012 17.9653 38.7343 17.0871 37.9076 16.8343L30.5262 14.5776C29.6995 14.3249 28.8213 14.7918 28.5685 15.6185L17.7434 51.0258C17.4513 51.9812 16.4399 52.519 15.4845 52.2269C14.5291 51.9348 13.9913 50.9234 14.2834 49.968L14.8476 48.1227L11.9643 47.2411C9.73857 46.5607 8.48128 44.1961 9.16174 41.9704L13.3931 28.1304C14.0735 25.9047 16.4381 24.6474 18.6638 25.3278ZM123.05 77.42C123.368 77.5172 123.706 77.3375 123.803 77.0197L128.034 63.1797C128.131 62.8618 127.952 62.5239 127.634 62.4267L124.751 61.5452L120.167 76.5385L123.05 77.42ZM80.6742 86.9127C80.1104 88.7569 81.1521 90.7161 82.9963 91.2799L92.223 94.1008C94.0672 94.6646 96.0264 93.6229 96.5902 91.7787L113.727 35.7268C114.291 33.8826 113.249 31.9234 111.405 31.3595L102.178 28.5387C100.334 27.9749 98.3748 29.0166 97.811 30.8608L80.6742 86.9127ZM26.929 70.4811C26.3651 72.3253 27.4069 74.2845 29.2511 74.8483L38.4777 77.6692C40.3219 78.233 42.2811 77.1913 42.8449 75.3471L59.9817 19.2952C60.5456 17.451 59.5038 15.4918 57.6596 14.928L48.433 12.1071C46.5888 11.5433 44.6296 12.585 44.0658 14.4292L26.929 70.4811ZM12.6217 43.0282C12.5246 43.346 12.7042 43.684 13.0221 43.7812L15.9054 44.6627L20.4893 29.6694L17.606 28.7878C17.2882 28.6907 16.9502 28.8703 16.853 29.1882L12.6217 43.0282Z" fill="white"/>
</svg>
