<svg width="72" height="72" viewBox="0 0 72 72" fill="none" xmlns="http://www.w3.org/2000/svg">
<path d="M55.125 68.0312H16.875C15.0848 68.0312 13.3679 67.33 12.102 66.0817C10.8362 64.8334 10.125 63.1403 10.125 61.375V10.3438C10.125 8.5784 10.8362 6.88536 12.102 5.63707C13.3679 4.38878 15.0848 3.6875 16.875 3.6875H48.375L61.875 17V61.375C61.875 63.1403 61.1638 64.8334 59.898 66.0817C58.6321 67.33 56.9152 68.0312 55.125 68.0312Z" fill="#E5E6F1"/>
<path d="M10.125 50.2812H61.875V61.375C61.875 63.1403 61.1638 64.8334 59.898 66.0817C58.6321 67.33 56.9152 68.0312 55.125 68.0312H16.875C15.0848 68.0312 13.3679 67.33 12.102 66.0817C10.8362 64.8334 10.125 63.1403 10.125 61.375V50.2812Z" fill="#6079D0"/>
<path d="M61.875 17H55.125C53.3348 17 51.6179 16.2987 50.352 15.0504C49.0862 13.8021 48.375 12.1091 48.375 10.3438V3.6875L61.875 17Z" fill="#6079D0"/>
<path d="M52.875 24.7656H28.125C27.8266 24.7656 27.5405 24.6487 27.3295 24.4407C27.1185 24.2326 27 23.9505 27 23.6562C27 23.362 27.1185 23.0799 27.3295 22.8718C27.5405 22.6638 27.8266 22.5469 28.125 22.5469H52.875C53.1734 22.5469 53.4595 22.6638 53.6705 22.8718C53.8815 23.0799 54 23.362 54 23.6562C54 23.9505 53.8815 24.2326 53.6705 24.4407C53.4595 24.6487 53.1734 24.7656 52.875 24.7656Z" fill="#6079D0"/>
<path d="M39.375 29.2031H19.125C18.8266 29.2031 18.5405 29.0862 18.3295 28.8782C18.1185 28.6701 18 28.388 18 28.0938C18 27.7995 18.1185 27.5174 18.3295 27.3093C18.5405 27.1013 18.8266 26.9844 19.125 26.9844H39.375C39.6734 26.9844 39.9595 27.1013 40.1705 27.3093C40.3815 27.5174 40.5 27.7995 40.5 28.0938C40.5 28.388 40.3815 28.6701 40.1705 28.8782C39.9595 29.0862 39.6734 29.2031 39.375 29.2031Z" fill="#6079D0"/>
<path d="M52.875 33.6406H34.875C34.5766 33.6406 34.2905 33.5237 34.0795 33.3157C33.8685 33.1076 33.75 32.8255 33.75 32.5312C33.75 32.237 33.8685 31.9549 34.0795 31.7468C34.2905 31.5388 34.5766 31.4219 34.875 31.4219H52.875C53.1734 31.4219 53.4595 31.5388 53.6705 31.7468C53.8815 31.9549 54 32.237 54 32.5312C54 32.8255 53.8815 33.1076 53.6705 33.3157C53.4595 33.5237 53.1734 33.6406 52.875 33.6406Z" fill="#6079D0"/>
<path d="M45 38.0781H19.125C18.8266 38.0781 18.5405 37.9612 18.3295 37.7532C18.1185 37.5451 18 37.263 18 36.9688C18 36.6745 18.1185 36.3924 18.3295 36.1843C18.5405 35.9763 18.8266 35.8594 19.125 35.8594H45C45.2984 35.8594 45.5845 35.9763 45.7955 36.1843C46.0065 36.3924 46.125 36.6745 46.125 36.9688C46.125 37.263 46.0065 37.5451 45.7955 37.7532C45.5845 37.9612 45.2984 38.0781 45 38.0781Z" fill="#6079D0"/>
<path d="M23.625 24.7656H19.125C18.8266 24.7656 18.5405 24.6487 18.3295 24.4407C18.1185 24.2326 18 23.9505 18 23.6562C18 23.362 18.1185 23.0799 18.3295 22.8718C18.5405 22.6638 18.8266 22.5469 19.125 22.5469H23.625C23.9234 22.5469 24.2095 22.6638 24.4205 22.8718C24.6315 23.0799 24.75 23.362 24.75 23.6562C24.75 23.9505 24.6315 24.2326 24.4205 24.4407C24.2095 24.6487 23.9234 24.7656 23.625 24.7656Z" fill="#6079D0"/>
<path d="M52.875 29.2031H43.875C43.5766 29.2031 43.2905 29.0862 43.0795 28.8782C42.8685 28.6701 42.75 28.388 42.75 28.0938C42.75 27.7995 42.8685 27.5174 43.0795 27.3093C43.2905 27.1013 43.5766 26.9844 43.875 26.9844H52.875C53.1734 26.9844 53.4595 27.1013 53.6705 27.3093C53.8815 27.5174 54 27.7995 54 28.0938C54 28.388 53.8815 28.6701 53.6705 28.8782C53.4595 29.0862 53.1734 29.2031 52.875 29.2031Z" fill="#6079D0"/>
<path d="M30.375 33.6406H19.125C18.8266 33.6406 18.5405 33.5237 18.3295 33.3157C18.1185 33.1076 18 32.8255 18 32.5312C18 32.237 18.1185 31.9549 18.3295 31.7468C18.5405 31.5388 18.8266 31.4219 19.125 31.4219H30.375C30.6734 31.4219 30.9595 31.5388 31.1705 31.7468C31.3815 31.9549 31.5 32.237 31.5 32.5312C31.5 32.8255 31.3815 33.1076 31.1705 33.3157C30.9595 33.5237 30.6734 33.6406 30.375 33.6406Z" fill="#6079D0"/>
<path d="M52.875 38.0781H49.5C49.2016 38.0781 48.9155 37.9612 48.7045 37.7532C48.4935 37.5451 48.375 37.263 48.375 36.9688C48.375 36.6745 48.4935 36.3924 48.7045 36.1843C48.9155 35.9763 49.2016 35.8594 49.5 35.8594H52.875C53.1734 35.8594 53.4595 35.9763 53.6705 36.1843C53.8815 36.3924 54 36.6745 54 36.9688C54 37.263 53.8815 37.5451 53.6705 37.7532C53.4595 37.9612 53.1734 38.0781 52.875 38.0781Z" fill="#6079D0"/>
<path d="M25.875 42.5156H19.125C18.8266 42.5156 18.5405 42.3987 18.3295 42.1907C18.1185 41.9826 18 41.7005 18 41.4062C18 41.112 18.1185 40.8299 18.3295 40.6218C18.5405 40.4138 18.8266 40.2969 19.125 40.2969H25.875C26.1734 40.2969 26.4595 40.4138 26.6705 40.6218C26.8815 40.8299 27 41.112 27 41.4062C27 41.7005 26.8815 41.9826 26.6705 42.1907C26.4595 42.3987 26.1734 42.5156 25.875 42.5156Z" fill="#6079D0"/>
<path d="M30.375 20.3281H19.125C18.8266 20.3281 18.5405 20.2112 18.3295 20.0032C18.1185 19.7951 18 19.513 18 19.2188C18 18.9245 18.1185 18.6424 18.3295 18.4343C18.5405 18.2263 18.8266 18.1094 19.125 18.1094H30.375C30.6734 18.1094 30.9595 18.2263 31.1705 18.4343C31.3815 18.6424 31.5 18.9245 31.5 19.2188C31.5 19.513 31.3815 19.7951 31.1705 20.0032C30.9595 20.2112 30.6734 20.3281 30.375 20.3281Z" fill="#6079D0"/>
<path d="M41.625 42.5156H30.375C30.0766 42.5156 29.7905 42.3987 29.5795 42.1907C29.3685 41.9826 29.25 41.7005 29.25 41.4062C29.25 41.112 29.3685 40.8299 29.5795 40.6218C29.7905 40.4138 30.0766 40.2969 30.375 40.2969H41.625C41.9234 40.2969 42.2095 40.4138 42.4205 40.6218C42.6315 40.8299 42.75 41.112 42.75 41.4062C42.75 41.7005 42.6315 41.9826 42.4205 42.1907C42.2095 42.3987 41.9234 42.5156 41.625 42.5156Z" fill="#6079D0"/>
<path d="M52.875 42.5156H46.125C45.8266 42.5156 45.5405 42.3987 45.3295 42.1907C45.1185 41.9826 45 41.7005 45 41.4062C45 41.112 45.1185 40.8299 45.3295 40.6218C45.5405 40.4138 45.8266 40.2969 46.125 40.2969H52.875C53.1734 40.2969 53.4595 40.4138 53.6705 40.6218C53.8815 40.8299 54 41.112 54 41.4062C54 41.7005 53.8815 41.9826 53.6705 42.1907C53.4595 42.3987 53.1734 42.5156 52.875 42.5156Z" fill="#6079D0"/>
<path d="M23.625 53.6094C23.3266 53.6094 23.0405 53.7263 22.8295 53.9343C22.6185 54.1424 22.5 54.4245 22.5 54.7188V63.5938C22.5 63.888 22.6185 64.1701 22.8295 64.3782C23.0405 64.5862 23.3266 64.7031 23.625 64.7031C25.1168 64.7031 26.5476 64.1187 27.6025 63.0785C28.6574 62.0382 29.25 60.6274 29.25 59.1562C29.25 57.6851 28.6574 56.2743 27.6025 55.234C26.5476 54.1938 25.1168 53.6094 23.625 53.6094ZM24.75 62.2943V56.0182C25.4082 56.2476 25.978 56.6725 26.3811 57.2345C26.7842 57.7965 27.0006 58.4679 27.0006 59.1562C27.0006 59.8446 26.7842 60.516 26.3811 61.078C25.978 61.64 25.4082 62.0649 24.75 62.2943Z" fill="white"/>
<path d="M36 53.6094C33.5187 53.6094 31.5 56.0977 31.5 59.1562C31.5 62.2148 33.5187 64.7031 36 64.7031C38.4813 64.7031 40.5 62.2148 40.5 59.1562C40.5 56.0977 38.4813 53.6094 36 53.6094ZM36 62.4844C34.7804 62.4844 33.75 60.9602 33.75 59.1562C33.75 57.3523 34.7804 55.8281 36 55.8281C37.2196 55.8281 38.25 57.3523 38.25 59.1562C38.25 60.9602 37.2196 62.4844 36 62.4844Z" fill="white"/>
<path d="M47.25 55.8281C47.4735 55.8292 47.694 55.8793 47.8955 55.9748C48.1654 56.1003 48.4748 56.1148 48.7555 56.0153C49.0363 55.9157 49.2655 55.7103 49.3927 55.4441C49.5199 55.178 49.5346 54.8729 49.4337 54.596C49.3328 54.3191 49.1244 54.0931 48.8545 53.9677C48.3533 53.7322 47.8052 53.6098 47.25 53.6094C44.7687 53.6094 42.75 56.0977 42.75 59.1562C42.75 62.2148 44.7687 64.7031 47.25 64.7031C47.8052 64.7026 48.3534 64.5802 48.8547 64.3448C48.9883 64.2827 49.1082 64.1952 49.2076 64.0874C49.3069 63.9796 49.3838 63.8535 49.4338 63.7164C49.4837 63.5793 49.5058 63.4338 49.4987 63.2883C49.4917 63.1428 49.4556 63.0001 49.3926 62.8683C49.3296 62.7365 49.2409 62.6182 49.1316 62.5203C49.0223 62.4223 48.8944 62.3465 48.7554 62.2972C48.4746 62.1978 48.1652 62.2123 47.8953 62.3378C47.6939 62.4333 47.4735 62.4833 47.25 62.4844C46.0304 62.4844 45 60.9602 45 59.1562C45 57.3523 46.0304 55.8281 47.25 55.8281Z" fill="white"/>
</svg>
