<svg width="72" height="72" viewBox="0 0 72 72" fill="none" xmlns="http://www.w3.org/2000/svg">
<path d="M55.2734 68.1719H17.5547C15.7893 68.1719 14.0963 67.4706 12.848 66.2223C11.5997 64.974 10.8984 63.281 10.8984 61.5156V10.4844C10.8984 8.71903 11.5997 7.02598 12.848 5.7777C14.0963 4.52941 15.7893 3.82813 17.5547 3.82812H48.6172L61.9297 17.1406V61.5156C61.9297 63.281 61.2284 64.974 59.9801 66.2223C58.7318 67.4706 57.0388 68.1719 55.2734 68.1719Z" fill="#E5E6F1"/>
<path d="M19.7734 19.3594H30.8672V32.6719H19.7734V19.3594Z" fill="#FF5151"/>
<path d="M10.8984 50.4219H61.9297V61.5156C61.9297 63.281 61.2284 64.974 59.9801 66.2223C58.7318 67.4706 57.0388 68.1719 55.2734 68.1719H17.5547C15.7893 68.1719 14.0963 67.4706 12.848 66.2223C11.5997 64.974 10.8984 63.281 10.8984 61.5156V50.4219Z" fill="#FF5151"/>
<path d="M61.9297 17.1406H55.2734C53.5081 17.1406 51.815 16.4393 50.5668 15.1911C49.3185 13.9428 48.6172 12.2497 48.6172 10.4844V3.82812L61.9297 17.1406Z" fill="#FF5151"/>
<path d="M53.0547 24.9062H35.3047C35.0105 24.9062 34.7283 24.7894 34.5202 24.5813C34.3122 24.3733 34.1953 24.0911 34.1953 23.7969C34.1953 23.5027 34.3122 23.2205 34.5202 23.0124C34.7283 22.8044 35.0105 22.6875 35.3047 22.6875H53.0547C53.3489 22.6875 53.6311 22.8044 53.8391 23.0124C54.0472 23.2205 54.1641 23.5027 54.1641 23.7969C54.1641 24.0911 54.0472 24.3733 53.8391 24.5813C53.6311 24.7894 53.3489 24.9062 53.0547 24.9062Z" fill="#FF5151"/>
<path d="M39.7422 29.3438H35.3047C35.0105 29.3438 34.7283 29.2269 34.5202 29.0188C34.3122 28.8108 34.1953 28.5286 34.1953 28.2344C34.1953 27.9402 34.3122 27.658 34.5202 27.4499C34.7283 27.2419 35.0105 27.125 35.3047 27.125H39.7422C40.0364 27.125 40.3186 27.2419 40.5266 27.4499C40.7347 27.658 40.8516 27.9402 40.8516 28.2344C40.8516 28.5286 40.7347 28.8108 40.5266 29.0188C40.3186 29.2269 40.0364 29.3438 39.7422 29.3438Z" fill="#FF5151"/>
<path d="M53.0547 33.7812H35.3047C35.0105 33.7812 34.7283 33.6644 34.5202 33.4563C34.3122 33.2483 34.1953 32.9661 34.1953 32.6719C34.1953 32.3777 34.3122 32.0955 34.5202 31.8874C34.7283 31.6794 35.0105 31.5625 35.3047 31.5625H53.0547C53.3489 31.5625 53.6311 31.6794 53.8391 31.8874C54.0472 32.0955 54.1641 32.3777 54.1641 32.6719C54.1641 32.9661 54.0472 33.2483 53.8391 33.4563C53.6311 33.6644 53.3489 33.7812 53.0547 33.7812Z" fill="#FF5151"/>
<path d="M45.2891 38.2188H19.7734C19.4792 38.2188 19.197 38.1019 18.989 37.8938C18.7809 37.6858 18.6641 37.4036 18.6641 37.1094C18.6641 36.8152 18.7809 36.533 18.989 36.3249C19.197 36.1169 19.4792 36 19.7734 36H45.2891C45.5833 36 45.8655 36.1169 46.0735 36.3249C46.2816 36.533 46.3984 36.8152 46.3984 37.1094C46.3984 37.4036 46.2816 37.6858 46.0735 37.8938C45.8655 38.1019 45.5833 38.2188 45.2891 38.2188Z" fill="#FF5151"/>
<path d="M53.0547 29.3438H44.1797C43.8855 29.3438 43.6033 29.2269 43.3952 29.0188C43.1872 28.8108 43.0703 28.5286 43.0703 28.2344C43.0703 27.9402 43.1872 27.658 43.3952 27.4499C43.6033 27.2419 43.8855 27.125 44.1797 27.125H53.0547C53.3489 27.125 53.6311 27.2419 53.8391 27.4499C54.0472 27.658 54.1641 27.9402 54.1641 28.2344C54.1641 28.5286 54.0472 28.8108 53.8391 29.0188C53.6311 29.2269 53.3489 29.3438 53.0547 29.3438Z" fill="#FF5151"/>
<path d="M53.0547 38.2188H49.7266C49.4323 38.2188 49.1502 38.1019 48.9421 37.8938C48.7341 37.6858 48.6172 37.4036 48.6172 37.1094C48.6172 36.8152 48.7341 36.533 48.9421 36.3249C49.1502 36.1169 49.4323 36 49.7266 36H53.0547C53.3489 36 53.6311 36.1169 53.8391 36.3249C54.0472 36.533 54.1641 36.8152 54.1641 37.1094C54.1641 37.4036 54.0472 37.6858 53.8391 37.8938C53.6311 38.1019 53.3489 38.2188 53.0547 38.2188Z" fill="#FF5151"/>
<path d="M26.4297 42.6562H19.7734C19.4792 42.6562 19.197 42.5394 18.989 42.3313C18.7809 42.1233 18.6641 41.8411 18.6641 41.5469C18.6641 41.2527 18.7809 40.9705 18.989 40.7624C19.197 40.5544 19.4792 40.4375 19.7734 40.4375H26.4297C26.7239 40.4375 27.0061 40.5544 27.2141 40.7624C27.4222 40.9705 27.5391 41.2527 27.5391 41.5469C27.5391 41.8411 27.4222 42.1233 27.2141 42.3313C27.0061 42.5394 26.7239 42.6562 26.4297 42.6562Z" fill="#FF5151"/>
<path d="M41.9609 42.6562H30.8672C30.573 42.6562 30.2908 42.5394 30.0827 42.3313C29.8747 42.1233 29.7578 41.8411 29.7578 41.5469C29.7578 41.2527 29.8747 40.9705 30.0827 40.7624C30.2908 40.5544 30.573 40.4375 30.8672 40.4375H41.9609C42.2552 40.4375 42.5373 40.5544 42.7454 40.7624C42.9534 40.9705 43.0703 41.2527 43.0703 41.5469C43.0703 41.8411 42.9534 42.1233 42.7454 42.3313C42.5373 42.5394 42.2552 42.6562 41.9609 42.6562Z" fill="#FF5151"/>
<path d="M53.0547 42.6562H46.3984C46.1042 42.6562 45.822 42.5394 45.614 42.3313C45.4059 42.1233 45.2891 41.8411 45.2891 41.5469C45.2891 41.2527 45.4059 40.9705 45.614 40.7624C45.822 40.5544 46.1042 40.4375 46.3984 40.4375H53.0547C53.3489 40.4375 53.6311 40.5544 53.8391 40.7624C54.0472 40.9705 54.1641 41.2527 54.1641 41.5469C54.1641 41.8411 54.0472 42.1233 53.8391 42.3313C53.6311 42.5394 53.3489 42.6562 53.0547 42.6562Z" fill="#FF5151"/>
<path d="M44.1797 20.4688H35.3047C35.0105 20.4688 34.7283 20.3519 34.5202 20.1438C34.3122 19.9358 34.1953 19.6536 34.1953 19.3594C34.1953 19.0652 34.3122 18.783 34.5202 18.5749C34.7283 18.3669 35.0105 18.25 35.3047 18.25H44.1797C44.4739 18.25 44.7561 18.3669 44.9641 18.5749C45.1722 18.783 45.2891 19.0652 45.2891 19.3594C45.2891 19.6536 45.1722 19.9358 44.9641 20.1438C44.7561 20.3519 44.4739 20.4688 44.1797 20.4688Z" fill="#FF5151"/>
<path d="M47.5078 53.75H43.0703C42.7761 53.75 42.4939 53.8669 42.2859 54.0749C42.0778 54.283 41.9609 54.5652 41.9609 54.8594V63.7344C41.9609 64.0286 42.0778 64.3108 42.2859 64.5188C42.4939 64.7269 42.7761 64.8438 43.0703 64.8438C43.3645 64.8438 43.6467 64.7269 43.8548 64.5188C44.0628 64.3108 44.1797 64.0286 44.1797 63.7344V60.4062H45.2891C45.5833 60.4062 45.8655 60.2894 46.0735 60.0813C46.2816 59.8733 46.3984 59.5911 46.3984 59.2969C46.3984 59.0027 46.2816 58.7205 46.0735 58.5124C45.8655 58.3044 45.5833 58.1875 45.2891 58.1875H44.1797V55.9688H47.5078C47.802 55.9688 48.0842 55.8519 48.2923 55.6438C48.5003 55.4358 48.6172 55.1536 48.6172 54.8594C48.6172 54.5652 48.5003 54.283 48.2923 54.0749C48.0842 53.8669 47.802 53.75 47.5078 53.75Z" fill="white"/>
<path d="M27.5391 53.75H25.3203C25.0261 53.75 24.7439 53.8669 24.5359 54.0749C24.3278 54.283 24.2109 54.5652 24.2109 54.8594V63.7344C24.2109 64.0286 24.3278 64.3108 24.5359 64.5188C24.7439 64.7269 25.0261 64.8438 25.3203 64.8438C25.6145 64.8438 25.8967 64.7269 26.1048 64.5188C26.3128 64.3108 26.4297 64.0286 26.4297 63.7344V60.4062H27.5391C28.4217 60.4062 29.2683 60.0556 29.8924 59.4315C30.5165 58.8073 30.8672 57.9608 30.8672 57.0781C30.8672 56.1955 30.5165 55.3489 29.8924 54.7248C29.2683 54.1006 28.4217 53.75 27.5391 53.75ZM27.5391 58.1875H26.4297V55.9688H27.5391C27.8333 55.9688 28.1155 56.0856 28.3235 56.2937C28.5316 56.5017 28.6484 56.7839 28.6484 57.0781C28.6484 57.3723 28.5316 57.6545 28.3235 57.8626C28.1155 58.0706 27.8333 58.1875 27.5391 58.1875Z" fill="white"/>
<path d="M34.1953 53.75C33.9011 53.75 33.6189 53.8669 33.4109 54.0749C33.2028 54.283 33.0859 54.5652 33.0859 54.8594V63.7344C33.0859 64.0286 33.2028 64.3108 33.4109 64.5188C33.6189 64.7269 33.9011 64.8438 34.1953 64.8438C35.6664 64.8438 37.0773 64.2593 38.1175 63.2191C39.1578 62.1789 39.7422 60.768 39.7422 59.2969C39.7422 57.8258 39.1578 56.4149 38.1175 55.3746C37.0773 54.3344 35.6664 53.75 34.1953 53.75ZM35.3047 62.4349V56.1589C35.9537 56.3882 36.5157 56.8131 36.9131 57.3751C37.3106 57.9371 37.5241 58.6085 37.5241 59.2969C37.5241 59.9852 37.3106 60.6566 36.9131 61.2186C36.5157 61.7806 35.9537 62.2056 35.3047 62.4349Z" fill="white"/>
</svg>
