<svg width="72" height="71" viewBox="0 0 72 71" fill="none" xmlns="http://www.w3.org/2000/svg">
<path d="M55.1836 67.6719H17.4648C15.6995 67.6719 14.0065 66.9706 12.7582 65.7223C11.5099 64.474 10.8086 62.781 10.8086 61.0156V9.98438C10.8086 8.21903 11.5099 6.52598 12.7582 5.2777C14.0065 4.02941 15.6995 3.32813 17.4648 3.32812H48.5273L61.8398 16.6406V61.0156C61.8398 62.781 61.1386 64.474 59.8903 65.7223C58.642 66.9706 56.9489 67.6719 55.1836 67.6719Z" fill="#E5E6F1"/>
<path d="M10.8086 49.9219H61.8398V61.0156C61.8398 62.781 61.1386 64.474 59.8903 65.7223C58.642 66.9706 56.9489 67.6719 55.1836 67.6719H17.4648C15.6995 67.6719 14.0065 66.9706 12.7582 65.7223C11.5099 64.474 10.8086 62.781 10.8086 61.0156V49.9219Z" fill="#FABE86"/>
<path d="M37.4336 21.0781C39.4083 21.0781 41.3387 21.6637 42.9806 22.7608C44.6225 23.8579 45.9023 25.4172 46.658 27.2416C47.4136 29.0661 47.6114 31.0736 47.2261 33.0104C46.8409 34.9471 45.89 36.7262 44.4936 38.1225C43.0973 39.5189 41.3182 40.4698 39.3814 40.855C37.4447 41.2403 35.4371 41.0426 33.6127 40.2869C31.7883 39.5312 30.229 38.2514 29.1319 36.6095C28.0348 34.9676 27.4492 33.0372 27.4492 31.0625H37.4336V21.0781Z" fill="#FABE86"/>
<path d="M32.9961 16.6406V26.625H23.0117C23.0117 23.977 24.0636 21.4374 25.9361 19.565C27.8085 17.6925 30.3481 16.6406 32.9961 16.6406Z" fill="white"/>
<path d="M61.8398 16.6406H55.1836C53.4182 16.6406 51.7252 15.9393 50.4769 14.6911C49.2286 13.4428 48.5273 11.7497 48.5273 9.98438V3.32812L61.8398 16.6406Z" fill="#FABE86"/>
<path d="M36.3242 53.25H34.1055C33.8112 53.25 33.5291 53.3669 33.321 53.5749C33.113 53.783 32.9961 54.0652 32.9961 54.3594V63.2344C32.9961 63.5286 33.113 63.8108 33.321 64.0188C33.5291 64.2269 33.8112 64.3438 34.1055 64.3438C34.3997 64.3438 34.6819 64.2269 34.8899 64.0188C35.098 63.8108 35.2148 63.5286 35.2148 63.2344V59.9062H36.3242C37.2069 59.9062 38.0534 59.5556 38.6776 58.9315C39.3017 58.3073 39.6523 57.4608 39.6523 56.5781C39.6523 55.6955 39.3017 54.8489 38.6776 54.2248C38.0534 53.6006 37.2069 53.25 36.3242 53.25ZM36.3242 57.6875H35.2148V55.4688H36.3242C36.6184 55.4688 36.9006 55.5856 37.1087 55.7937C37.3167 56.0017 37.4336 56.2839 37.4336 56.5781C37.4336 56.8723 37.3167 57.1545 37.1087 57.3626C36.9006 57.5706 36.6184 57.6875 36.3242 57.6875Z" fill="white"/>
<path d="M27.4492 53.25H25.2305C24.9362 53.25 24.6541 53.3669 24.446 53.5749C24.238 53.783 24.1211 54.0652 24.1211 54.3594V63.2344C24.1211 63.5286 24.238 63.8108 24.446 64.0188C24.6541 64.2269 24.9362 64.3438 25.2305 64.3438C25.5247 64.3438 25.8069 64.2269 26.0149 64.0188C26.223 63.8108 26.3398 63.5286 26.3398 63.2344V59.9062H27.4492C28.3319 59.9062 29.1784 59.5556 29.8026 58.9315C30.4267 58.3073 30.7773 57.4608 30.7773 56.5781C30.7773 55.6955 30.4267 54.8489 29.8026 54.2248C29.1784 53.6006 28.3319 53.25 27.4492 53.25ZM27.4492 57.6875H26.3398V55.4688H27.4492C27.7434 55.4688 28.0256 55.5856 28.2337 55.7937C28.4417 56.0017 28.5586 56.2839 28.5586 56.5781C28.5586 56.8723 28.4417 57.1545 28.2337 57.3626C28.0256 57.5706 27.7434 57.6875 27.4492 57.6875Z" fill="white"/>
<path d="M47.418 53.25H42.9805C42.6862 53.25 42.4041 53.3669 42.196 53.5749C41.988 53.783 41.8711 54.0652 41.8711 54.3594C41.8711 54.6536 41.988 54.9358 42.196 55.1438C42.4041 55.3519 42.6862 55.4688 42.9805 55.4688H44.0898V63.2344C44.0898 63.5286 44.2067 63.8108 44.4148 64.0188C44.6228 64.2269 44.905 64.3438 45.1992 64.3438C45.4934 64.3438 45.7756 64.2269 45.9837 64.0188C46.1917 63.8108 46.3086 63.5286 46.3086 63.2344V55.4688H47.418C47.7122 55.4688 47.9944 55.3519 48.2024 55.1438C48.4105 54.9358 48.5273 54.6536 48.5273 54.3594C48.5273 54.0652 48.4105 53.783 48.2024 53.5749C47.9944 53.3669 47.7122 53.25 47.418 53.25Z" fill="white"/>
</svg>
