<svg width="71" height="72" viewBox="0 0 71 72" fill="none" xmlns="http://www.w3.org/2000/svg">
<path d="M54.3594 68.1719H16.6406C14.8753 68.1719 13.1822 67.4706 11.9339 66.2223C10.6857 64.974 9.98438 63.281 9.98438 61.5156V10.4844C9.98438 8.71903 10.6857 7.02598 11.9339 5.7777C13.1822 4.52941 14.8753 3.82813 16.6406 3.82812H47.7031L61.0156 17.1406V61.5156C61.0156 63.281 60.3143 64.974 59.0661 66.2223C57.8178 67.4706 56.1247 68.1719 54.3594 68.1719Z" fill="#E5E6F1"/>
<path d="M9.98438 50.4219H61.0156V61.5156C61.0156 63.281 60.3143 64.974 59.0661 66.2223C57.8178 67.4706 56.1247 68.1719 54.3594 68.1719H16.6406C14.8753 68.1719 13.1822 67.4706 11.9339 66.2223C10.6857 64.974 9.98438 63.281 9.98438 61.5156V50.4219Z" fill="#FF6651"/>
<path d="M61.0156 17.1406H54.3594C52.594 17.1406 50.901 16.4393 49.6527 15.1911C48.4044 13.9428 47.7031 12.2497 47.7031 10.4844V3.82812L61.0156 17.1406Z" fill="#FF6651"/>
<path d="M36.5385 54.4696C36.4592 54.2582 36.3172 54.0761 36.1316 53.9475C35.946 53.8189 35.7256 53.75 35.4998 53.75C35.2741 53.75 35.0536 53.8189 34.8681 53.9475C34.6825 54.0761 34.5405 54.2582 34.4612 54.4696L31.1331 63.3446C31.0798 63.4814 31.0543 63.6275 31.058 63.7742C31.0616 63.921 31.0943 64.0656 31.1543 64.1996C31.2142 64.3337 31.3002 64.4545 31.4071 64.555C31.5141 64.6556 31.64 64.7339 31.7774 64.7855C31.9149 64.837 32.0612 64.8608 32.208 64.8554C32.3547 64.8499 32.4989 64.8154 32.6321 64.7539C32.7654 64.6923 32.8852 64.6049 32.9844 64.4967C33.0837 64.3886 33.1605 64.2617 33.2104 64.1237L33.7725 62.6248H37.2271L37.7893 64.1237C37.8392 64.2617 37.916 64.3886 38.0153 64.4967C38.1145 64.6049 38.2343 64.6923 38.3675 64.7539C38.5008 64.8154 38.645 64.8499 38.7917 64.8554C38.9385 64.8608 39.0848 64.837 39.2223 64.7855C39.3597 64.7339 39.4856 64.6556 39.5926 64.555C39.6995 64.4545 39.7855 64.3337 39.8454 64.1996C39.9054 64.0656 39.9381 63.921 39.9417 63.7742C39.9454 63.6275 39.9198 63.4814 39.8666 63.3446L36.5385 54.4696ZM34.6046 60.406L35.4998 58.0186L36.3951 60.406H34.6046Z" fill="white"/>
<path d="M25.9463 60.3774C26.7832 60.2665 27.5467 59.8417 28.0821 59.1891C28.6176 58.5364 28.885 57.7047 28.8303 56.8623C28.7755 56.0199 28.4027 55.2297 27.7873 54.6519C27.1718 54.074 26.3598 53.7516 25.5156 53.75H23.2969C23.0027 53.75 22.7205 53.8669 22.5124 54.0749C22.3044 54.283 22.1875 54.5652 22.1875 54.8594V63.7344C22.1875 64.0286 22.3044 64.3108 22.5124 64.5188C22.7205 64.7269 23.0027 64.8438 23.2969 64.8438C23.5911 64.8438 23.8733 64.7269 24.0813 64.5188C24.2894 64.3108 24.4063 64.0286 24.4063 63.7344V61.9752L26.9499 64.5188C27.158 64.7269 27.4401 64.8438 27.7344 64.8438C28.0286 64.8438 28.3108 64.7269 28.5188 64.5188C28.7269 64.3108 28.8438 64.0286 28.8438 63.7344C28.8438 63.4401 28.7269 63.158 28.5188 62.9499L25.9463 60.3774ZM24.4063 55.9688H25.5156C25.8098 55.9688 26.092 56.0856 26.3001 56.2937C26.5081 56.5017 26.625 56.7839 26.625 57.0781C26.625 57.3723 26.5081 57.6545 26.3001 57.8626C26.092 58.0706 25.8098 58.1875 25.5156 58.1875H24.4063V55.9688Z" fill="white"/>
<path d="M45.9151 60.3774C46.752 60.2665 47.5154 59.8417 48.0509 59.1891C48.5864 58.5364 48.8538 57.7047 48.799 56.8623C48.7443 56.0199 48.3715 55.2297 47.756 54.6519C47.1406 54.074 46.3286 53.7516 45.4844 53.75H43.2656C42.9714 53.75 42.6892 53.8669 42.4812 54.0749C42.2731 54.283 42.1562 54.5652 42.1562 54.8594V63.7344C42.1562 64.0286 42.2731 64.3108 42.4812 64.5188C42.6892 64.7269 42.9714 64.8438 43.2656 64.8438C43.5598 64.8438 43.842 64.7269 44.0501 64.5188C44.2581 64.3108 44.375 64.0286 44.375 63.7344V61.9752L46.9187 64.5188C47.0217 64.6219 47.144 64.7036 47.2786 64.7593C47.4132 64.8151 47.5574 64.8438 47.7031 64.8438C47.8488 64.8438 47.9931 64.8151 48.1277 64.7593C48.2623 64.7036 48.3846 64.6219 48.4876 64.5188C48.5906 64.4158 48.6723 64.2935 48.7281 64.1589C48.7838 64.0243 48.8125 63.8801 48.8125 63.7344C48.8125 63.5887 48.7838 63.4444 48.7281 63.3098C48.6723 63.1752 48.5906 63.0529 48.4876 62.9499L45.9151 60.3774ZM44.375 55.9688H45.4844C45.7786 55.9688 46.0608 56.0856 46.2688 56.2937C46.4769 56.5017 46.5938 56.7839 46.5938 57.0781C46.5938 57.3723 46.4769 57.6545 46.2688 57.8626C46.0608 58.0706 45.7786 58.1875 45.4844 58.1875H44.375V55.9688Z" fill="white"/>
<path d="M16.6406 29.3438H14.4219C14.1277 29.3438 13.8455 29.2269 13.6374 29.0188C13.4294 28.8108 13.3125 28.5286 13.3125 28.2344C13.3125 27.9402 13.4294 27.658 13.6374 27.4499C13.8455 27.2419 14.1277 27.125 14.4219 27.125H16.6406C16.9348 27.125 17.217 27.2419 17.4251 27.4499C17.6331 27.658 17.75 27.9402 17.75 28.2344C17.75 28.5286 17.6331 28.8108 17.4251 29.0188C17.217 29.2269 16.9348 29.3438 16.6406 29.3438Z" fill="#FF6651"/>
<path d="M25.5156 29.3438H23.2969C23.0027 29.3438 22.7205 29.2269 22.5124 29.0188C22.3044 28.8108 22.1875 28.5286 22.1875 28.2344C22.1875 27.9402 22.3044 27.658 22.5124 27.4499C22.7205 27.2419 23.0027 27.125 23.2969 27.125H25.5156C25.8098 27.125 26.092 27.2419 26.3001 27.4499C26.5081 27.658 26.625 27.9402 26.625 28.2344C26.625 28.5286 26.5081 28.8108 26.3001 29.0188C26.092 29.2269 25.8098 29.3438 25.5156 29.3438Z" fill="#FF6651"/>
<path d="M34.3906 29.3438H32.1719C31.8777 29.3438 31.5955 29.2269 31.3874 29.0188C31.1794 28.8108 31.0625 28.5286 31.0625 28.2344C31.0625 27.9402 31.1794 27.658 31.3874 27.4499C31.5955 27.2419 31.8777 27.125 32.1719 27.125H34.3906C34.6848 27.125 34.967 27.2419 35.1751 27.4499C35.3831 27.658 35.5 27.9402 35.5 28.2344C35.5 28.5286 35.3831 28.8108 35.1751 29.0188C34.967 29.2269 34.6848 29.3438 34.3906 29.3438Z" fill="#FF6651"/>
<path d="M43.2656 29.3438H41.0469C40.7527 29.3438 40.4705 29.2269 40.2624 29.0188C40.0544 28.8108 39.9375 28.5286 39.9375 28.2344C39.9375 27.9402 40.0544 27.658 40.2624 27.4499C40.4705 27.2419 40.7527 27.125 41.0469 27.125H43.2656C43.5598 27.125 43.842 27.2419 44.0501 27.4499C44.2581 27.658 44.375 27.9402 44.375 28.2344C44.375 28.5286 44.2581 28.8108 44.0501 29.0188C43.842 29.2269 43.5598 29.3438 43.2656 29.3438Z" fill="#FF6651"/>
<path d="M52.1406 29.3438H49.9219C49.6277 29.3438 49.3455 29.2269 49.1374 29.0188C48.9294 28.8108 48.8125 28.5286 48.8125 28.2344C48.8125 27.9402 48.9294 27.658 49.1374 27.4499C49.3455 27.2419 49.6277 27.125 49.9219 27.125H52.1406C52.4348 27.125 52.717 27.2419 52.9251 27.4499C53.1331 27.658 53.25 27.9402 53.25 28.2344C53.25 28.5286 53.1331 28.8108 52.9251 29.0188C52.717 29.2269 52.4348 29.3438 52.1406 29.3438Z" fill="#FF6651"/>
<path d="M16.6406 33.7812H14.4219C14.1277 33.7812 13.8455 33.6644 13.6374 33.4563C13.4294 33.2483 13.3125 32.9661 13.3125 32.6719C13.3125 32.3777 13.4294 32.0955 13.6374 31.8874C13.8455 31.6794 14.1277 31.5625 14.4219 31.5625H16.6406C16.9348 31.5625 17.217 31.6794 17.4251 31.8874C17.6331 32.0955 17.75 32.3777 17.75 32.6719C17.75 32.9661 17.6331 33.2483 17.4251 33.4563C17.217 33.6644 16.9348 33.7812 16.6406 33.7812Z" fill="#FF6651"/>
<path d="M25.5156 33.7812H23.2969C23.0027 33.7812 22.7205 33.6644 22.5124 33.4563C22.3044 33.2483 22.1875 32.9661 22.1875 32.6719C22.1875 32.3777 22.3044 32.0955 22.5124 31.8874C22.7205 31.6794 23.0027 31.5625 23.2969 31.5625H25.5156C25.8098 31.5625 26.092 31.6794 26.3001 31.8874C26.5081 32.0955 26.625 32.3777 26.625 32.6719C26.625 32.9661 26.5081 33.2483 26.3001 33.4563C26.092 33.6644 25.8098 33.7812 25.5156 33.7812Z" fill="#FF6651"/>
<path d="M34.3906 33.7812H32.1719C31.8777 33.7812 31.5955 33.6644 31.3874 33.4563C31.1794 33.2483 31.0625 32.9661 31.0625 32.6719C31.0625 32.3777 31.1794 32.0955 31.3874 31.8874C31.5955 31.6794 31.8777 31.5625 32.1719 31.5625H34.3906C34.6848 31.5625 34.967 31.6794 35.1751 31.8874C35.3831 32.0955 35.5 32.3777 35.5 32.6719C35.5 32.9661 35.3831 33.2483 35.1751 33.4563C34.967 33.6644 34.6848 33.7812 34.3906 33.7812Z" fill="#FF6651"/>
<path d="M43.2656 33.7812H41.0469C40.7527 33.7812 40.4705 33.6644 40.2624 33.4563C40.0544 33.2483 39.9375 32.9661 39.9375 32.6719C39.9375 32.3777 40.0544 32.0955 40.2624 31.8874C40.4705 31.6794 40.7527 31.5625 41.0469 31.5625H43.2656C43.5598 31.5625 43.842 31.6794 44.0501 31.8874C44.2581 32.0955 44.375 32.3777 44.375 32.6719C44.375 32.9661 44.2581 33.2483 44.0501 33.4563C43.842 33.6644 43.5598 33.7812 43.2656 33.7812Z" fill="#FF6651"/>
<path d="M52.1406 33.7812H49.9219C49.6277 33.7812 49.3455 33.6644 49.1374 33.4563C48.9294 33.2483 48.8125 32.9661 48.8125 32.6719C48.8125 32.3777 48.9294 32.0955 49.1374 31.8874C49.3455 31.6794 49.6277 31.5625 49.9219 31.5625H52.1406C52.4348 31.5625 52.717 31.6794 52.9251 31.8874C53.1331 32.0955 53.25 32.3777 53.25 32.6719C53.25 32.9661 53.1331 33.2483 52.9251 33.4563C52.717 33.6644 52.4348 33.7812 52.1406 33.7812Z" fill="#FF6651"/>
<path d="M61.0156 33.7812H58.7969C58.5027 33.7812 58.2205 33.6644 58.0124 33.4563C57.8044 33.2483 57.6875 32.9661 57.6875 32.6719C57.6875 32.3777 57.8044 32.0955 58.0124 31.8874C58.2205 31.6794 58.5027 31.5625 58.7969 31.5625H61.0156V33.7812Z" fill="#FF6651"/>
<path d="M9.98438 29.3438H12.2031C12.4973 29.3438 12.7795 29.4606 12.9876 29.6687C13.1956 29.8767 13.3125 30.1589 13.3125 30.4531C13.3125 30.7473 13.1956 31.0295 12.9876 31.2376C12.7795 31.4456 12.4973 31.5625 12.2031 31.5625H9.98438V29.3438Z" fill="#D6513F"/>
<path d="M21.0781 31.5625H18.8594C18.5652 31.5625 18.283 31.4456 18.0749 31.2376C17.8669 31.0295 17.75 30.7473 17.75 30.4531C17.75 30.1589 17.8669 29.8767 18.0749 29.6687C18.283 29.4606 18.5652 29.3438 18.8594 29.3438H21.0781C21.3723 29.3438 21.6545 29.4606 21.8626 29.6687C22.0706 29.8767 22.1875 30.1589 22.1875 30.4531C22.1875 30.7473 22.0706 31.0295 21.8626 31.2376C21.6545 31.4456 21.3723 31.5625 21.0781 31.5625Z" fill="#D6513F"/>
<path d="M29.9531 31.5625H27.7344C27.4402 31.5625 27.158 31.4456 26.9499 31.2376C26.7419 31.0295 26.625 30.7473 26.625 30.4531C26.625 30.1589 26.7419 29.8767 26.9499 29.6687C27.158 29.4606 27.4402 29.3438 27.7344 29.3438H29.9531C30.2473 29.3438 30.5295 29.4606 30.7376 29.6687C30.9456 29.8767 31.0625 30.1589 31.0625 30.4531C31.0625 30.7473 30.9456 31.0295 30.7376 31.2376C30.5295 31.4456 30.2473 31.5625 29.9531 31.5625Z" fill="#D6513F"/>
<path d="M38.8281 31.5625H36.6094C36.3152 31.5625 36.033 31.4456 35.8249 31.2376C35.6169 31.0295 35.5 30.7473 35.5 30.4531C35.5 30.1589 35.6169 29.8767 35.8249 29.6687C36.033 29.4606 36.3152 29.3438 36.6094 29.3438H38.8281C39.1223 29.3438 39.4045 29.4606 39.6126 29.6687C39.8206 29.8767 39.9375 30.1589 39.9375 30.4531C39.9375 30.7473 39.8206 31.0295 39.6126 31.2376C39.4045 31.4456 39.1223 31.5625 38.8281 31.5625Z" fill="#D6513F"/>
<path d="M47.7031 31.5625H45.4844C45.1902 31.5625 44.908 31.4456 44.6999 31.2376C44.4919 31.0295 44.375 30.7473 44.375 30.4531C44.375 30.1589 44.4919 29.8767 44.6999 29.6687C44.908 29.4606 45.1902 29.3438 45.4844 29.3438H47.7031C47.9973 29.3438 48.2795 29.4606 48.4876 29.6687C48.6956 29.8767 48.8125 30.1589 48.8125 30.4531C48.8125 30.7473 48.6956 31.0295 48.4876 31.2376C48.2795 31.4456 47.9973 31.5625 47.7031 31.5625Z" fill="#D6513F"/>
<path d="M56.5781 31.5625H54.3594C54.0652 31.5625 53.783 31.4456 53.5749 31.2376C53.3669 31.0295 53.25 30.7473 53.25 30.4531C53.25 30.1589 53.3669 29.8767 53.5749 29.6687C53.783 29.4606 54.0652 29.3438 54.3594 29.3438H56.5781C56.8723 29.3438 57.1545 29.4606 57.3626 29.6687C57.5706 29.8767 57.6875 30.1589 57.6875 30.4531C57.6875 30.7473 57.5706 31.0295 57.3626 31.2376C57.1545 31.4456 56.8723 31.5625 56.5781 31.5625Z" fill="#D6513F"/>
<path d="M61.0156 29.3438H58.7969C58.5027 29.3438 58.2205 29.2269 58.0124 29.0188C57.8044 28.8108 57.6875 28.5286 57.6875 28.2344C57.6875 27.9402 57.8044 27.658 58.0124 27.4499C58.2205 27.2419 58.5027 27.125 58.7969 27.125H61.0156V29.3438Z" fill="#FF6651"/>
</svg>
