<svg width="42" height="69" viewBox="0 0 42 69" fill="none" xmlns="http://www.w3.org/2000/svg">
<path d="M20.9997 7.4342C13.2431 7.4342 6.93262 13.7447 6.93262 21.5013C6.93262 26.8012 9.86339 31.5986 14.5813 34.0217C15.2337 34.3566 16.0343 34.0994 16.3695 33.447C16.7046 32.7945 16.4473 31.9939 15.7948 31.6588C11.9669 29.6929 9.58887 25.8008 9.58887 21.5014C9.58887 15.2094 14.7077 10.0906 20.9997 10.0906C27.2917 10.0906 32.4106 15.2094 32.4106 21.5014C32.4106 25.8012 30.0323 29.6934 26.204 31.6592C25.5515 31.9943 25.2941 32.7949 25.6292 33.4474C25.8645 33.9059 26.3296 34.1692 26.8117 34.1691C27.0159 34.1691 27.2232 34.1219 27.4173 34.0222C32.1358 31.5993 35.0669 26.8016 35.0669 21.5014C35.0667 13.7447 28.7564 7.4342 20.9997 7.4342Z" fill="#ACB6E5"/>
<path d="M41.2702 19.3428L40.4171 17.7512L40.5598 15.7785C40.7243 14.2311 40.1057 12.722 38.9017 11.7371L37.484 10.576L36.9347 8.92116C36.5454 7.35398 35.3511 6.09571 33.8039 5.62834L32.0542 5.09975L30.7048 3.54013C29.7308 2.39436 28.2571 1.79776 26.7599 1.94545L24.9441 2.12634L23.1518 1.22734C21.8013 0.509882 20.1923 0.510546 18.8413 1.23092L17.2497 2.08398L15.2769 1.9412C13.7294 1.77678 12.2205 2.39529 11.2356 3.59923L10.0747 5.01701L8.41982 5.56632C6.85263 5.95559 5.59436 7.14984 5.12699 8.69711L4.5984 10.4468L3.03878 11.7962C1.89314 12.7702 1.29682 14.2444 1.4441 15.7412L1.62499 17.5572L0.725986 19.3493C0.00853315 20.6998 0.00893168 22.3087 0.72944 23.6596L1.58249 25.2513L1.43985 27.2241C1.27543 28.7713 1.89394 30.2805 3.09789 31.2654L4.51566 32.4265L5.06497 34.0813C5.41002 35.47 6.38752 36.6148 7.68217 37.1831V67.3619C7.68217 67.8222 7.92044 68.2497 8.3121 68.4916C8.70364 68.7335 9.19239 68.7555 9.60424 68.5497L21 62.8521L32.3955 68.5497C32.5831 68.6435 32.7864 68.69 32.9895 68.69C33.2324 68.69 33.4745 68.6234 33.6878 68.4916C34.0793 68.2496 34.3177 67.8221 34.3177 67.3619V37.1819C35.5348 36.6466 36.4816 35.6008 36.8729 34.3054L37.4015 32.5557L38.9611 31.2063C40.1068 30.2323 40.7031 28.758 40.5558 27.2614L40.3749 25.4454L41.2739 23.6531C41.9912 22.3027 41.9908 20.6937 41.2702 19.3428ZM10.3384 38.3568L11.2949 39.4623C12.2691 40.608 13.7435 41.2042 15.24 41.057L17.0557 40.876L18.8479 41.775C19.1137 41.9163 19.3899 42.0287 19.6718 42.1142V60.5463L10.3384 65.2128V38.3568ZM22.3281 60.5464V42.1142C22.6122 42.0279 22.8904 41.9146 23.1582 41.7717L24.7499 40.9186L26.7227 41.0613C28.2694 41.2259 29.7791 40.6073 30.7641 39.4034L31.6613 38.3077V65.213L22.3281 60.5464ZM38.9241 22.4145C38.9184 22.4253 38.9126 22.4362 38.9072 22.4472L37.8281 24.5986C37.7153 24.8233 37.6687 25.0755 37.6937 25.3258L37.9126 27.523C37.9745 28.1519 37.7232 28.7724 37.2319 29.1901L35.3725 30.7987C35.1823 30.9633 35.0427 31.1783 34.9701 31.4191L34.3302 33.5373C34.1303 34.1988 33.5873 34.7075 32.913 34.8648C32.8735 34.8739 32.8346 34.8849 32.7962 34.8977L30.7234 35.5857C30.4848 35.6648 30.2735 35.8101 30.1142 36.0047L28.7089 37.7208C28.291 38.2316 27.6485 38.4921 26.9915 38.4184C26.974 38.4164 26.9563 38.4148 26.9388 38.4135L24.5579 38.2414C24.3068 38.2237 24.0562 38.2767 23.8347 38.3954L21.906 39.4291C21.3369 39.7326 20.6568 39.7311 20.0869 39.4253C20.076 39.4194 20.0651 39.4139 20.0542 39.4083L17.9028 38.3292C17.7174 38.2362 17.5134 38.1881 17.3072 38.1881C17.2634 38.1881 17.2193 38.1903 17.1755 38.1946L14.9785 38.4136C14.3494 38.4761 13.7291 38.2243 13.3114 37.733L11.7028 35.8736C11.5383 35.6834 11.3232 35.5438 11.0824 35.4712L8.96421 34.8313C8.30268 34.6314 7.794 34.0883 7.63675 33.4139C7.62759 33.3746 7.61657 33.3356 7.60382 33.2972L6.91571 31.2242C6.83656 30.9856 6.69126 30.7744 6.49669 30.6152L4.78062 29.2099C4.26982 28.7919 4.00898 28.1499 4.08296 27.4925C4.08495 27.4749 4.08654 27.4573 4.08787 27.4397L4.25999 25.0588C4.27806 24.8081 4.22467 24.5573 4.10593 24.3356L3.07225 22.4071C2.76864 21.8378 2.7701 21.1578 3.07597 20.5879C3.08181 20.5771 3.08739 20.5662 3.09297 20.5553L4.17207 18.4038C4.28483 18.179 4.33145 17.9269 4.30648 17.6766L4.0876 15.4794C4.02571 14.8506 4.27699 14.2301 4.76827 13.8124L6.62764 12.2038C6.81783 12.0392 6.95742 11.824 7.03006 11.5834L7.66996 9.46516C7.86984 8.80363 8.41291 8.29495 9.0872 8.1377C9.12664 8.12854 9.16556 8.11752 9.20394 8.10477L11.2769 7.41666C11.5155 7.33751 11.7268 7.19221 11.8861 6.99764L13.2912 5.28157C13.7091 4.77064 14.3514 4.5094 15.0086 4.58391C15.0262 4.5859 15.0437 4.58749 15.0612 4.58882L17.4422 4.76108C17.6931 4.77887 17.9438 4.72575 18.1655 4.60702L20.094 3.57334C20.6633 3.26973 21.3434 3.27132 21.9133 3.57705C21.9241 3.58277 21.9349 3.58848 21.9458 3.59392L24.0973 4.67302C24.3221 4.78578 24.5745 4.83253 24.8244 4.80743L27.0217 4.58855C27.6515 4.5264 28.2709 4.77795 28.6887 5.26922L30.2974 7.12859C30.4619 7.31878 30.6769 7.45837 30.9177 7.53102L33.0359 8.17091C33.6975 8.37079 34.2062 8.91386 34.3634 9.58815C34.3726 9.62759 34.3836 9.66651 34.3964 9.70502L35.0845 11.778C35.1636 12.0166 35.3089 12.2278 35.5035 12.387L37.2195 13.7923C37.7303 14.2102 37.9912 14.8523 37.9172 15.5099C37.9152 15.5273 37.9136 15.5449 37.9123 15.5625L37.7402 17.9434C37.7221 18.1941 37.7755 18.4449 37.8942 18.6665L38.9279 20.5951C39.2314 21.1645 39.2299 21.8445 38.9241 22.4145Z" fill="#ACB6E5"/>
<path d="M22.4724 25.4856H22.3282V16.1889C22.3282 15.7144 22.0751 15.2759 21.6641 15.0387C21.2533 14.8015 20.7471 14.8015 20.336 15.0387L18.8635 15.8889C18.2283 16.2556 18.0106 17.0679 18.3774 17.7031C18.6489 18.1734 19.1647 18.4147 19.6719 18.3596V25.4855H19.5276C18.7941 25.4855 18.1995 26.0801 18.1995 26.8136C18.1995 27.5471 18.7941 28.1418 19.5276 28.1418H22.4724C23.206 28.1418 23.8006 27.5471 23.8006 26.8136C23.8006 26.0801 23.206 25.4856 22.4724 25.4856Z" fill="#ACB6E5"/>
<path d="M21.0005 32.9121H20.9995C20.2659 32.9121 19.6719 33.5067 19.6719 34.2402C19.6719 34.9738 20.267 35.5684 21.0005 35.5684C21.7341 35.5684 22.3287 34.9738 22.3287 34.2402C22.3287 33.5067 21.7341 32.9121 21.0005 32.9121Z" fill="#ACB6E5"/>
</svg>
