<svg width="81" height="81" viewBox="0 0 81 81" fill="none" xmlns="http://www.w3.org/2000/svg">
<path d="M48.6208 5.28565L43.5551 8.21034C42.7474 6.81148 40.9587 6.3322 39.5599 7.13983C38.161 7.94746 37.6817 9.73618 38.4893 11.135L16.5379 23.8087C15.7303 22.4099 13.9415 21.9306 12.5427 22.7382C11.1438 23.5458 10.6645 25.3346 11.4722 26.7334L6.40644 29.6581C4.07777 31.0063 3.27966 33.9849 4.62225 36.3168L27.5324 75.9983C28.8805 78.327 31.8592 79.1251 34.1911 77.7825L76.4054 53.41C78.7341 52.0618 79.5322 49.0832 78.1896 46.7513L55.2795 7.06983C53.9313 4.74117 50.9527 3.94305 48.6208 5.28565ZM39.8878 13.5573L40.4391 14.5122C41.2468 15.911 43.0355 16.3903 44.4344 15.5827C45.8332 14.7751 46.3125 12.9864 45.5049 11.5875L44.9536 10.6326C45.8083 10.8753 46.5365 11.4383 46.9867 12.2044C47.8608 14.0462 47.1739 16.2505 45.4084 17.2698C43.6429 18.2891 41.3905 17.7818 40.2324 16.104C39.7941 15.3311 39.6707 14.4189 39.8878 13.5573ZM40.1779 10.1601C39.9087 9.69385 40.0685 9.09761 40.5348 8.8284C41.001 8.55919 41.5973 8.71895 41.8665 9.18524L43.8163 12.5624C44.0855 13.0287 43.9257 13.6249 43.4595 13.8941C42.9932 14.1633 42.3969 14.0036 42.1277 13.5373L40.1779 10.1601ZM12.8707 29.1557L13.422 30.1106C14.2296 31.5094 16.0183 31.9887 17.4172 31.1811C18.816 30.3734 19.2953 28.5847 18.4877 27.1859L17.9364 26.231C18.7911 26.4737 19.5194 27.0367 19.9696 27.8027C20.9274 29.6381 20.2224 31.9024 18.3921 32.8697C16.6392 33.9712 14.3258 33.4495 13.2153 31.7023C12.7769 30.9294 12.6535 30.0173 12.8707 29.1557ZM13.1607 25.7585C12.8915 25.2922 13.0513 24.696 13.5176 24.4268C13.9839 24.1576 14.5801 24.3173 14.8493 24.7836L16.7991 28.1608C17.0683 28.6271 16.9086 29.2233 16.4423 29.4925C15.976 29.7617 15.3797 29.602 15.1105 29.1357L13.1607 25.7585ZM7.38134 31.3467L10.8716 29.3316C10.7192 30.4884 10.9492 31.6633 11.5267 32.6772C13.176 35.3565 16.6815 36.1975 19.367 34.5582C22.1294 33.0522 23.1538 29.5959 21.6581 26.8278C21.0688 25.8208 20.1663 25.0341 19.0882 24.5877L37.8888 13.7332C37.7364 14.89 37.9664 16.065 38.5439 17.0789C40.2398 19.6946 43.6874 20.5237 46.3871 18.965C49.0869 17.4063 50.0927 14.006 48.6753 11.2295C48.086 10.2224 47.1835 9.43572 46.1054 8.98934L49.5957 6.97422C50.9945 6.16659 52.7833 6.64587 53.5909 8.04473L57.4905 14.799L10.2104 42.0962L6.31083 35.3419C5.50319 33.943 5.98248 32.1543 7.38134 31.3467ZM75.4305 51.7214L33.2162 76.0939C31.8173 76.9015 30.0286 76.4222 29.2209 75.0234L11.1853 43.7848L58.4654 16.4876L76.501 47.7262C77.3086 49.1251 76.8294 50.9138 75.4305 51.7214Z" fill="#F15F79"/>
<path d="M21.0901 41.4433L17.713 43.3931C16.7804 43.9316 16.4609 45.124 16.9993 46.0566L18.4617 48.5895C19.0001 49.5221 20.1926 49.8416 21.1251 49.3032L24.5023 47.3534C25.4349 46.8149 25.7544 45.6225 25.216 44.6899L23.7536 42.157C23.2152 41.2244 22.0227 40.9049 21.0901 41.4433ZM20.1502 47.6146L18.6879 45.0817L22.065 43.1319L23.5274 45.6648L20.1502 47.6146Z" fill="#F15F79"/>
<path d="M29.5335 36.5687L26.1563 38.5185C25.2238 39.0569 24.9043 40.2494 25.4427 41.182L26.905 43.7148C27.4434 44.6474 28.6359 44.9669 29.5685 44.4285L32.9456 42.4787C33.8782 41.9403 34.1977 40.7478 33.6593 39.8152L32.197 37.2824C31.6586 36.3498 30.4661 36.0303 29.5335 36.5687ZM28.5936 42.7399L27.1312 40.2071L30.5084 38.2573L31.9707 40.7901L28.5936 42.7399Z" fill="#F15F79"/>
<path d="M37.9759 31.6942L34.5987 33.644C33.6662 34.1824 33.3466 35.3749 33.8851 36.3075L35.3474 38.8403C35.8858 39.7729 37.0783 40.0924 38.0109 39.554L41.388 37.6042C42.3206 37.0658 42.6401 35.8733 42.1017 34.9407L40.6394 32.4079C40.1009 31.4753 38.9085 31.1558 37.9759 31.6942ZM37.036 37.8654L35.5736 35.3326L38.9508 33.3828L40.4131 35.9156L37.036 37.8654Z" fill="#F15F79"/>
<path d="M46.4192 26.8198L43.0421 28.7696C42.1095 29.308 41.79 30.5005 42.3284 31.4331L43.7908 33.9659C44.3292 34.8985 45.5217 35.218 46.4542 34.6796L49.8314 32.7298C50.764 32.1914 51.0835 30.9989 50.5451 30.0663L49.0827 27.5335C48.5443 26.6009 47.3518 26.2814 46.4192 26.8198ZM45.4793 32.991L44.017 30.4582L47.3941 28.5084L48.8565 31.0412L45.4793 32.991Z" fill="#F15F79"/>
<path d="M54.8616 21.9452L51.4845 23.895C50.5519 24.4334 50.2324 25.6259 50.7708 26.5584L52.2331 29.0913C52.7716 30.0239 53.964 30.3434 54.8966 29.805L58.2738 27.8552C59.2063 27.3168 59.5259 26.1243 58.9874 25.1917L57.5251 22.6589C56.9867 21.7263 55.7942 21.4068 54.8616 21.9452ZM53.9217 28.1164L52.4594 25.5835L55.8365 23.6338L57.2989 26.1666L53.9217 28.1164Z" fill="#F15F79"/>
<path d="M25.4778 49.0419L22.1007 50.9917C21.1681 51.5301 20.8486 52.7226 21.387 53.6551L22.8494 56.188C23.3878 57.1206 24.5803 57.4401 25.5128 56.9017L28.89 54.9519C29.8226 54.4134 30.1421 53.221 29.6037 52.2884L28.1413 49.7555C27.6029 48.823 26.4104 48.5034 25.4778 49.0419ZM24.5379 55.2131L23.0756 52.6802L26.4527 50.7304L27.9151 53.2633L24.5379 55.2131Z" fill="#F15F79"/>
<path d="M33.9202 44.1672L30.5431 46.117C29.6105 46.6554 29.291 47.8479 29.8294 48.7805L31.2917 51.3134C31.8302 52.2459 33.0226 52.5655 33.9552 52.027L37.3324 50.0772C38.2649 49.5388 38.5845 48.3463 38.046 47.4138L36.5837 44.8809C36.0453 43.9483 34.8528 43.6288 33.9202 44.1672ZM32.9803 50.3385L31.518 47.8056L34.8951 45.8558L36.3575 48.3887L32.9803 50.3385Z" fill="#F15F79"/>
<path d="M42.3636 39.2927L38.9864 41.2425C38.0539 41.7809 37.7343 42.9734 38.2728 43.906L39.7351 46.4388C40.2735 47.3714 41.466 47.6909 42.3986 47.1525L45.7757 45.2027C46.7083 44.6643 47.0278 43.4718 46.4894 42.5392L45.027 40.0064C44.4886 39.0738 43.2961 38.7543 42.3636 39.2927ZM41.4237 45.4639L39.9613 42.9311L43.3385 40.9813L44.8008 43.5141L41.4237 45.4639Z" fill="#F15F79"/>
<path d="M50.806 34.4183L47.4288 36.3681C46.4962 36.9065 46.1767 38.099 46.7151 39.0316L48.1775 41.5645C48.7159 42.497 49.9084 42.8166 50.841 42.2781L54.2181 40.3283C55.1507 39.7899 55.4702 38.5974 54.9318 37.6649L53.4694 35.132C52.931 34.1994 51.7385 33.8799 50.806 34.4183ZM49.8661 40.5896L48.4037 38.0567L51.7809 36.1069L53.2432 38.6398L49.8661 40.5896Z" fill="#F15F79"/>
<path d="M59.2493 29.5437L55.8722 31.4935C54.9396 32.0319 54.6201 33.2244 55.1585 34.157L56.6208 36.6898C57.1593 37.6224 58.3517 37.9419 59.2843 37.4035L62.6615 35.4537C63.594 34.9153 63.9136 33.7228 63.3751 32.7902L61.9128 30.2574C61.3744 29.3248 60.1819 29.0053 59.2493 29.5437ZM58.3094 35.7149L56.8471 33.1821L60.2242 31.2323L61.6866 33.7651L58.3094 35.7149Z" fill="#F15F79"/>
<path d="M29.8646 56.6404L26.4874 58.5902C25.5548 59.1286 25.2353 60.3211 25.7737 61.2536L27.2361 63.7865C27.7745 64.7191 28.967 65.0386 29.8995 64.5002L33.2767 62.5504C34.2093 62.012 34.5288 60.8195 33.9904 59.8869L32.528 57.354C31.9896 56.4215 30.7971 56.1019 29.8646 56.6404ZM28.9246 62.8116L27.4623 60.2787L30.8394 58.3289L32.3018 60.8618L28.9246 62.8116Z" fill="#F15F79"/>
<path d="M38.3079 51.7657L34.9308 53.7155C33.9982 54.254 33.6787 55.4464 34.2171 56.379L35.6794 58.9119C36.2179 59.8444 37.4103 60.164 38.3429 59.6255L41.7201 57.6757C42.6526 57.1373 42.9722 55.9448 42.4337 55.0123L40.9714 52.4794C40.433 51.5468 39.2405 51.2273 38.3079 51.7657ZM37.368 57.937L35.9057 55.4041L39.2828 53.4543L40.7452 55.9872L37.368 57.937Z" fill="#F15F79"/>
<path d="M46.7503 46.8913L43.3731 48.8411C42.4406 49.3796 42.121 50.572 42.6595 51.5046L44.1218 54.0375C44.6602 54.97 45.8527 55.2896 46.7853 54.7511L50.1624 52.8013C51.095 52.2629 51.4145 51.0704 50.8761 50.1379L49.4138 47.605C48.8753 46.6724 47.6829 46.3529 46.7503 46.8913ZM45.8104 53.0626L44.348 50.5297L47.7252 48.5799L49.1875 51.1128L45.8104 53.0626Z" fill="#F15F79"/>
<path d="M55.1927 42.017L51.8155 43.9668C50.883 44.5052 50.5634 45.6977 51.1019 46.6302L52.5642 49.1631C53.1026 50.0957 54.2951 50.4152 55.2277 49.8768L58.6048 47.927C59.5374 47.3885 59.8569 46.1961 59.3185 45.2635L57.8562 42.7306C57.3177 41.7981 56.1253 41.4785 55.1927 42.017ZM54.2528 48.1882L52.7904 45.6553L56.1676 43.7055L57.6299 46.2384L54.2528 48.1882Z" fill="#F15F79"/>
<path d="M63.636 37.1423L60.2589 39.0921C59.3263 39.6305 59.0068 40.823 59.5452 41.7556L61.0076 44.2884C61.546 45.221 62.7385 45.5405 63.671 45.0021L67.0482 43.0523C67.9808 42.5139 68.3003 41.3214 67.7619 40.3889L66.2995 37.856C65.7611 36.9234 64.5686 36.6039 63.636 37.1423ZM62.6961 43.3135L61.2338 40.7807L64.6109 38.8309L66.0733 41.3638L62.6961 43.3135Z" fill="#F15F79"/>
<path d="M34.2513 64.239L30.8741 66.1888C29.9415 66.7272 29.622 67.9197 30.1604 68.8523L31.6228 71.3851C32.1612 72.3177 33.3537 72.6372 34.2863 72.0988L37.6634 70.149C38.596 69.6106 38.9155 68.4181 38.3771 67.4855L36.9147 64.9527C36.3763 64.0201 35.1838 63.7006 34.2513 64.239ZM33.3114 70.4102L31.849 67.8774L35.2262 65.9276L36.6885 68.4604L33.3114 70.4102Z" fill="#F15F79"/>
<path d="M42.6946 59.3644L39.3175 61.3142C38.3849 61.8526 38.0654 63.0451 38.6038 63.9776L40.0662 66.5105C40.6046 67.4431 41.7971 67.7626 42.7296 67.2242L46.1068 65.2744C47.0394 64.7359 47.3589 63.5435 46.8205 62.6109L45.3581 60.078C44.8197 59.1455 43.6272 58.8259 42.6946 59.3644ZM41.7547 65.5356L40.2924 63.0027L43.6695 61.0529L45.1319 63.5858L41.7547 65.5356Z" fill="#F15F79"/>
<path d="M51.137 54.49L47.7599 56.4398C46.8273 56.9782 46.5078 58.1707 47.0462 59.1032L48.5085 61.6361C49.047 62.5687 50.2394 62.8882 51.172 62.3498L54.5492 60.4C55.4817 59.8616 55.8013 58.6691 55.2628 57.7365L53.8005 55.2036C53.2621 54.2711 52.0696 53.9516 51.137 54.49ZM50.1971 60.6612L48.7348 58.1283L52.1119 56.1785L53.5743 58.7114L50.1971 60.6612Z" fill="#F15F79"/>
<path d="M59.5804 49.6155L56.2032 51.5653C55.2706 52.1037 54.9511 53.2962 55.4895 54.2287L56.9519 56.7616C57.4903 57.6942 58.6828 58.0137 59.6154 57.4753L62.9925 55.5255C63.9251 54.9871 64.2446 53.7946 63.7062 52.862L62.2438 50.3291C61.7054 49.3966 60.5129 49.077 59.5804 49.6155ZM58.6405 55.7867L57.1781 53.2538L60.5553 51.304L62.0176 53.8369L58.6405 55.7867Z" fill="#F15F79"/>
<path d="M68.0228 44.7409L64.6456 46.6907C63.713 47.2292 63.3935 48.4216 63.9319 49.3542L65.3943 51.8871C65.9327 52.8197 67.1252 53.1392 68.0578 52.6008L71.4349 50.651C72.3675 50.1125 72.687 48.9201 72.1486 47.9875L70.6862 45.4546C70.1478 44.522 68.9553 44.2025 68.0228 44.7409ZM67.0829 50.9122L65.6205 48.3793L68.9977 46.4295L70.46 48.9624L67.0829 50.9122Z" fill="#F15F79"/>
</svg>
