<svg width="56" height="54" viewBox="0 0 56 54" fill="none" xmlns="http://www.w3.org/2000/svg">
<g clip-path="url(#clip0)">
<path d="M55.1534 44.0307L32.1269 6.17845C31.0682 4.47226 29.5463 3.46118 27.9583 3.46118C26.3041 3.46118 24.7822 4.47226 23.7897 6.17845L0.895467 44.0307C-0.163225 45.7369 -0.295561 47.5063 0.564626 48.8333C1.35864 50.1603 3.01285 50.9186 5.13023 50.9186H50.9186C52.9699 50.9186 54.6241 50.1603 55.4843 48.8333C56.2783 47.5063 56.1459 45.7369 55.1534 44.0307ZM52.9699 47.5063C52.639 48.0118 51.9112 48.2646 50.8525 48.2646H5.06407C4.00537 48.2646 3.21135 47.9486 2.94668 47.5063C2.61584 47.0007 2.74818 46.2424 3.27752 45.3577L26.1717 7.50549C26.7011 6.6208 27.3628 6.11526 27.9583 6.11526C28.5538 6.11526 29.2155 6.6208 29.7448 7.50549L52.639 45.3577C53.1684 46.2424 53.3007 47.0007 52.9699 47.5063Z" fill="#FF9900"/>
<path d="M27.9589 15.9102C27.1648 15.9102 26.5693 16.4789 26.5693 17.2372V34.8047C26.5693 35.563 27.1648 36.1317 27.9589 36.1317C28.7529 36.1317 29.3484 35.563 29.3484 34.8047V17.2372C29.3484 16.4789 28.7529 15.9102 27.9589 15.9102Z" fill="#FF9900"/>
<path d="M27.958 43.7779C29.3101 43.7779 30.4062 42.7311 30.4062 41.4398C30.4062 40.1485 29.3101 39.1017 27.958 39.1017C26.6059 39.1017 25.5098 40.1485 25.5098 41.4398C25.5098 42.7311 26.6059 43.7779 27.958 43.7779Z" fill="#FF9900"/>
</g>
<defs>
<clipPath id="clip0">
<rect width="56" height="53.4814" fill="white" transform="translate(0 0.449219)"/>
</clipPath>
</defs>
</svg>
