<svg width="66" height="67" viewBox="0 0 66 67" fill="none" xmlns="http://www.w3.org/2000/svg">
<g clip-path="url(#clip0)">
<path d="M58.674 15.7404C59.5952 13.8527 60.2261 11.895 60.2261 10.0716C60.2261 4.8986 56.0174 0.689941 50.8443 0.689941C47.4951 0.689941 44.5521 2.45531 42.8918 5.10305C41.0719 4.57054 39.1944 4.20032 37.3027 4.00554C36.7629 3.94947 36.2786 4.34302 36.2229 4.88378C36.1672 5.42441 36.5605 5.90781 37.1012 5.96337C38.7623 6.1343 40.4121 6.44831 42.0164 6.89755C41.6587 7.88948 41.4627 8.95799 41.4627 10.0716C41.4627 16.7013 49.7939 25.1087 50.1484 25.4633C50.5275 25.8423 51.1612 25.8423 51.5402 25.4633C51.7641 25.2392 55.1687 21.8038 57.6477 17.6327C59.6706 20.331 61.189 23.2961 62.1724 26.4413L47.8984 27.9438C47.6436 27.9708 47.4093 28.0958 47.2453 28.2926C47.0975 28.47 43.6059 32.6662 41.8179 35.3536C39.7954 35.4882 37.9458 36.2643 36.4735 37.483L36.288 36.3703L35.0196 28.8036C34.9809 28.5725 34.861 28.363 34.6817 28.2123L27.0714 21.8266C26.9262 21.7048 26.7488 21.6275 26.5608 21.6041L18.763 20.6293C17.8048 17.8896 15.6107 15.7274 12.8515 14.8123C18.0933 9.36984 25.0786 6.19334 32.6513 5.83975C33.1943 5.81448 33.6137 5.35377 33.5885 4.81095C33.5632 4.26812 33.1025 3.84595 32.5597 3.8738C28.2836 4.07334 24.1718 5.11864 20.3382 6.98018C16.6225 8.78461 13.3401 11.2686 10.5821 14.3632C10.3585 14.3472 10.1336 14.3361 9.90608 14.3361C4.73307 14.3361 0.524414 18.5447 0.524414 23.7178C0.524414 26.055 1.5603 28.6128 2.91666 30.9613C2.72265 32.3779 2.62378 33.8253 2.62378 35.2645C2.62378 43.6586 5.89272 51.5502 11.8281 57.4856C17.7634 63.421 25.6551 66.6899 34.0491 66.6899C42.4432 66.6899 50.3347 63.421 56.2702 57.4856C62.2057 51.5502 65.4745 43.6585 65.4745 35.2645C65.4745 28.0917 63.1228 21.343 58.674 15.7404ZM50.8443 23.3377C48.8786 21.205 43.4307 14.8619 43.4307 10.0716C43.4307 5.98386 46.7564 2.65808 50.8443 2.65808C54.9321 2.65808 58.2578 5.98373 58.2578 10.0716C58.2578 14.862 52.81 21.2051 50.8443 23.3377ZM42.4467 37.2983C46.5344 37.2983 49.8602 40.6239 49.8602 44.7118C49.8602 49.5021 44.4123 55.8452 42.4467 57.9779C40.481 55.8452 35.0331 49.5021 35.0331 44.7118C35.0331 40.6241 38.3589 37.2983 42.4467 37.2983ZM2.49243 23.7178C2.49243 19.63 5.81808 16.3042 9.90595 16.3042C13.9938 16.3042 17.3195 19.63 17.3195 23.7178C17.3195 28.508 11.8718 34.8511 9.90595 36.9839C7.94013 34.8511 2.49243 28.508 2.49243 23.7178ZM4.59179 35.2645C4.59179 34.7202 4.60739 34.1745 4.63717 33.63C6.7948 36.674 9.03004 38.9295 9.21012 39.1094C9.58897 39.4884 10.2231 39.4884 10.6018 39.1094C10.7869 38.9243 13.1459 36.5441 15.3586 33.3683L19.1976 42.0062C19.2798 42.1912 19.417 42.3463 19.5907 42.4504L25.2578 45.8507L22.7128 53.563L16.1201 58.6202C9.11511 53.2299 4.59179 44.7661 4.59179 35.2645ZM17.7927 59.8173L24.1509 54.94C24.3075 54.8199 24.4244 54.6551 24.4864 54.4676L27.3731 45.72C27.5174 45.283 27.3395 44.8045 26.945 44.5678L20.8698 40.9226L16.6376 31.3999C18.1186 28.9343 19.2878 26.2013 19.2878 23.7178C19.2878 23.3638 19.2662 23.0148 19.2279 22.6709L26.0286 23.521L33.1386 29.487L34.3468 36.6947L34.7829 39.311C33.7026 40.8393 33.0651 42.7019 33.0651 44.7119C33.0651 46.0201 33.3904 47.3974 33.9138 48.7685L31.1431 56.6364L21.7415 62.024C20.3648 61.3882 19.0453 60.6494 17.7927 59.8173ZM34.0491 64.7218C30.5387 64.7218 27.1704 64.1034 24.0457 62.9718L32.439 58.162C32.6439 58.0446 32.7996 57.8577 32.8779 57.6351L35.1017 51.3204C37.5926 55.9091 41.5102 59.8627 41.7508 60.1035C42.1299 60.4825 42.7636 60.4825 43.1426 60.1035C43.4189 59.8272 48.5362 54.6632 50.7839 49.26L58.8292 51.1756C53.5826 59.3184 44.4352 64.7218 34.0491 64.7218ZM51.4337 47.3916C51.6838 46.4826 51.8285 45.5818 51.8285 44.7119C51.8285 40.111 48.4983 36.2758 44.1224 35.483C45.6335 33.3708 47.7753 30.744 48.5038 29.8592L62.7022 28.3647C63.2343 30.5961 63.5063 32.9057 63.5063 35.2644C63.5063 40.3849 62.192 45.204 59.8843 49.4036L51.4337 47.3916Z" fill="#6DD5ED"/>
<path d="M42.4476 39.5288C39.5897 39.5288 37.2646 41.8539 37.2646 44.7117C37.2646 47.5696 39.5897 49.8947 42.4476 49.8947C45.3054 49.8947 47.6305 47.5696 47.6305 44.7117C47.6305 41.8539 45.3054 39.5288 42.4476 39.5288ZM42.4476 47.9264C40.6749 47.9264 39.2329 46.4842 39.2329 44.7117C39.2329 42.9393 40.675 41.4971 42.4476 41.4971C44.2203 41.4971 45.6623 42.9393 45.6623 44.7117C45.6623 46.4842 44.2203 47.9264 42.4476 47.9264Z" fill="#6DD5ED"/>
<path d="M50.845 4.88879C47.9872 4.88879 45.6621 7.21388 45.6621 10.0717C45.6621 12.9296 47.9872 15.2547 50.845 15.2547C53.7029 15.2547 56.028 12.9296 56.028 10.0717C56.028 7.21388 53.7029 4.88879 50.845 4.88879ZM50.845 13.2864C49.0723 13.2864 47.6304 11.8442 47.6304 10.0717C47.6304 8.29914 49.0725 6.85706 50.845 6.85706C52.6178 6.85706 54.0597 8.29927 54.0597 10.0717C54.0598 11.8442 52.6178 13.2864 50.845 13.2864Z" fill="#6DD5ED"/>
<path d="M9.90657 18.5348C7.04871 18.5348 4.72363 20.8599 4.72363 23.7177C4.72363 26.5756 7.04871 28.9007 9.90657 28.9007C12.7644 28.9007 15.0895 26.5756 15.0895 23.7177C15.0895 20.8599 12.7644 18.5348 9.90657 18.5348ZM9.90657 26.9325C8.13398 26.9325 6.6919 25.4903 6.6919 23.7179C6.6919 21.9453 8.1341 20.5032 9.90657 20.5032C11.6792 20.5032 13.1212 21.9454 13.1212 23.7179C13.1212 25.4903 11.6792 26.9325 9.90657 26.9325Z" fill="#6DD5ED"/>
</g>
<defs>
<clipPath id="clip0">
<rect width="66" height="66" fill="white" transform="translate(0 0.689941)"/>
</clipPath>
</defs>
</svg>
