<svg width="62" height="51" viewBox="0 0 62 51" fill="none" xmlns="http://www.w3.org/2000/svg">
<path d="M42.0661 19.6588C39.329 16.6457 35.3817 14.7511 31 14.7511C26.6185 14.7511 22.6712 16.6456 19.9341 19.6585C19.8778 19.708 19.8268 19.7645 19.783 19.8288C17.4603 22.4644 16.0488 25.9214 16.0488 29.7023C16.0488 33.4832 17.4603 36.9403 19.7831 39.5759C19.8267 39.64 19.8777 39.6964 19.9338 39.7457C22.6708 42.7588 26.6183 44.6534 30.9999 44.6534C35.3845 44.6534 39.3341 42.7562 42.0714 39.7397C42.1227 39.6938 42.1694 39.6418 42.21 39.5833C44.5367 36.9467 45.9509 33.4869 45.9509 29.7023C45.9509 25.9214 44.5394 22.4644 42.2167 19.8288C42.1732 19.7646 42.1222 19.7081 42.0661 19.6588ZM41.2378 37.9205C40.273 37.4477 39.1925 37.0468 38.03 36.726C38.5369 34.8918 38.8481 32.8229 38.9153 30.6105H44.1026C43.9136 33.3659 42.871 35.89 41.2378 37.9205ZM17.8973 30.6105H23.0846C23.1518 32.823 23.4632 34.8919 23.9699 36.726C22.8074 37.0468 21.7269 37.4477 20.7622 37.9205C19.129 35.89 18.0865 33.3659 17.8973 30.6105ZM20.7623 21.4839C21.727 21.9567 22.8076 22.3576 23.9701 22.6785C23.4632 24.5127 23.1518 26.5816 23.0847 28.7941H17.8974C18.0865 26.0386 19.129 23.5144 20.7623 21.4839ZM30.0918 21.7556C28.7937 21.7122 27.5265 21.5764 26.3259 21.3562C26.4876 20.947 26.6605 20.5525 26.8475 20.1786C27.7619 18.3499 28.9089 17.1435 30.0918 16.7286V21.7556ZM30.0918 23.5741V28.7941H24.9034C24.9698 26.764 25.2578 24.8263 25.744 23.094C27.1288 23.3633 28.5946 23.5266 30.0918 23.5741ZM30.0918 30.6105V35.8305C28.5946 35.878 27.1288 36.0413 25.744 36.3106C25.2578 34.5783 24.9697 32.6406 24.9034 30.6105H30.0918ZM30.0918 37.649V42.6761C28.9089 42.2611 27.7619 41.0547 26.8475 39.226C26.6605 38.8522 26.4877 38.4576 26.3259 38.0485C27.5265 37.8282 28.7937 37.6923 30.0918 37.649ZM31.9082 37.649C33.2065 37.6924 34.4736 37.8282 35.6741 38.0485C35.5125 38.4576 35.3395 38.8522 35.1526 39.226C34.2382 41.0547 33.0912 42.2611 31.9082 42.6761V37.649ZM31.9082 35.8305V30.6105H37.0966C37.0303 32.6408 36.7423 34.5783 36.2561 36.3106C34.8713 36.0412 33.4054 35.8778 31.9082 35.8305ZM31.9082 28.7941V23.5741C33.4056 23.5266 34.8713 23.3633 36.2561 23.094C36.7423 24.8265 37.0304 26.764 37.0966 28.7941H31.9082ZM31.9082 21.7556V16.7284C33.0912 17.1434 34.2382 18.3498 35.1526 20.1785C35.3395 20.5523 35.5125 20.947 35.6741 21.356C34.4736 21.5764 33.2065 21.7122 31.9082 21.7556ZM35.5463 17.3791C37.189 17.9871 38.6776 18.915 39.937 20.0862C39.1803 20.4212 38.3513 20.7096 37.4691 20.9496C36.9436 19.5571 36.2932 18.3495 35.5463 17.3791ZM24.531 20.9496C23.6488 20.7098 22.8197 20.4213 22.0631 20.0862C23.3224 18.9149 24.811 17.987 26.4538 17.3791C25.7069 18.3495 25.0565 19.5571 24.531 20.9496ZM24.531 38.4548C25.0564 39.8474 25.7069 41.055 26.4538 42.0254C24.811 41.4174 23.3224 40.4895 22.0631 39.3182C22.8198 38.9832 23.6488 38.6947 24.531 38.4548ZM37.469 38.4548C38.3511 38.6947 39.1803 38.9832 39.937 39.3181C38.6775 40.4895 37.189 41.4174 35.5463 42.0253C36.2932 41.055 36.9436 39.8474 37.469 38.4548ZM38.9154 28.7941C38.8482 26.5816 38.5369 24.5127 38.0301 22.6785C39.1926 22.3577 40.2731 21.9567 41.2379 21.4839C42.8711 23.5144 43.9137 26.0386 44.1029 28.794H38.9154V28.7941Z" fill="#6EC446"/>
<path d="M62 9.6411C62 9.63952 61.9998 9.63795 61.9998 9.63637V5.62865C61.9998 2.91555 59.7926 0.708252 57.0795 0.708252H4.92028C2.2073 0.708252 0 2.91555 0 5.62865V45.7514C0 48.4645 2.2073 50.6718 4.92028 50.6718H49.2448C49.7465 50.6718 50.153 50.2653 50.153 49.7636C50.153 49.2619 49.7465 48.8554 49.2448 48.8554H4.92028C3.20874 48.8554 1.81641 47.4629 1.81641 45.7514V10.5493H9.12211C9.62381 10.5493 10.0303 10.1428 10.0303 9.6411C10.0303 9.1394 9.62381 8.73289 9.12211 8.73289H1.81641V5.62865C1.81641 3.91711 3.20874 2.52466 4.92028 2.52466H57.0795C58.791 2.52466 60.1833 3.91711 60.1833 5.62865V8.73289H12.7549C12.2532 8.73289 11.8467 9.1394 11.8467 9.6411C11.8467 10.1428 12.2532 10.5493 12.7549 10.5493H60.1833V45.7514C60.1833 47.4629 58.791 48.8554 57.0795 48.8554H52.8776C52.376 48.8554 51.9694 49.2619 51.9694 49.7636C51.9694 50.2653 52.376 50.6718 52.8776 50.6718H57.0795C59.7925 50.6718 61.9998 48.4645 61.9998 45.7514V9.64582C61.9998 9.64412 62 9.64267 62 9.6411Z" fill="#6EC446"/>
<path d="M52.74 38.7371C52.9858 38.7371 53.2309 38.6379 53.41 38.4422C55.5998 36.0507 56.8057 32.9469 56.8057 29.7021C56.8057 26.4577 55.5999 23.3539 53.4103 20.9626C53.0714 20.5925 52.4971 20.567 52.1271 20.906C51.7571 21.2447 51.7318 21.8192 52.0706 22.1891C53.9528 24.2448 54.9893 26.913 54.9893 29.7021C54.9893 32.4915 53.9526 35.1597 52.0705 37.2154C51.7317 37.5855 51.757 38.1599 52.127 38.4986C52.3012 38.6584 52.5209 38.7371 52.74 38.7371Z" fill="#6EC446"/>
<path d="M48.4665 35.1273C48.0843 35.4522 48.0378 36.0253 48.3628 36.4073C48.5424 36.6187 48.798 36.7274 49.0553 36.7274C49.2632 36.7274 49.4722 36.6563 49.643 36.5111C51.645 34.8094 52.7932 32.3277 52.7932 29.7024C52.7932 27.0773 51.6452 24.5957 49.6433 22.894C49.2614 22.5689 48.688 22.6155 48.3632 22.9977C48.0382 23.3797 48.0847 23.953 48.4669 24.2778C50.0619 25.6338 50.9768 27.611 50.9768 29.7023C50.9767 31.7938 50.0617 33.771 48.4665 35.1273Z" fill="#6EC446"/>
<path d="M8.59005 20.9626C6.40031 23.354 5.19434 26.4579 5.19434 29.7026C5.19434 32.9471 6.40019 36.0509 8.58981 38.4422C8.7689 38.6379 9.014 38.7372 9.25982 38.7372C9.47888 38.7372 9.69854 38.6585 9.87292 38.4988C10.243 38.1601 10.2683 37.5856 9.92947 37.2157C8.04731 35.16 7.01074 32.4918 7.01074 29.7026C7.01074 26.9132 8.04743 24.2451 9.92959 22.1892C10.2684 21.8193 10.2431 21.2448 9.87304 20.9061C9.50346 20.5674 8.92875 20.5926 8.59005 20.9626Z" fill="#6EC446"/>
<path d="M13.5326 24.2778C13.9148 23.9529 13.9613 23.3797 13.6363 22.9977C13.3114 22.6155 12.7382 22.5691 12.3562 22.894C10.3543 24.5958 9.20605 27.0775 9.20605 29.7027C9.20605 32.3277 10.354 34.8093 12.3559 36.511C12.5267 36.6564 12.7358 36.7273 12.9437 36.7273C13.2009 36.7273 13.4564 36.6186 13.6361 36.4073C13.9612 36.0252 13.9147 35.452 13.5325 35.1272C11.9374 33.7712 11.0226 31.794 11.0226 29.7027C11.0225 27.6111 11.9374 25.6339 13.5326 24.2778Z" fill="#6EC446"/>
<path d="M4.9209 4.72058C4.41921 4.72058 4.0127 5.12709 4.0127 5.62878C4.0127 6.13048 4.41921 6.53699 4.9209 6.53699H6.92694C7.42863 6.53699 7.83514 6.13048 7.83514 5.62878C7.83514 5.12709 7.42863 4.72058 6.92694 4.72058H4.9209Z" fill="#6EC446"/>
<path d="M10.9385 6.53699H12.9445C13.4462 6.53699 13.8527 6.13048 13.8527 5.62878C13.8527 5.12709 13.4462 4.72058 12.9445 4.72058H10.9385C10.4368 4.72058 10.0303 5.12709 10.0303 5.62878C10.0303 6.13048 10.4368 6.53699 10.9385 6.53699Z" fill="#6EC446"/>
<path d="M18.9631 6.53699C19.4648 6.53699 19.8713 6.13048 19.8713 5.62878C19.8713 5.12709 19.4648 4.72058 18.9631 4.72058H16.957C16.4553 4.72058 16.0488 5.12709 16.0488 5.62878C16.0488 6.13048 16.4553 6.53699 16.957 6.53699H18.9631Z" fill="#6EC446"/>
<path d="M47.0486 6.53699C47.5503 6.53699 47.9568 6.13048 47.9568 5.62878C47.9568 5.12709 47.5503 4.72058 47.0486 4.72058H26.9873C26.4856 4.72058 26.0791 5.12709 26.0791 5.62878C26.0791 6.13048 26.4856 6.53699 26.9873 6.53699H47.0486Z" fill="#6EC446"/>
</svg>
