<svg width="84" height="84" viewBox="0 0 84 84" fill="none" xmlns="http://www.w3.org/2000/svg">
<g clip-path="url(#clip0)">
<path d="M53.7973 11.9739L10.4033 37.0275C7.90326 38.4709 7.04354 41.6794 8.48715 44.1798L23.584 70.3283C25.0276 72.8287 28.2361 73.6884 30.7362 72.2451L74.1302 47.1915C76.6306 45.7479 77.4903 42.5394 76.0467 40.0389L60.9499 13.8904C59.5063 11.39 56.2978 10.5303 53.7973 11.9739V11.9739ZM74.4885 40.9386C75.436 42.5796 74.8716 44.6858 73.2306 45.6333L29.8365 70.6869C28.1959 71.6341 26.0897 71.0697 25.1422 69.4287L10.0454 43.2802C9.09789 41.6391 9.66224 39.5329 11.3029 38.5857L54.697 13.5321C56.338 12.5846 58.4442 13.149 59.3917 14.7901L74.4885 40.9386Z" fill="#5E7CE4"/>
<path d="M32.79 32.4131L14.7139 42.8494C14.2836 43.0978 14.1358 43.6479 14.3845 44.0786L15.4639 45.9482C15.7123 46.3785 16.2626 46.5256 16.6929 46.2772C17.1232 46.0288 17.271 45.4786 17.0225 45.0484L16.3928 43.9577L32.9107 34.4211L43.887 53.4326L27.3691 62.9692L18.822 48.1652C18.5736 47.7349 18.0231 47.5874 17.5928 47.8358C17.1625 48.0842 17.015 48.6348 17.2634 49.065L26.2602 64.6479C26.5086 65.0782 27.0592 65.2257 27.4894 64.9773L45.5655 54.5411C45.9958 54.2926 46.1433 53.7421 45.8949 53.3118L34.0192 32.7425C33.7705 32.3118 33.2202 32.1647 32.79 32.4131Z" fill="#5E7CE4"/>
<path d="M57.9349 20.3046L38.4043 31.5806C37.974 31.829 37.8265 32.3795 38.0749 32.8098C38.3234 33.2401 38.8737 33.3872 39.3039 33.1388L58.8346 21.8628C59.2648 21.6144 59.4122 21.0645 59.1638 20.6342C58.9153 20.2039 58.3652 20.0561 57.9349 20.3046Z" fill="#5E7CE4"/>
<path d="M61.1988 25.9567L56.8355 28.4758C56.4053 28.7243 56.2579 29.2742 56.5063 29.7044C56.7548 30.1347 57.3049 30.2825 57.7352 30.034L62.0984 27.5149C62.5287 27.2665 62.6758 26.7162 62.4274 26.2859C62.179 25.8557 61.629 25.7083 61.1988 25.9567Z" fill="#5E7CE4"/>
<path d="M42.5676 38.7909L54.6182 31.8335C55.0485 31.5851 55.196 31.0345 54.9476 30.6042C54.6992 30.174 54.1488 30.0269 53.7186 30.2753L41.668 37.2327C41.2377 37.4811 41.09 38.0312 41.3384 38.4615C41.5868 38.8918 42.1373 39.0393 42.5676 38.7909Z" fill="#5E7CE4"/>
<path d="M64.4613 31.6088L44.9307 42.8848C44.5004 43.1332 44.3526 43.6833 44.6011 44.1136C44.8495 44.5439 45.4 44.6914 45.8303 44.443L65.3609 33.167C65.7912 32.9186 65.9383 32.3683 65.6899 31.938C65.4415 31.5077 64.8916 31.3604 64.4613 31.6088Z" fill="#5E7CE4"/>
<path d="M58.7908 42.4189L48.1943 48.5368C47.7641 48.7852 47.6163 49.3353 47.8647 49.7656C48.1132 50.1959 48.6637 50.3434 49.094 50.095L59.6904 43.9771C60.1207 43.7287 60.2678 43.1784 60.0194 42.7481C59.771 42.3178 59.2211 42.1705 58.7908 42.4189Z" fill="#5E7CE4"/>
<path d="M29.1838 59.6355C29.4322 60.0658 29.9825 60.2129 30.4128 59.9645C30.8431 59.7161 30.9908 59.1659 30.7424 58.7357C29.5021 56.5875 30.2407 53.831 32.3889 52.5907C34.5371 51.3505 37.2936 52.0891 38.5338 54.2373C38.7823 54.6675 39.3322 54.8149 39.7624 54.5665C40.1927 54.318 40.3405 53.7679 40.0921 53.3376C38.9477 51.3556 36.8816 50.2312 34.7448 50.1915C35.7789 48.3211 35.8382 45.9697 34.6938 43.9876C32.9576 40.9804 29.0982 39.9463 26.091 41.6825C23.0835 43.4189 22.0494 47.2783 23.7855 50.2855C24.9299 52.2676 26.9964 53.3917 29.1332 53.4314C28.0991 55.3017 28.0394 57.6534 29.1838 59.6355ZM25.3442 49.3856C24.1039 47.2374 24.8425 44.481 26.9907 43.2407C29.1389 42.0004 31.8953 42.739 33.1356 44.8872C34.3758 47.0354 33.6373 49.7919 31.4891 51.0321C29.3409 52.2724 26.5844 51.5338 25.3442 49.3856Z" fill="#5E7CE4"/>
</g>
<defs>
<clipPath id="clip0">
<rect width="60.5787" height="60.5787" fill="white" transform="translate(0.899414 31.0381) rotate(-30)"/>
</clipPath>
</defs>
</svg>
