<svg width="59" height="60" viewBox="0 0 59 60" fill="none" xmlns="http://www.w3.org/2000/svg">
<path d="M58.2741 10.9173C57.7626 10.3389 57.0563 9.99461 56.2858 9.94748L9.40668 7.08103C7.81656 6.98481 6.4424 8.19892 6.34514 9.78972L5.70939 20.1868H2.89053C1.29661 20.1868 0 21.4836 0 23.0774V29.5815V50.4136C0 52.0075 1.29661 53.3041 2.89053 53.3041H49.8571C51.451 53.3041 52.7476 52.0075 52.7476 50.4136V42.9102L54.2646 43.003C54.3244 43.0067 54.3837 43.0084 54.4428 43.0084C55.9568 43.0084 57.2325 41.8252 57.3261 40.2942L58.9945 13.009C59.0416 12.2384 58.7858 11.4955 58.2741 10.9173ZM50.4429 50.4136C50.4429 50.7366 50.1801 50.9994 49.8571 50.9994H2.89053C2.56753 50.9994 2.30468 50.7366 2.30468 50.4136V30.7339H43.7421C44.3785 30.7339 44.8944 30.218 44.8944 29.5815C44.8944 28.9451 44.3785 28.4292 43.7421 28.4292H2.30468V23.0774C2.30468 22.7544 2.56753 22.4915 2.89053 22.4915H49.8571C50.1801 22.4915 50.4429 22.7544 50.4429 23.0774V50.4136ZM56.5633 15.0074L17.0505 12.6013C16.4128 12.5618 15.8689 13.0462 15.8303 13.6815C15.7916 14.3168 16.2752 14.8631 16.9105 14.9017L56.4227 17.3078L55.0257 40.1536C55.006 40.4761 54.7268 40.7219 54.4052 40.7026L52.7476 40.6011V23.0774C52.7476 21.4835 51.451 20.1868 49.8571 20.1868H8.01845L8.64556 9.93042C8.66526 9.608 8.94424 9.3614 9.26609 9.38133L56.1451 12.2479C56.3558 12.2608 56.488 12.3765 56.548 12.4445C56.6081 12.5124 56.7068 12.6577 56.694 12.8684L56.5633 15.0074Z" fill="#DF6734"/>
<path d="M42.6108 38.7014C41.4175 38.7014 40.3124 39.0831 39.4083 39.7291C38.5042 39.0832 37.399 38.7014 36.2057 38.7014C33.1603 38.7014 30.6826 41.1791 30.6826 44.2245C30.6826 47.2699 33.1603 49.7475 36.2057 49.7475C37.399 49.7475 38.5041 49.3659 39.4083 48.7199C40.3123 49.3658 41.4175 49.7475 42.6108 49.7475C45.6563 49.7475 48.1339 47.2699 48.1339 44.2245C48.1339 41.1791 45.6563 38.7014 42.6108 38.7014ZM37.8373 46.997C37.3585 47.2798 36.801 47.4428 36.2058 47.4428C34.4312 47.4428 32.9874 45.9991 32.9874 44.2245C32.9874 42.4499 34.4312 41.0061 36.2058 41.0061C36.801 41.0061 37.3585 41.1692 37.8373 41.4519C37.3618 42.2675 37.0879 43.2143 37.0879 44.2245C37.0879 45.2346 37.3618 46.1815 37.8373 46.997ZM42.6108 47.4428C40.8362 47.4428 39.3925 45.9991 39.3925 44.2245C39.3925 42.4499 40.8362 41.0061 42.6108 41.0061C44.3854 41.0061 45.8292 42.4499 45.8292 44.2245C45.8292 45.9991 44.3854 47.4428 42.6108 47.4428Z" fill="#DF6734"/>
<path d="M7.92617 44.4029C7.91119 44.3303 7.88929 44.2577 7.86048 44.1874C7.83167 44.1182 7.79595 44.0514 7.75447 43.9892C7.71298 43.9258 7.66459 43.867 7.61158 43.814C7.34423 43.5455 6.94552 43.4234 6.57101 43.4983C6.49842 43.5133 6.42582 43.5352 6.35553 43.564C6.28639 43.5928 6.21955 43.6285 6.15732 43.67C6.09394 43.7126 6.03517 43.761 5.98217 43.814C5.92801 43.867 5.88076 43.9258 5.83812 43.9892C5.79664 44.0514 5.76092 44.1182 5.73211 44.1874C5.7033 44.2577 5.68141 44.3303 5.66643 44.4029C5.65145 44.4778 5.64453 44.5538 5.64453 44.6287C5.64453 44.7036 5.65145 44.7797 5.66643 44.8534C5.68141 44.9272 5.7033 44.9998 5.73211 45.0689C5.76092 45.1392 5.79664 45.2061 5.83812 45.2683C5.88076 45.3317 5.92801 45.3904 5.98217 45.4434C6.03517 45.4964 6.09394 45.5448 6.15732 45.5863C6.21955 45.6278 6.28639 45.6635 6.35553 45.6923C6.42582 45.7211 6.49842 45.743 6.57101 45.758C6.64592 45.773 6.72197 45.7811 6.79687 45.7811C7.09994 45.7811 7.39724 45.6578 7.61158 45.4434C7.66459 45.3904 7.71298 45.3317 7.75447 45.2683C7.79595 45.2061 7.83167 45.1392 7.86048 45.0689C7.88929 44.9998 7.91119 44.9272 7.92617 44.8534C7.94115 44.7797 7.94921 44.7036 7.94921 44.6287C7.94921 44.5538 7.94115 44.4778 7.92617 44.4029Z" fill="#DF6734"/>
<path d="M18.3385 43.4761H11.4053C10.7688 43.4761 10.2529 43.992 10.2529 44.6284C10.2529 45.2649 10.7688 45.7808 11.4053 45.7808H18.3385C18.9749 45.7808 19.4908 45.2649 19.4908 44.6284C19.4908 43.992 18.9749 43.4761 18.3385 43.4761Z" fill="#DF6734"/>
</svg>
