<svg width="156" height="156" viewBox="0 0 156 156" fill="none" xmlns="http://www.w3.org/2000/svg">
<path d="M131.579 96.3291C135.801 94.2361 139.042 90.4641 140.432 85.9175C142.752 78.3275 139.523 70.156 132.869 66.1321C133.717 60.0307 131.847 53.8486 127.67 49.2071C128.432 43.0077 124.617 36.9875 118.524 35.1247C116.193 34.412 113.776 34.362 111.481 34.9525C110.747 31.6493 109.28 28.5488 107.159 25.8514C104.297 22.2121 100.436 19.5705 95.9936 18.2123C88.381 15.8849 80.1396 17.7605 74.2859 22.9803C72.8436 21.6389 71.1042 20.6272 69.2056 20.0467C63.4362 18.2829 57.2185 20.7507 54.1788 25.8278C47.3765 26.9106 41.6147 31.2155 38.6277 37.3194C30.8604 36.9335 23.613 41.9024 21.2923 49.4929C19.9024 54.0393 20.4794 58.9779 22.8091 63.0743C21.0493 65.1061 19.7241 67.4948 18.9338 70.0796C15.8154 80.2795 21.5769 91.1152 31.777 94.2337C32.0111 94.3053 32.2493 94.3727 32.4915 94.4361C33.5068 98.7843 36.737 102.293 41.1047 103.628C45.1168 104.855 49.4294 103.994 52.648 101.45L58.9587 110.786L57.914 114.237C56.0512 120.348 52.4221 125.677 47.4195 129.65C46.3673 130.486 46.1917 132.017 47.0275 133.069C47.3454 133.469 47.7643 133.743 48.2192 133.882C48.9592 134.108 49.7945 133.978 50.4462 133.461C56.2247 128.872 60.4166 122.715 62.5702 115.652L63.9519 111.087C64.164 110.386 64.0491 109.627 63.6388 109.02L53.1544 93.5091C51.4179 90.9386 50.9422 87.7632 51.8491 84.7968L54.8886 74.8552C55.1199 77.4841 56.1479 79.9726 57.7952 81.993L56.503 86.2197C56.0277 87.7743 56.277 89.4382 57.1874 90.7857L63.2653 99.7781C63.5831 100.248 64.0475 100.583 64.5704 100.743C64.9113 100.847 65.2772 100.877 65.6434 100.822C66.571 100.682 67.3356 100.021 67.6091 99.1242L71.5208 86.2789C71.9268 86.161 72.3287 86.0257 72.7249 85.8676C74.5461 86.712 76.4452 87.3063 78.4176 87.6567L77.5716 90.4132C77.2964 91.31 77.5611 92.2852 78.2523 92.9197C78.5251 93.17 78.8452 93.3498 79.1861 93.4541C79.709 93.6139 80.2815 93.5963 80.808 93.3838L83.9235 92.1277C84.5145 92.4109 85.1292 92.6541 85.7666 92.8489C89.2775 93.9223 92.8996 93.4377 95.8868 91.793C94.9716 92.6559 93.8947 93.3544 92.6917 93.8395L75.332 100.832C74.651 101.106 74.1306 101.673 73.915 102.375L69.2145 117.688C67.0516 124.744 67.084 132.192 69.3082 139.228C69.559 140.022 70.1789 140.596 70.9189 140.823C71.3738 140.962 71.8741 140.969 72.3617 140.815C73.6432 140.41 74.3533 139.043 73.9484 137.761C72.0227 131.67 71.9946 125.222 73.8667 119.116L76.9678 109.013C78.1398 109.744 79.4076 110.324 80.7381 110.731C82.259 111.196 83.8103 111.429 85.373 111.429C86.6118 115.352 89.7125 118.49 93.7349 119.719C98.1028 121.055 102.743 119.953 106.016 116.915C106.252 116.998 106.487 117.075 106.721 117.147C108.596 117.72 110.532 118.006 112.476 117.997C113.819 117.99 114.904 116.896 114.897 115.552C114.891 114.208 113.796 113.123 112.452 113.13C110.999 113.137 109.55 112.923 108.144 112.493C107.561 112.315 106.985 112.096 106.384 111.823C105.373 111.365 104.183 111.649 103.486 112.511C101.48 114.996 98.2103 115.999 95.1578 115.065C92.2205 114.167 90.0819 111.615 89.7098 108.562C89.6305 107.912 89.2931 107.321 88.7732 106.924C88.2533 106.526 87.5953 106.354 86.9472 106.448C85.336 106.68 83.7258 106.556 82.161 106.077C81.0547 105.739 80.0117 105.228 79.0715 104.572L94.5108 98.3535C98.5289 96.7335 101.61 93.5171 103.064 89.4664C103.715 89.7923 104.394 90.0683 105.1 90.284C111.799 92.332 118.903 88.7096 121.228 82.1744C125.94 79.886 129.6 75.9527 131.544 71.113C135.502 74.1975 137.299 79.5206 135.778 84.4947C134.634 88.2362 131.743 91.247 128.044 92.5486C126.874 92.9602 126.201 94.1854 126.481 95.3934C126.999 97.6267 126.983 99.8859 126.434 102.108C126.123 103.369 126.856 104.643 128.083 105.018C128.126 105.031 128.169 105.043 128.214 105.054C129.518 105.376 130.837 104.58 131.159 103.275C131.718 101.012 131.858 98.6457 131.579 96.3291ZM49.1225 96.2338L49.9098 97.3986C47.9039 99.1441 45.1141 99.7652 42.5275 98.9743C39.475 98.0411 37.3254 95.3817 37.0515 92.1993C36.9566 91.095 36.128 90.1949 35.034 90.009C34.3922 89.9001 33.7752 89.756 33.1998 89.58C25.5656 87.246 21.2537 79.1366 23.5877 71.5026C24.3302 69.0738 25.7036 66.8772 27.5589 65.1504C28.4668 64.3056 28.594 62.9134 27.8544 61.9179C25.5157 58.7704 24.8023 54.6573 25.9462 50.9158C27.4669 45.9419 31.9335 42.5336 36.9394 42.1891C35.7038 47.9567 36.9495 53.9907 40.3938 58.8139C39.4127 65.1613 43.2279 71.3673 49.4904 73.2819C49.7324 73.3559 49.9759 73.4209 50.22 73.4805L47.1953 83.3737C45.8569 87.7522 46.559 92.4392 49.1225 96.2338ZM64.4403 92.8256L61.2198 88.0609C61.134 87.9339 61.1123 87.7892 61.1571 87.6426L61.8696 85.3124C62.5672 85.6753 63.3057 85.982 64.0843 86.22C64.8173 86.4441 65.5608 86.6014 66.3074 86.6943L64.4403 92.8256ZM118.281 78.167C117.578 78.4621 117.001 79.2588 116.812 79.9978C116.78 80.1236 116.851 79.8721 116.812 79.9978C115.491 84.3208 110.846 86.9513 106.523 85.6296C104.582 85.0363 102.938 83.7518 101.894 82.013C101.396 81.1825 100.452 80.7268 99.491 80.8531C98.5306 80.9793 97.7149 81.7421 97.4478 82.6734C96.1261 86.9964 91.5124 89.5167 87.1892 88.195C85.1356 87.5672 83.4349 86.1831 82.4008 84.2975C82.0928 83.7362 81.5797 83.3246 80.9786 83.1409C80.8334 83.0965 80.6831 83.0655 80.5292 83.0488C78.2011 82.7965 75.9783 82.1172 73.9053 81.0236C73.2021 80.6532 72.3625 80.6489 71.6558 81.0127C69.7441 81.9974 67.5605 82.1939 65.5069 81.5661C61.184 80.2444 58.7933 75.4927 60.1137 71.1739C60.4129 70.2525 60.1395 69.242 59.4138 68.6003C58.6879 67.9585 57.651 67.8081 56.7728 68.218C54.9347 69.0758 52.8537 69.2213 50.9132 68.628C46.7392 67.3519 44.2974 63.0388 45.3541 58.8091C45.5384 58.0723 45.3677 57.2917 44.8933 56.6988C41.5483 52.5195 40.4838 46.9746 42.0457 41.8658C43.965 35.5879 49.4298 31.1278 55.9679 30.5032C56.8302 30.4208 57.5838 29.8858 57.9465 29.099C59.6514 25.3982 63.8801 23.5072 67.7824 24.7003C69.583 25.2508 71.0952 26.364 72.155 27.9195C72.579 28.5415 73.2671 28.9325 74.0176 28.978C74.7686 29.0239 75.4988 28.7197 75.9951 28.1541C80.6045 22.9012 87.8957 20.8254 94.5707 22.8662C101.621 25.0216 106.54 31.1664 107.103 38.5208C107.167 39.3481 107.647 40.086 108.378 40.4786C109.109 40.871 109.989 40.8643 110.714 40.4607C112.682 39.3637 114.951 39.1216 117.101 39.7789C121.199 41.0319 123.655 45.2814 122.692 49.4529C122.501 50.2776 122.753 51.1419 123.356 51.7351C127.674 55.9811 129.258 62.2093 127.491 67.9895C126.084 72.5921 122.727 76.3017 118.281 78.167Z" fill="white"/>
<path d="M122.164 114.232C123.449 114.625 124.809 113.901 125.202 112.616C125.595 111.331 124.872 109.971 123.587 109.578C122.302 109.185 120.941 109.908 120.548 111.193C120.155 112.479 120.879 113.839 122.164 114.232Z" fill="white"/>
</svg>
