<svg width="131" height="133" viewBox="0 0 131 133" fill="none" xmlns="http://www.w3.org/2000/svg">
<path d="M62.0637 61.7461C58.5538 60.673 54.8241 62.6557 53.7509 66.1661C52.6776 69.6764 54.6605 73.4057 58.1709 74.4789C61.6812 75.5521 65.4105 73.5692 66.4837 70.0589C67.5569 66.5486 65.5736 62.8192 62.0637 61.7461ZM59.2832 70.8404C57.779 70.3805 56.9291 68.7821 57.389 67.2779C57.8489 65.7737 59.4473 64.9238 60.9516 65.3836C62.4558 65.8435 63.3057 67.442 62.8458 68.9462C62.3859 70.4504 60.7879 71.3005 59.2832 70.8404Z" fill="white"/>
<path d="M94.0922 103.361C91.0617 102.435 87.9515 102.652 85.2205 103.757L75.9689 88.1787C78.4645 85.9442 80.4148 83.0412 81.4636 79.6108C84.3424 70.1948 79.5249 60.2306 70.626 56.5091L75.1474 41.7202C81.5787 42.7165 87.952 38.8716 89.9093 32.4694C92.0562 25.4489 88.0908 17.9909 81.0701 15.8445C74.0494 13.6981 66.5911 17.6634 64.4446 24.684C62.4874 31.0858 65.6211 37.8373 71.5098 40.6081L66.9884 55.3969C57.5297 53.5065 47.9639 59.0733 45.0853 68.4888C44.0368 71.9183 44.03 75.4151 44.8487 78.6624L28.5502 86.5208C26.9045 84.0211 24.4139 82.0583 21.3352 81.117C14.3145 78.9706 6.85656 82.936 4.71013 89.9567C2.56369 96.9774 6.52915 104.435 13.5498 106.582C20.5705 108.728 28.0289 104.763 30.1753 97.7422C30.9803 95.1092 30.9254 92.4148 30.1724 89.962L46.1498 82.258C48.3716 86.8883 52.4263 90.6225 57.7135 92.239C63.0006 93.8554 68.4507 93.0271 72.8819 90.4309L81.9323 105.67C79.8841 107.29 78.2868 109.52 77.4672 112.201C75.3208 119.221 79.2862 126.679 86.3069 128.826C93.3275 130.972 100.785 127.007 102.932 119.986C105.078 112.965 101.113 105.508 94.0922 103.361ZM14.6621 102.944C9.64749 101.411 6.81472 96.0829 8.34783 91.0684C9.88094 86.0538 15.2086 83.221 20.2232 84.7541C25.2378 86.2872 28.0705 91.6149 26.5374 96.6295C25.0042 101.645 19.6766 104.477 14.6621 102.944ZM68.0826 25.7963C69.6157 20.7817 74.9434 17.9489 79.958 19.4821C84.9726 21.0152 87.8053 26.3428 86.2722 31.3574C84.7391 36.372 79.4114 39.2048 74.3969 37.6716C69.3823 36.1385 66.5495 30.8109 68.0826 25.7963ZM58.8262 88.6011C50.8027 86.1481 46.2709 77.6243 48.7238 69.6012C51.1766 61.5782 59.7006 57.0459 67.7236 59.4988C75.7467 61.9517 80.2789 70.4756 77.826 78.4987C75.3732 86.5217 66.8492 91.054 58.8262 88.6011ZM87.4191 125.188C82.4046 123.655 79.5718 118.327 81.1049 113.312C81.8606 110.841 83.5429 108.907 85.6504 107.758L85.7696 107.687C87.9137 106.556 90.4851 106.235 92.9802 106.998C97.9948 108.531 100.828 113.859 99.2945 118.874C97.7608 123.888 92.4333 126.721 87.4191 125.188Z" fill="white"/>
<path d="M92.424 108.818C88.4123 107.591 84.1506 109.857 82.9241 113.869C82.6169 114.874 83.1826 115.937 84.1868 116.244C85.191 116.551 86.2546 115.985 86.5616 114.981C87.175 112.975 89.3054 111.842 91.3119 112.455C92.3165 112.763 93.3797 112.197 93.6867 111.193C93.9939 110.188 93.4282 109.125 92.424 108.818Z" fill="white"/>
<path d="M19.6662 86.5739C15.6545 85.3473 11.3928 87.6133 10.1663 91.6251C9.85912 92.6297 10.4248 93.6929 11.429 93.9999C12.4331 94.3069 13.4968 93.7413 13.8038 92.7372C14.4171 90.7311 16.5475 89.598 18.5541 90.2114C19.5587 90.5186 20.6219 89.9528 20.9289 88.9487C21.2365 87.9442 20.6708 86.881 19.6662 86.5739Z" fill="white"/>
<path d="M80.6653 23.6761C80.9724 22.6715 80.4067 21.6083 79.4025 21.3013C75.3908 20.0748 71.1291 22.3407 69.9026 26.3525C69.5955 27.3571 70.1612 28.4203 71.1653 28.7273C72.1699 29.0345 73.2332 28.4687 73.5402 27.4646C74.1535 25.4585 76.2839 24.3254 78.2904 24.9388C79.2944 25.2463 80.3581 24.6807 80.6653 23.6761Z" fill="white"/>
</svg>
