<svg width="141" height="141" viewBox="0 0 141 141" fill="none" xmlns="http://www.w3.org/2000/svg">
<g clip-path="url(#clip0)">
<path d="M99.2949 59.5747C97.1037 58.8207 95.4044 57.2229 94.5101 55.0763C93.8575 53.5096 91.9562 52.931 90.5419 53.8631C86.332 56.6377 80.6761 54.9014 78.7414 50.2553C78.0808 48.67 76.168 48.1232 74.7729 49.0421C70.5644 51.8161 64.9082 50.0822 62.9725 45.4341C62.3187 43.8651 60.4165 43.2904 59.0045 44.2209C57.0626 45.5007 54.7605 45.8748 52.5222 45.2748C51.641 45.0386 50.7353 45.5612 50.4993 46.4425C50.263 47.3237 50.7816 48.2263 51.6669 48.4656C54.5543 49.2397 57.6314 48.8319 60.2164 47.3517C63.094 53.2125 70.3145 55.4265 75.9855 52.1731C78.8635 58.0339 86.0842 60.2473 91.7545 56.9939C93.0703 59.6666 95.3928 61.7253 98.2197 62.6982C99.0781 62.995 100.022 62.5366 100.319 61.6739C100.616 60.8113 100.158 59.8716 99.2949 59.5747Z" fill="white"/>
<path d="M90.5492 68.0335C89.8965 66.4667 87.9953 65.8882 86.5809 66.8203C82.3714 69.5947 76.7153 67.8588 74.7805 63.2125C74.1199 61.6272 72.2071 61.0804 70.812 61.9992C66.6022 64.7743 60.9464 63.0376 59.0116 58.3913C58.3601 56.8283 56.4608 56.2439 55.0435 57.1783C52.738 58.6976 49.8604 58.9293 47.3437 57.7982C46.5136 57.4249 45.5343 57.7952 45.1599 58.6273C44.7856 59.4591 45.157 60.437 45.9889 60.811C49.3254 62.3122 53.1113 62.1146 56.2558 60.3095C59.1336 66.1701 66.3539 68.3835 72.0245 65.1305C74.9022 70.9908 82.1229 73.2051 87.7932 69.9514C89.3907 73.2063 92.4191 75.487 96.0242 76.1083C96.923 76.2634 97.7777 75.6606 97.9326 74.7615C98.0875 73.8624 97.4812 73.0071 96.5858 72.8531C93.8658 72.3828 91.6106 70.5824 90.5492 68.0335Z" fill="white"/>
<path d="M102.016 45.9633C100.423 45.0843 99.2076 43.7231 98.501 42.027C97.8483 40.4602 95.947 39.8817 94.5327 40.8138C90.3229 43.5883 84.6669 41.852 82.7322 37.206C82.0717 35.6207 80.1588 35.0739 78.7638 35.9927C74.5552 38.7668 68.899 37.0329 66.9633 32.3847C66.3095 30.8157 64.4073 30.2411 62.9953 31.1716C61.4611 32.1826 59.6924 32.6316 57.8806 32.4699C56.9718 32.3887 56.1696 33.0596 56.0885 33.9681C56.0074 34.8767 56.6798 35.6797 57.5868 35.7601C59.9144 35.9678 62.1888 35.4652 64.2078 34.303C67.0865 40.1645 74.3071 42.376 79.9763 39.1237C82.8541 44.9838 90.0741 47.1981 95.7445 43.945C96.7688 46.0376 98.3735 47.7264 100.419 48.8553C101.217 49.296 102.222 49.0059 102.664 48.2073C103.104 47.4087 102.814 46.4039 102.016 45.9633Z" fill="white"/>
<path d="M16.9058 93.9988L52.6524 104.928L48.1723 119.581C47.7055 121.108 48.5679 122.73 50.095 123.197L55.4006 124.819C56.9275 125.286 58.5494 124.424 59.0162 122.897L59.1105 122.588L74.7373 127.366L74.643 127.674C74.1762 129.201 75.0386 130.823 76.5657 131.29L81.8713 132.912C83.3982 133.379 85.0201 132.517 85.4869 130.99L89.967 116.336L101.575 119.885C106.655 121.438 111.993 118.26 113.033 113.035C113.034 113.026 113.036 113.017 113.038 113.009L117.476 88.6726C117.64 87.7752 117.043 86.9139 116.148 86.7514C115.25 86.5878 114.39 87.1826 114.226 88.08L109.791 112.402C109.143 115.62 105.837 117.733 102.542 116.726L90.9336 113.177L92.1607 109.163L101.625 112.056C103.619 112.666 105.707 111.418 106.115 109.372C106.117 109.363 106.118 109.354 106.12 109.344L119.147 37.5438C119.492 35.7658 118.449 34.0289 116.715 33.4988L88.3739 24.8339C87.5013 24.5672 86.5781 25.0582 86.3114 25.9306C86.0447 26.8029 86.5355 27.7263 87.408 27.993L115.75 36.6579C115.86 36.6916 115.926 36.8023 115.903 36.9154C115.902 36.9245 115.9 36.9335 115.898 36.9427L102.873 108.734C102.859 108.794 102.822 108.845 102.77 108.876C102.716 108.908 102.651 108.916 102.59 108.898L93.1263 106.004L94.6002 101.183C97.1421 92.8688 92.3363 84.2911 84.3145 81.8386C78.6749 80.1144 72.6067 81.757 68.5855 85.9522C67.5872 80.1724 63.3783 75.3212 57.5572 73.661C49.5717 71.3829 40.9936 75.8726 38.4993 84.0313L37.0253 88.8525L22.2087 84.3226C22.1485 84.3042 22.0986 84.2609 22.0717 84.2036C22.0459 84.1487 22.044 84.0855 22.0655 84.0288L51.4129 17.2277C51.4167 17.2192 51.4204 17.2107 51.424 17.2019C51.4687 17.0958 51.5851 17.0411 51.6955 17.0748L80.0368 25.7396C80.9093 26.0064 81.8325 25.5153 82.0992 24.643C82.3659 23.7707 81.8751 22.8473 81.0026 22.5805L52.6613 13.9157C50.9274 13.3856 49.0914 14.2429 48.3837 15.9101L19.0326 82.7195C19.0288 82.7282 19.0249 82.7369 19.0211 82.7457C18.2152 84.6691 19.2482 86.8719 21.2429 87.4817L54.8453 97.755L53.6182 101.769L17.8716 90.8399C14.7436 89.8836 12.9494 86.3915 14.2793 83.2016L45.2059 12.6342C45.2095 12.6261 45.2129 12.618 45.2163 12.61C46.352 9.90171 49.3261 8.50693 52.1345 9.36556L119.697 30.0214C122.505 30.88 124.191 33.6994 123.618 36.5795C123.616 36.5882 123.614 36.5969 123.613 36.6056L115.618 80.4454C115.455 81.343 116.052 82.2044 116.947 82.3666C117.844 82.5304 118.705 81.9354 118.868 81.038L126.86 37.2107C127.758 32.6646 125.095 28.2175 120.662 26.8623L53.1004 6.20646C48.6673 4.85114 43.9728 7.0492 42.1751 11.3203L11.248 81.8887C11.2444 81.8968 11.241 81.9049 11.2376 81.9131C9.18367 86.8119 11.8108 92.4411 16.9058 93.9988ZM75.7728 95.576C76.4377 93.4015 78.7254 92.0366 80.9236 92.664C83.1864 93.3088 84.4224 95.6891 83.7563 97.8678L82.2823 102.689L74.3405 100.261L75.7728 95.576ZM63.4966 108.243L79.1233 113.021L77.8962 117.034L62.2694 112.257L63.4966 108.243ZM82.1621 106.106C83.335 106.465 83.9609 107.766 83.4879 108.914C83.0738 109.912 81.9657 110.435 80.935 110.12L64.4625 105.084L65.6896 101.07C71.1889 102.752 76.6762 104.429 82.1621 106.106ZM61.3036 115.416L77.7762 120.452C78.9423 120.809 79.5768 122.107 79.102 123.259C78.6888 124.255 77.5805 124.781 76.5491 124.466L60.0765 119.429L61.3036 115.416ZM82.4477 129.634L77.9218 128.25L78.0643 127.784C82.4458 127.022 84.1014 121.637 80.888 118.548L82.4501 113.439C86.8521 112.673 88.4719 107.277 85.2739 104.203L86.9154 98.8336C88.2344 94.5191 85.4332 89.9709 80.9015 89.2825C77.3029 88.735 73.7477 90.9012 72.6554 94.4739L71.1814 99.2951L66.6555 97.9114L68.0616 93.3124C70.0288 86.8779 76.8248 83.0736 83.238 84.9671C89.8296 86.922 93.3905 93.8416 91.4413 100.217L82.4477 129.634ZM40.1849 89.8183L41.591 85.2191C43.6658 78.4325 50.921 74.8106 57.3474 77.0612C63.4792 79.2131 66.8883 85.8512 64.9705 92.1239L55.9769 121.541L51.4509 120.157C52.3793 117.121 59.246 94.6604 60.4446 90.7402C61.6004 86.9598 59.5946 82.9259 55.8991 81.5678C51.91 80.0958 47.4426 82.2666 46.1848 86.3806L44.7109 91.2018L40.1849 89.8181L40.1849 89.8183ZM47.8699 92.1678L49.3022 87.4829C49.9091 85.4979 51.8676 84.1855 53.885 84.4525C56.4555 84.8119 58.0166 87.3823 57.2852 89.7745L55.8112 94.5957L47.8699 92.1678Z" fill="white"/>
</g>
<defs>
<clipPath id="clip0">
<rect width="112.757" height="112.757" fill="white" transform="translate(32.9668 0.0507812) rotate(17)"/>
</clipPath>
</defs>
</svg>
