<svg width="72" height="71" viewBox="0 0 72 71" fill="none" xmlns="http://www.w3.org/2000/svg">
<path d="M55.2734 67.6719H17.5547C15.7893 67.6719 14.0963 66.9706 12.848 65.7223C11.5997 64.474 10.8984 62.781 10.8984 61.0156V9.98438C10.8984 8.21903 11.5997 6.52598 12.848 5.2777C14.0963 4.02941 15.7893 3.32813 17.5547 3.32812H48.6172L61.9297 16.6406V61.0156C61.9297 62.781 61.2284 64.474 59.9801 65.7223C58.7318 66.9706 57.0388 67.6719 55.2734 67.6719Z" fill="#E5E6F1"/>
<path d="M10.8984 49.9219H61.9297V61.0156C61.9297 62.781 61.2284 64.474 59.9801 65.7223C58.7318 66.9706 57.0388 67.6719 55.2734 67.6719H17.5547C15.7893 67.6719 14.0963 66.9706 12.848 65.7223C11.5997 64.474 10.8984 62.781 10.8984 61.0156V49.9219Z" fill="#62BE55"/>
<path d="M61.9297 16.6406H55.2734C53.5081 16.6406 51.815 15.9393 50.5668 14.6911C49.3185 13.4428 48.6172 11.7497 48.6172 9.98438V3.32812L61.9297 16.6406Z" fill="#62BE55"/>
<path d="M19.7734 19.9688H53.0547V39.9375H19.7734V19.9688Z" fill="#84C97B"/>
<path d="M44.1797 19.9688H46.3984V39.9375H44.1797V19.9688Z" fill="white"/>
<path d="M35.3047 19.9688H37.5234V39.9375H35.3047V19.9688Z" fill="white"/>
<path d="M19.7734 15.5312H28.6484V39.9375H19.7734V15.5312Z" fill="#62BE55"/>
<path d="M34.1953 62.125H30.8672V54.3594C30.8672 54.0652 30.7503 53.783 30.5423 53.5749C30.3342 53.3669 30.052 53.25 29.7578 53.25C29.4636 53.25 29.1814 53.3669 28.9734 53.5749C28.7653 53.783 28.6484 54.0652 28.6484 54.3594V63.2344C28.6484 63.5286 28.7653 63.8108 28.9734 64.0188C29.1814 64.2269 29.4636 64.3438 29.7578 64.3438H34.1953C34.4895 64.3438 34.7717 64.2269 34.9798 64.0188C35.1878 63.8108 35.3047 63.5286 35.3047 63.2344C35.3047 62.9402 35.1878 62.658 34.9798 62.4499C34.7717 62.2419 34.4895 62.125 34.1953 62.125Z" fill="white"/>
<path d="M25.8164 53.3674C25.5533 53.2358 25.2487 53.2141 24.9695 53.3072C24.6904 53.4002 24.4597 53.6003 24.3281 53.8634L23.1015 56.3164L21.875 53.8634C21.742 53.6026 21.5114 53.405 21.2333 53.3135C20.9552 53.222 20.6523 53.2442 20.3905 53.3751C20.1286 53.506 19.9292 53.7351 19.8356 54.0125C19.7419 54.2898 19.7617 54.5929 19.8906 54.8557L21.8612 58.7971L19.8906 62.7384C19.8241 62.8688 19.784 63.0112 19.7728 63.1571C19.7616 63.3031 19.7793 63.4499 19.8251 63.589C19.8708 63.728 19.9437 63.8567 20.0394 63.9675C20.1351 64.0783 20.2518 64.1691 20.3827 64.2345C20.5137 64.3 20.6563 64.3389 20.8024 64.349C20.9484 64.3591 21.095 64.3402 21.2338 64.2934C21.3725 64.2466 21.5006 64.1727 21.6106 64.0762C21.7207 63.9796 21.8105 63.8622 21.875 63.7307L23.1015 61.2778L24.3281 63.7307C24.3925 63.8622 24.4824 63.9796 24.5924 64.0762C24.7025 64.1727 24.8306 64.2466 24.9693 64.2934C25.108 64.3402 25.2546 64.3591 25.4007 64.349C25.5468 64.3389 25.6894 64.3 25.8203 64.2345C25.9513 64.1691 26.068 64.0783 26.1637 63.9675C26.2594 63.8567 26.3322 63.728 26.378 63.589C26.4237 63.4499 26.4415 63.3031 26.4302 63.1571C26.419 63.0112 26.379 62.8688 26.3125 62.7384L24.3418 58.7971L26.3125 54.8557C26.4441 54.5926 26.4657 54.288 26.3727 54.0088C26.2797 53.7297 26.0796 53.499 25.8164 53.3674Z" fill="white"/>
<path d="M52.4414 53.3674C52.1783 53.2358 51.8736 53.2141 51.5945 53.3072C51.3154 53.4002 51.0847 53.6003 50.9531 53.8634L49.7265 56.3164L48.5 53.8634C48.367 53.6026 48.1364 53.405 47.8583 53.3135C47.5802 53.222 47.2773 53.2442 47.0155 53.3751C46.7536 53.506 46.5542 53.7351 46.4606 54.0125C46.3669 54.2898 46.3867 54.5929 46.5156 54.8557L48.4862 58.7971L46.5156 62.7384C46.4491 62.8688 46.409 63.0112 46.3978 63.1571C46.3866 63.3031 46.4043 63.4499 46.4501 63.589C46.4958 63.728 46.5687 63.8567 46.6644 63.9675C46.7601 64.0783 46.8768 64.1691 47.0077 64.2345C47.1387 64.3 47.2813 64.3389 47.4274 64.349C47.5734 64.3591 47.72 64.3402 47.8588 64.2934C47.9975 64.2466 48.1256 64.1727 48.2356 64.0762C48.3457 63.9796 48.4355 63.8622 48.5 63.7307L49.7265 61.2778L50.9531 63.7307C51.0175 63.8622 51.1074 63.9796 51.2174 64.0762C51.3275 64.1727 51.4556 64.2466 51.5943 64.2934C51.733 64.3402 51.8796 64.3591 52.0257 64.349C52.1718 64.3389 52.3144 64.3 52.4453 64.2345C52.5763 64.1691 52.693 64.0783 52.7887 63.9675C52.8844 63.8567 52.9572 63.728 53.003 63.589C53.0487 63.4499 53.0665 63.3031 53.0552 63.1571C53.044 63.0112 53.004 62.8688 52.9375 62.7384L50.9668 58.7971L52.9375 54.8557C53.0691 54.5926 53.0907 54.288 52.9977 54.0088C52.9047 53.7297 52.7046 53.499 52.4414 53.3674Z" fill="white"/>
<path d="M40.8516 55.4688H43.0703C43.3645 55.4688 43.6467 55.3519 43.8548 55.1438C44.0628 54.9358 44.1797 54.6536 44.1797 54.3594C44.1797 54.0652 44.0628 53.783 43.8548 53.5749C43.6467 53.3669 43.3645 53.25 43.0703 53.25H40.8516C39.9689 53.25 39.1224 53.6006 38.4982 54.2248C37.8741 54.8489 37.5234 55.6955 37.5234 56.5781C37.5234 57.4608 37.8741 58.3073 38.4982 58.9315C39.1224 59.5556 39.9689 59.9062 40.8516 59.9062C41.1458 59.9062 41.428 60.0231 41.636 60.2312C41.8441 60.4392 41.9609 60.7214 41.9609 61.0156C41.9609 61.3098 41.8441 61.592 41.636 61.8001C41.428 62.0081 41.1458 62.125 40.8516 62.125H38.6328C38.3386 62.125 38.0564 62.2419 37.8484 62.4499C37.6403 62.658 37.5234 62.9402 37.5234 63.2344C37.5234 63.5286 37.6403 63.8108 37.8484 64.0188C38.0564 64.2269 38.3386 64.3438 38.6328 64.3438H40.8516C41.7342 64.3438 42.5808 63.9931 43.2049 63.369C43.829 62.7448 44.1797 61.8983 44.1797 61.0156C44.1797 60.133 43.829 59.2864 43.2049 58.6623C42.5808 58.0381 41.7342 57.6875 40.8516 57.6875C40.5573 57.6875 40.2752 57.5706 40.0671 57.3626C39.8591 57.1545 39.7422 56.8723 39.7422 56.5781C39.7422 56.2839 39.8591 56.0017 40.0671 55.7937C40.2752 55.5856 40.5573 55.4688 40.8516 55.4688Z" fill="white"/>
<path d="M26.4297 15.5312H28.6484V39.9375H26.4297V15.5312Z" fill="white"/>
<path d="M19.7734 19.9688H53.0547V22.1875H19.7734V19.9688Z" fill="white"/>
<path d="M19.7734 33.2812H53.0547V35.5H19.7734V33.2812Z" fill="white"/>
<path d="M19.7734 26.625H53.0547V28.8438H19.7734V26.625Z" fill="white"/>
</svg>
