<svg width="71" height="71" viewBox="0 0 71 71" fill="none" xmlns="http://www.w3.org/2000/svg">
<path d="M54.3594 67.6719H16.6406C14.8753 67.6719 13.1822 66.9706 11.9339 65.7223C10.6857 64.474 9.98438 62.781 9.98438 61.0156V9.98438C9.98438 8.21903 10.6857 6.52598 11.9339 5.2777C13.1822 4.02941 14.8753 3.32813 16.6406 3.32812H47.7031L61.0156 16.6406V61.0156C61.0156 62.781 60.3143 64.474 59.0661 65.7223C57.8178 66.9706 56.1247 67.6719 54.3594 67.6719Z" fill="#E5E6F1"/>
<path d="M22.1875 3.32812H28.8438V34.3906H22.1875V3.32812Z" fill="white"/>
<path d="M24.4062 3.32812H26.625V36.6094H24.4062V3.32812Z" fill="#D84557"/>
<path d="M9.98438 49.9219H61.0156V61.0156C61.0156 62.781 60.3143 64.474 59.0661 65.7223C57.8178 66.9706 56.1247 67.6719 54.3594 67.6719H16.6406C14.8753 67.6719 13.1822 66.9706 11.9339 65.7223C10.6857 64.474 9.98438 62.781 9.98438 61.0156V49.9219Z" fill="#FF5166"/>
<path d="M61.0156 16.6406H54.3594C52.594 16.6406 50.901 15.9393 49.6527 14.6911C48.4044 13.4428 47.7031 11.7497 47.7031 9.98438V3.32812L61.0156 16.6406Z" fill="#FF5166"/>
<path d="M28.8438 8.875H22.1875C21.8933 8.875 21.6111 8.75812 21.4031 8.55007C21.195 8.34202 21.0781 8.05985 21.0781 7.76562C21.0781 7.4714 21.195 7.18923 21.4031 6.98118C21.6111 6.77313 21.8933 6.65625 22.1875 6.65625H28.8438C29.138 6.65625 29.4201 6.77313 29.6282 6.98118C29.8362 7.18923 29.9531 7.4714 29.9531 7.76562C29.9531 8.05985 29.8362 8.34202 29.6282 8.55007C29.4201 8.75812 29.138 8.875 28.8438 8.875Z" fill="#FF5166"/>
<path d="M28.8438 13.3125H22.1875C21.8933 13.3125 21.6111 13.1956 21.4031 12.9876C21.195 12.7795 21.0781 12.4973 21.0781 12.2031C21.0781 11.9089 21.195 11.6267 21.4031 11.4187C21.6111 11.2106 21.8933 11.0938 22.1875 11.0938H28.8438C29.138 11.0938 29.4201 11.2106 29.6282 11.4187C29.8362 11.6267 29.9531 11.9089 29.9531 12.2031C29.9531 12.4973 29.8362 12.7795 29.6282 12.9876C29.4201 13.1956 29.138 13.3125 28.8438 13.3125Z" fill="#FF5166"/>
<path d="M28.8438 17.75H22.1875C21.8933 17.75 21.6111 17.6331 21.4031 17.4251C21.195 17.217 21.0781 16.9348 21.0781 16.6406C21.0781 16.3464 21.195 16.0642 21.4031 15.8562C21.6111 15.6481 21.8933 15.5312 22.1875 15.5312H28.8438C29.138 15.5312 29.4201 15.6481 29.6282 15.8562C29.8362 16.0642 29.9531 16.3464 29.9531 16.6406C29.9531 16.9348 29.8362 17.217 29.6282 17.4251C29.4201 17.6331 29.138 17.75 28.8438 17.75Z" fill="#FF5166"/>
<path d="M28.8438 22.1875H22.1875C21.8933 22.1875 21.6111 22.0706 21.4031 21.8626C21.195 21.6545 21.0781 21.3723 21.0781 21.0781C21.0781 20.7839 21.195 20.5017 21.4031 20.2937C21.6111 20.0856 21.8933 19.9688 22.1875 19.9688H28.8438C29.138 19.9688 29.4201 20.0856 29.6282 20.2937C29.8362 20.5017 29.9531 20.7839 29.9531 21.0781C29.9531 21.3723 29.8362 21.6545 29.6282 21.8626C29.4201 22.0706 29.138 22.1875 28.8438 22.1875Z" fill="#FF5166"/>
<path d="M28.8438 26.625H22.1875C21.8933 26.625 21.6111 26.5081 21.4031 26.3001C21.195 26.092 21.0781 25.8098 21.0781 25.5156C21.0781 25.2214 21.195 24.9392 21.4031 24.7312C21.6111 24.5231 21.8933 24.4062 22.1875 24.4062H28.8438C29.138 24.4062 29.4201 24.5231 29.6282 24.7312C29.8362 24.9392 29.9531 25.2214 29.9531 25.5156C29.9531 25.8098 29.8362 26.092 29.6282 26.3001C29.4201 26.5081 29.138 26.625 28.8438 26.625Z" fill="#FF5166"/>
<path d="M28.8438 31.0625H22.1875C21.8933 31.0625 21.6111 30.9456 21.4031 30.7376C21.195 30.5295 21.0781 30.2473 21.0781 29.9531C21.0781 29.6589 21.195 29.3767 21.4031 29.1687C21.6111 28.9606 21.8933 28.8438 22.1875 28.8438H28.8438C29.138 28.8438 29.4201 28.9606 29.6282 29.1687C29.8362 29.3767 29.9531 29.6589 29.9531 29.9531C29.9531 30.2473 29.8362 30.5295 29.6282 30.7376C29.4201 30.9456 29.138 31.0625 28.8438 31.0625Z" fill="#FF5166"/>
<path d="M27.4737 37.7852L26.625 34.3906H24.4063L23.5576 37.7852C23.3774 38.1232 23.2878 38.5022 23.2976 38.8852C23.3073 39.2681 23.4161 39.642 23.6132 39.9705C23.8104 40.299 24.0892 40.5708 24.4226 40.7595C24.756 40.9482 25.1325 41.0474 25.5156 41.0474C25.8987 41.0474 26.2753 40.9482 26.6086 40.7595C26.942 40.5708 27.2209 40.299 27.418 39.9705C27.6152 39.642 27.7239 39.2681 27.7337 38.8852C27.7434 38.5022 27.6538 38.1232 27.4737 37.7852Z" fill="#FF5166"/>
<path d="M37.7188 55.4688C38.013 55.4688 38.2951 55.3519 38.5032 55.1438C38.7112 54.9358 38.8281 54.6536 38.8281 54.3594C38.8281 54.0652 38.7112 53.783 38.5032 53.5749C38.2951 53.3669 38.013 53.25 37.7188 53.25H33.2812C32.987 53.25 32.7049 53.3669 32.4968 53.5749C32.2888 53.783 32.1719 54.0652 32.1719 54.3594C32.1719 54.6536 32.2888 54.9358 32.4968 55.1438C32.7049 55.3519 32.987 55.4688 33.2812 55.4688H34.3906V62.125H33.2812C32.987 62.125 32.7049 62.2419 32.4968 62.4499C32.2888 62.658 32.1719 62.9402 32.1719 63.2344C32.1719 63.5286 32.2888 63.8108 32.4968 64.0188C32.7049 64.2269 32.987 64.3438 33.2812 64.3438H37.7188C38.013 64.3438 38.2951 64.2269 38.5032 64.0188C38.7112 63.8108 38.8281 63.5286 38.8281 63.2344C38.8281 62.9402 38.7112 62.658 38.5032 62.4499C38.2951 62.2419 38.013 62.125 37.7188 62.125H36.6094V55.4688H37.7188Z" fill="white"/>
<path d="M44.375 53.25H42.1562C41.862 53.25 41.5799 53.3669 41.3718 53.5749C41.1638 53.783 41.0469 54.0652 41.0469 54.3594V63.2344C41.0469 63.5286 41.1638 63.8108 41.3718 64.0188C41.5799 64.2269 41.862 64.3438 42.1562 64.3438C42.4505 64.3438 42.7326 64.2269 42.9407 64.0188C43.1487 63.8108 43.2656 63.5286 43.2656 63.2344V59.9062H44.375C45.2577 59.9062 46.1042 59.5556 46.7283 58.9315C47.3525 58.3073 47.7031 57.4608 47.7031 56.5781C47.7031 55.6955 47.3525 54.8489 46.7283 54.2248C46.1042 53.6006 45.2577 53.25 44.375 53.25ZM44.375 57.6875H43.2656V55.4688H44.375C44.6692 55.4688 44.9514 55.5856 45.1594 55.7937C45.3675 56.0017 45.4844 56.2839 45.4844 56.5781C45.4844 56.8723 45.3675 57.1545 45.1594 57.3626C44.9514 57.5706 44.6692 57.6875 44.375 57.6875Z" fill="white"/>
<path d="M28.8438 62.125H26.2012L29.8359 54.8555C29.9205 54.6864 29.9605 54.4985 29.952 54.3096C29.9435 54.1206 29.8868 53.937 29.7874 53.7762C29.688 53.6153 29.5491 53.4825 29.384 53.3904C29.2188 53.2983 29.0329 53.25 28.8438 53.25H24.4062C24.112 53.25 23.8299 53.3669 23.6218 53.5749C23.4138 53.783 23.2969 54.0652 23.2969 54.3594C23.2969 54.6536 23.4138 54.9358 23.6218 55.1438C23.8299 55.3519 24.112 55.4688 24.4062 55.4688H27.0488L23.4141 62.7382C23.3295 62.9073 23.2895 63.0953 23.298 63.2842C23.3065 63.4731 23.3632 63.6567 23.4626 63.8176C23.562 63.9784 23.7009 64.1112 23.866 64.2033C24.0312 64.2954 24.2171 64.3437 24.4062 64.3438H28.8438C29.138 64.3438 29.4201 64.2269 29.6282 64.0188C29.8362 63.8108 29.9531 63.5286 29.9531 63.2344C29.9531 62.9402 29.8362 62.658 29.6282 62.4499C29.4201 62.2419 29.138 62.125 28.8438 62.125Z" fill="white"/>
</svg>
